%TF.GenerationSoftware,KiCad,Pcbnew,7.0.7*%
%TF.CreationDate,2023-08-28T01:03:24+03:00*%
%TF.ProjectId,STM32F405_Lesson_1,53544d33-3246-4343-9035-5f4c6573736f,rev?*%
%TF.SameCoordinates,Original*%
%TF.FileFunction,Copper,L2,Inr*%
%TF.FilePolarity,Positive*%
%FSLAX46Y46*%
G04 Gerber Fmt 4.6, Leading zero omitted, Abs format (unit mm)*
G04 Created by KiCad (PCBNEW 7.0.7) date 2023-08-28 01:03:24*
%MOMM*%
%LPD*%
G01*
G04 APERTURE LIST*
G04 Aperture macros list*
%AMRoundRect*
0 Rectangle with rounded corners*
0 $1 Rounding radius*
0 $2 $3 $4 $5 $6 $7 $8 $9 X,Y pos of 4 corners*
0 Add a 4 corners polygon primitive as box body*
4,1,4,$2,$3,$4,$5,$6,$7,$8,$9,$2,$3,0*
0 Add four circle primitives for the rounded corners*
1,1,$1+$1,$2,$3*
1,1,$1+$1,$4,$5*
1,1,$1+$1,$6,$7*
1,1,$1+$1,$8,$9*
0 Add four rect primitives between the rounded corners*
20,1,$1+$1,$2,$3,$4,$5,0*
20,1,$1+$1,$4,$5,$6,$7,0*
20,1,$1+$1,$6,$7,$8,$9,0*
20,1,$1+$1,$8,$9,$2,$3,0*%
G04 Aperture macros list end*
%TA.AperFunction,ComponentPad*%
%ADD10C,0.900000*%
%TD*%
%TA.AperFunction,ComponentPad*%
%ADD11C,8.600000*%
%TD*%
%TA.AperFunction,ComponentPad*%
%ADD12RoundRect,0.250000X1.550000X-0.650000X1.550000X0.650000X-1.550000X0.650000X-1.550000X-0.650000X0*%
%TD*%
%TA.AperFunction,ComponentPad*%
%ADD13O,3.600000X1.800000*%
%TD*%
%TA.AperFunction,ComponentPad*%
%ADD14O,1.600000X0.900000*%
%TD*%
%TA.AperFunction,ViaPad*%
%ADD15C,1.000000*%
%TD*%
%TA.AperFunction,ViaPad*%
%ADD16C,0.800000*%
%TD*%
G04 APERTURE END LIST*
D10*
%TO.N,GND*%
%TO.C,H1*%
X101175000Y-46400000D03*
X102119581Y-44119581D03*
X102119581Y-48680419D03*
X104400000Y-43175000D03*
D11*
X104400000Y-46400000D03*
D10*
X104400000Y-49625000D03*
X106680419Y-44119581D03*
X106680419Y-48680419D03*
X107625000Y-46400000D03*
%TD*%
D12*
%TO.N,+12V*%
%TO.C,J1*%
X105142500Y-72532500D03*
D13*
%TO.N,GND*%
X105142500Y-69032500D03*
%TD*%
D10*
%TO.N,GND*%
%TO.C,H4*%
X62994581Y-86300000D03*
X63939162Y-84019581D03*
X63939162Y-88580419D03*
X66219581Y-83075000D03*
D11*
X66219581Y-86300000D03*
D10*
X66219581Y-89525000D03*
X68500000Y-84019581D03*
X68500000Y-88580419D03*
X69444581Y-86300000D03*
%TD*%
D14*
%TO.N,unconnected-(J5-Shield-Pad6)*%
%TO.C,J5*%
X108195000Y-61000000D03*
X108195000Y-54400000D03*
%TD*%
D10*
%TO.N,GND*%
%TO.C,H3*%
X62994581Y-46300000D03*
X63939162Y-44019581D03*
X63939162Y-48580419D03*
X66219581Y-43075000D03*
D11*
X66219581Y-46300000D03*
D10*
X66219581Y-49525000D03*
X68500000Y-44019581D03*
X68500000Y-48580419D03*
X69444581Y-46300000D03*
%TD*%
%TO.N,GND*%
%TO.C,H2*%
X101525000Y-86300000D03*
X102469581Y-84019581D03*
X102469581Y-88580419D03*
X104750000Y-83075000D03*
D11*
X104750000Y-86300000D03*
D10*
X104750000Y-89525000D03*
X107030419Y-84019581D03*
X107030419Y-88580419D03*
X107975000Y-86300000D03*
%TD*%
D15*
%TO.N,GND*%
X75100000Y-48050000D03*
X80250000Y-84650000D03*
%TO.N,+3.3V*%
X75400000Y-84800000D03*
X80000000Y-47900000D03*
%TO.N,GND*%
X100500000Y-55800000D03*
X64100000Y-67650000D03*
X64100000Y-68850000D03*
X68577216Y-65753623D03*
X67150000Y-63650000D03*
X94700000Y-79600000D03*
X99300000Y-67900000D03*
X99300000Y-66850000D03*
X96700000Y-70400000D03*
X97800000Y-71300000D03*
X97750000Y-72450000D03*
X99300000Y-73500000D03*
X102100000Y-77800000D03*
X101100000Y-76850000D03*
X91375000Y-77100000D03*
X92300000Y-77500000D03*
X92550000Y-78900000D03*
X92500000Y-80300000D03*
X91350000Y-82400000D03*
X92450000Y-81750000D03*
X94700000Y-78450000D03*
X91650000Y-70250000D03*
X104200000Y-54050000D03*
X102950000Y-55250000D03*
X104200000Y-55250000D03*
X104200000Y-56400000D03*
X94450000Y-46800000D03*
X90650000Y-44800000D03*
X88100000Y-44800000D03*
X86850000Y-44850000D03*
X85450000Y-62350000D03*
X83700000Y-61600000D03*
X91650000Y-67950000D03*
X83700000Y-74050000D03*
X83000000Y-77700000D03*
X69800000Y-69400000D03*
X68500000Y-69400000D03*
X65400000Y-70100000D03*
X73150000Y-76400000D03*
X70700000Y-73550000D03*
X69800000Y-62950000D03*
X75150000Y-60900000D03*
X65650000Y-59600000D03*
X69175000Y-60800000D03*
%TO.N,+3.3V*%
X97600000Y-80300000D03*
X87400000Y-80400000D03*
X89500000Y-80450000D03*
X89350000Y-81900000D03*
X89450000Y-78900000D03*
X89350000Y-77600000D03*
X87400000Y-78800000D03*
X89600000Y-75900000D03*
X89550000Y-74650000D03*
X86200000Y-74650000D03*
X86200000Y-75800000D03*
X66550000Y-73200000D03*
X66500000Y-71600000D03*
X84200000Y-63950000D03*
X73400000Y-60100000D03*
X69150000Y-64680000D03*
X74900000Y-77200000D03*
X96650000Y-79450000D03*
X87700000Y-81950000D03*
X82200000Y-75450000D03*
X85550000Y-44900000D03*
X97850000Y-44700000D03*
X65650000Y-55050000D03*
X71675000Y-59850000D03*
X74900000Y-57500000D03*
X79450000Y-57450000D03*
D16*
%TO.N,SWDIO*%
X87750000Y-52100000D03*
X85900000Y-52100000D03*
%TO.N,NRST*%
X79200000Y-67950000D03*
X88550000Y-62750000D03*
%TD*%
%TA.AperFunction,Conductor*%
%TO.N,GND*%
G36*
X68057302Y-87735850D02*
G01*
X68130283Y-87786438D01*
X68321819Y-87977974D01*
X68375795Y-88058756D01*
X68394749Y-88154044D01*
X68375795Y-88249332D01*
X68321819Y-88330114D01*
X68310912Y-88338753D01*
X68311440Y-88339332D01*
X68294391Y-88354873D01*
X68275713Y-88379608D01*
X68203163Y-88444227D01*
X68111407Y-88476163D01*
X68014414Y-88470555D01*
X67926950Y-88428257D01*
X67900937Y-88405621D01*
X67703554Y-88208238D01*
X67649578Y-88127456D01*
X67630624Y-88032168D01*
X67649578Y-87936880D01*
X67703554Y-87856098D01*
X67709592Y-87850262D01*
X67784262Y-87780525D01*
X67866837Y-87729342D01*
X67962716Y-87713653D01*
X68057302Y-87735850D01*
G37*
%TD.AperFunction*%
%TA.AperFunction,Conductor*%
G36*
X64580236Y-87732461D02*
G01*
X64654901Y-87780527D01*
X64729493Y-87850191D01*
X64786195Y-87929082D01*
X64808391Y-88023668D01*
X64792701Y-88119548D01*
X64741513Y-88202125D01*
X64735606Y-88208238D01*
X64541577Y-88402267D01*
X64460795Y-88456243D01*
X64365507Y-88475197D01*
X64270219Y-88456243D01*
X64197754Y-88410208D01*
X64122296Y-88341417D01*
X64064648Y-88263214D01*
X64041315Y-88168902D01*
X64055849Y-88072841D01*
X64106038Y-87989653D01*
X64113979Y-87981336D01*
X64308878Y-87786437D01*
X64389660Y-87732461D01*
X64484948Y-87713507D01*
X64580236Y-87732461D01*
G37*
%TD.AperFunction*%
%TA.AperFunction,Conductor*%
G36*
X68168941Y-84143755D02*
G01*
X68241406Y-84189790D01*
X68316864Y-84258581D01*
X68374512Y-84336784D01*
X68397845Y-84431096D01*
X68383311Y-84527157D01*
X68333122Y-84610345D01*
X68325181Y-84618662D01*
X68130282Y-84813561D01*
X68049500Y-84867537D01*
X67954212Y-84886491D01*
X67858924Y-84867537D01*
X67784258Y-84819469D01*
X67709666Y-84749806D01*
X67652965Y-84670916D01*
X67630769Y-84576330D01*
X67646459Y-84480450D01*
X67697647Y-84397873D01*
X67703554Y-84391760D01*
X67897583Y-84197731D01*
X67978365Y-84143755D01*
X68073653Y-84124801D01*
X68168941Y-84143755D01*
G37*
%TD.AperFunction*%
%TA.AperFunction,Conductor*%
G36*
X64424740Y-84129442D02*
G01*
X64512205Y-84171738D01*
X64538224Y-84194378D01*
X64735606Y-84391760D01*
X64789582Y-84472542D01*
X64808536Y-84567830D01*
X64789582Y-84663118D01*
X64735606Y-84743900D01*
X64729493Y-84749807D01*
X64654905Y-84819468D01*
X64572328Y-84870656D01*
X64476448Y-84886346D01*
X64381862Y-84864150D01*
X64308878Y-84813561D01*
X64117342Y-84622025D01*
X64063366Y-84541243D01*
X64044412Y-84445955D01*
X64063366Y-84350667D01*
X64117342Y-84269885D01*
X64128251Y-84261248D01*
X64127722Y-84260668D01*
X64144769Y-84245127D01*
X64144770Y-84245124D01*
X64144772Y-84245124D01*
X64163446Y-84220394D01*
X64235992Y-84155776D01*
X64327747Y-84123837D01*
X64424740Y-84129442D01*
G37*
%TD.AperFunction*%
%TA.AperFunction,Conductor*%
G36*
X106587721Y-87735850D02*
G01*
X106660702Y-87786438D01*
X106852238Y-87977974D01*
X106906214Y-88058756D01*
X106925168Y-88154044D01*
X106906214Y-88249332D01*
X106852238Y-88330114D01*
X106841331Y-88338753D01*
X106841859Y-88339332D01*
X106824810Y-88354873D01*
X106806132Y-88379608D01*
X106733582Y-88444227D01*
X106641826Y-88476163D01*
X106544833Y-88470555D01*
X106457369Y-88428257D01*
X106431356Y-88405621D01*
X106233973Y-88208238D01*
X106179997Y-88127456D01*
X106161043Y-88032168D01*
X106179997Y-87936880D01*
X106233973Y-87856098D01*
X106240011Y-87850262D01*
X106314681Y-87780525D01*
X106397256Y-87729342D01*
X106493135Y-87713653D01*
X106587721Y-87735850D01*
G37*
%TD.AperFunction*%
%TA.AperFunction,Conductor*%
G36*
X103110655Y-87732461D02*
G01*
X103185320Y-87780527D01*
X103259912Y-87850191D01*
X103316614Y-87929082D01*
X103338810Y-88023668D01*
X103323120Y-88119548D01*
X103271932Y-88202125D01*
X103266025Y-88208238D01*
X103071996Y-88402267D01*
X102991214Y-88456243D01*
X102895926Y-88475197D01*
X102800638Y-88456243D01*
X102728173Y-88410208D01*
X102652715Y-88341417D01*
X102595067Y-88263214D01*
X102571734Y-88168902D01*
X102586268Y-88072841D01*
X102636457Y-87989653D01*
X102644398Y-87981336D01*
X102839297Y-87786437D01*
X102920079Y-87732461D01*
X103015367Y-87713507D01*
X103110655Y-87732461D01*
G37*
%TD.AperFunction*%
%TA.AperFunction,Conductor*%
G36*
X106699360Y-84143755D02*
G01*
X106771825Y-84189790D01*
X106847283Y-84258581D01*
X106904931Y-84336784D01*
X106928264Y-84431096D01*
X106913730Y-84527157D01*
X106863541Y-84610345D01*
X106855600Y-84618662D01*
X106660701Y-84813561D01*
X106579919Y-84867537D01*
X106484631Y-84886491D01*
X106389343Y-84867537D01*
X106314677Y-84819469D01*
X106240085Y-84749806D01*
X106183384Y-84670916D01*
X106161188Y-84576330D01*
X106176878Y-84480450D01*
X106228066Y-84397873D01*
X106233973Y-84391760D01*
X106428002Y-84197731D01*
X106508784Y-84143755D01*
X106604072Y-84124801D01*
X106699360Y-84143755D01*
G37*
%TD.AperFunction*%
%TA.AperFunction,Conductor*%
G36*
X102955159Y-84129442D02*
G01*
X103042624Y-84171738D01*
X103068643Y-84194378D01*
X103266025Y-84391760D01*
X103320001Y-84472542D01*
X103338955Y-84567830D01*
X103320001Y-84663118D01*
X103266025Y-84743900D01*
X103259912Y-84749807D01*
X103185324Y-84819468D01*
X103102747Y-84870656D01*
X103006867Y-84886346D01*
X102912281Y-84864150D01*
X102839297Y-84813561D01*
X102647761Y-84622025D01*
X102593785Y-84541243D01*
X102574831Y-84445955D01*
X102593785Y-84350667D01*
X102647761Y-84269885D01*
X102658670Y-84261248D01*
X102658141Y-84260668D01*
X102675188Y-84245127D01*
X102675189Y-84245124D01*
X102675191Y-84245124D01*
X102693865Y-84220394D01*
X102766411Y-84155776D01*
X102858166Y-84123837D01*
X102955159Y-84129442D01*
G37*
%TD.AperFunction*%
%TA.AperFunction,Conductor*%
G36*
X106237721Y-47835850D02*
G01*
X106310702Y-47886438D01*
X106502238Y-48077974D01*
X106556214Y-48158756D01*
X106575168Y-48254044D01*
X106556214Y-48349332D01*
X106502238Y-48430114D01*
X106491331Y-48438753D01*
X106491859Y-48439332D01*
X106474810Y-48454873D01*
X106456132Y-48479608D01*
X106383582Y-48544227D01*
X106291826Y-48576163D01*
X106194833Y-48570555D01*
X106107369Y-48528257D01*
X106081356Y-48505621D01*
X105883973Y-48308238D01*
X105829997Y-48227456D01*
X105811043Y-48132168D01*
X105829997Y-48036880D01*
X105883973Y-47956098D01*
X105890011Y-47950262D01*
X105964681Y-47880525D01*
X106047256Y-47829342D01*
X106143135Y-47813653D01*
X106237721Y-47835850D01*
G37*
%TD.AperFunction*%
%TA.AperFunction,Conductor*%
G36*
X102760655Y-47832461D02*
G01*
X102835320Y-47880527D01*
X102909912Y-47950191D01*
X102966614Y-48029082D01*
X102988810Y-48123668D01*
X102973120Y-48219548D01*
X102921932Y-48302125D01*
X102916025Y-48308238D01*
X102721996Y-48502267D01*
X102641214Y-48556243D01*
X102545926Y-48575197D01*
X102450638Y-48556243D01*
X102378173Y-48510208D01*
X102302715Y-48441417D01*
X102245067Y-48363214D01*
X102221734Y-48268902D01*
X102236268Y-48172841D01*
X102286457Y-48089653D01*
X102294398Y-48081336D01*
X102489297Y-47886437D01*
X102570079Y-47832461D01*
X102665367Y-47813507D01*
X102760655Y-47832461D01*
G37*
%TD.AperFunction*%
%TA.AperFunction,Conductor*%
G36*
X106349360Y-44243755D02*
G01*
X106421825Y-44289790D01*
X106497283Y-44358581D01*
X106554931Y-44436784D01*
X106578264Y-44531096D01*
X106563730Y-44627157D01*
X106513541Y-44710345D01*
X106505600Y-44718662D01*
X106310701Y-44913561D01*
X106229919Y-44967537D01*
X106134631Y-44986491D01*
X106039343Y-44967537D01*
X105964677Y-44919469D01*
X105890085Y-44849806D01*
X105833384Y-44770916D01*
X105811188Y-44676330D01*
X105826878Y-44580450D01*
X105878066Y-44497873D01*
X105883973Y-44491760D01*
X106078002Y-44297731D01*
X106158784Y-44243755D01*
X106254072Y-44224801D01*
X106349360Y-44243755D01*
G37*
%TD.AperFunction*%
%TA.AperFunction,Conductor*%
G36*
X102605159Y-44229442D02*
G01*
X102692624Y-44271738D01*
X102718643Y-44294378D01*
X102916025Y-44491760D01*
X102970001Y-44572542D01*
X102988955Y-44667830D01*
X102970001Y-44763118D01*
X102916025Y-44843900D01*
X102909912Y-44849807D01*
X102835324Y-44919468D01*
X102752747Y-44970656D01*
X102656867Y-44986346D01*
X102562281Y-44964150D01*
X102489297Y-44913561D01*
X102297761Y-44722025D01*
X102243785Y-44641243D01*
X102224831Y-44545955D01*
X102243785Y-44450667D01*
X102297761Y-44369885D01*
X102308670Y-44361248D01*
X102308141Y-44360668D01*
X102325188Y-44345127D01*
X102325189Y-44345124D01*
X102325191Y-44345124D01*
X102343865Y-44320394D01*
X102416411Y-44255776D01*
X102508166Y-44223837D01*
X102605159Y-44229442D01*
G37*
%TD.AperFunction*%
%TA.AperFunction,Conductor*%
G36*
X68057302Y-47735850D02*
G01*
X68130283Y-47786438D01*
X68321819Y-47977974D01*
X68375795Y-48058756D01*
X68394749Y-48154044D01*
X68375795Y-48249332D01*
X68321819Y-48330114D01*
X68310912Y-48338753D01*
X68311440Y-48339332D01*
X68294391Y-48354873D01*
X68275713Y-48379608D01*
X68203163Y-48444227D01*
X68111407Y-48476163D01*
X68014414Y-48470555D01*
X67926950Y-48428257D01*
X67900937Y-48405621D01*
X67703554Y-48208238D01*
X67649578Y-48127456D01*
X67630624Y-48032168D01*
X67649578Y-47936880D01*
X67703554Y-47856098D01*
X67709592Y-47850262D01*
X67784262Y-47780525D01*
X67866837Y-47729342D01*
X67962716Y-47713653D01*
X68057302Y-47735850D01*
G37*
%TD.AperFunction*%
%TA.AperFunction,Conductor*%
G36*
X64580236Y-47732461D02*
G01*
X64654901Y-47780527D01*
X64729493Y-47850191D01*
X64786195Y-47929082D01*
X64808391Y-48023668D01*
X64792701Y-48119548D01*
X64741513Y-48202125D01*
X64735606Y-48208238D01*
X64541577Y-48402267D01*
X64460795Y-48456243D01*
X64365507Y-48475197D01*
X64270219Y-48456243D01*
X64197754Y-48410208D01*
X64122296Y-48341417D01*
X64064648Y-48263214D01*
X64041315Y-48168902D01*
X64055849Y-48072841D01*
X64106038Y-47989653D01*
X64113979Y-47981336D01*
X64308878Y-47786437D01*
X64389660Y-47732461D01*
X64484948Y-47713507D01*
X64580236Y-47732461D01*
G37*
%TD.AperFunction*%
%TA.AperFunction,Conductor*%
G36*
X68168941Y-44143755D02*
G01*
X68241406Y-44189790D01*
X68316864Y-44258581D01*
X68374512Y-44336784D01*
X68397845Y-44431096D01*
X68383311Y-44527157D01*
X68333122Y-44610345D01*
X68325181Y-44618662D01*
X68130282Y-44813561D01*
X68049500Y-44867537D01*
X67954212Y-44886491D01*
X67858924Y-44867537D01*
X67784258Y-44819469D01*
X67709666Y-44749806D01*
X67652965Y-44670916D01*
X67630769Y-44576330D01*
X67646459Y-44480450D01*
X67697647Y-44397873D01*
X67703554Y-44391760D01*
X67897583Y-44197731D01*
X67978365Y-44143755D01*
X68073653Y-44124801D01*
X68168941Y-44143755D01*
G37*
%TD.AperFunction*%
%TA.AperFunction,Conductor*%
G36*
X64424740Y-44129442D02*
G01*
X64512205Y-44171738D01*
X64538224Y-44194378D01*
X64735606Y-44391760D01*
X64789582Y-44472542D01*
X64808536Y-44567830D01*
X64789582Y-44663118D01*
X64735606Y-44743900D01*
X64729493Y-44749807D01*
X64654905Y-44819468D01*
X64572328Y-44870656D01*
X64476448Y-44886346D01*
X64381862Y-44864150D01*
X64308878Y-44813561D01*
X64117342Y-44622025D01*
X64063366Y-44541243D01*
X64044412Y-44445955D01*
X64063366Y-44350667D01*
X64117342Y-44269885D01*
X64128251Y-44261248D01*
X64127722Y-44260668D01*
X64144769Y-44245127D01*
X64144770Y-44245124D01*
X64144772Y-44245124D01*
X64163446Y-44220394D01*
X64235992Y-44155776D01*
X64327747Y-44123837D01*
X64424740Y-44129442D01*
G37*
%TD.AperFunction*%
%TA.AperFunction,Conductor*%
G36*
X104499841Y-40756173D02*
G01*
X104499841Y-40756172D01*
X104507274Y-40756174D01*
X104553065Y-40752593D01*
X104607580Y-40754732D01*
X104741456Y-40759986D01*
X104951745Y-40768675D01*
X104961182Y-40769426D01*
X105184489Y-40795847D01*
X105196064Y-40797217D01*
X105217886Y-40799936D01*
X105411942Y-40824117D01*
X105420804Y-40825548D01*
X105651724Y-40871471D01*
X105866156Y-40916424D01*
X105874369Y-40918441D01*
X106100674Y-40982256D01*
X106311425Y-41044992D01*
X106318976Y-41047506D01*
X106539492Y-41128850D01*
X106744854Y-41208975D01*
X106751714Y-41211892D01*
X106797471Y-41232984D01*
X106965227Y-41310314D01*
X107032830Y-41343361D01*
X107163664Y-41407317D01*
X107169819Y-41410542D01*
X107375022Y-41525453D01*
X107409896Y-41546232D01*
X107565146Y-41638734D01*
X107570521Y-41642128D01*
X107745910Y-41759312D01*
X107766260Y-41772909D01*
X107946608Y-41901667D01*
X107951342Y-41905220D01*
X108136356Y-42051066D01*
X108307738Y-42196212D01*
X108482886Y-42358109D01*
X108641703Y-42516918D01*
X108686299Y-42565159D01*
X108803621Y-42692072D01*
X108948777Y-42863451D01*
X109094628Y-43048456D01*
X109098181Y-43053190D01*
X109226948Y-43233533D01*
X109271724Y-43300543D01*
X109357710Y-43429227D01*
X109361145Y-43434666D01*
X109474411Y-43624743D01*
X109589340Y-43829958D01*
X109592564Y-43836111D01*
X109689594Y-44034581D01*
X109788005Y-44248043D01*
X109790918Y-44254896D01*
X109814476Y-44315266D01*
X109871067Y-44460293D01*
X109952413Y-44680785D01*
X109954932Y-44688349D01*
X109971471Y-44743900D01*
X110017674Y-44899089D01*
X110081494Y-45125372D01*
X110083519Y-45133619D01*
X110128484Y-45348061D01*
X110174405Y-45578914D01*
X110175841Y-45587805D01*
X110202744Y-45803610D01*
X110230548Y-46038530D01*
X110231305Y-46048021D01*
X110240005Y-46258355D01*
X110249500Y-46500000D01*
X110249500Y-50003460D01*
X110244341Y-86147027D01*
X110243333Y-86152087D01*
X110243336Y-86152584D01*
X110240101Y-86169268D01*
X110243826Y-86250264D01*
X110245006Y-86485216D01*
X110245612Y-86695325D01*
X110245255Y-86705115D01*
X110227734Y-86935846D01*
X110210088Y-87150118D01*
X110208984Y-87159320D01*
X110172994Y-87387250D01*
X110137014Y-87600385D01*
X110135258Y-87608944D01*
X110081021Y-87833085D01*
X110026902Y-88043012D01*
X110024592Y-88050888D01*
X109952424Y-88269961D01*
X109880515Y-88474961D01*
X109877752Y-88482124D01*
X109788084Y-88694782D01*
X109698858Y-88893283D01*
X109695742Y-88899715D01*
X109589114Y-89104606D01*
X109483199Y-89295075D01*
X109479829Y-89300772D01*
X109356901Y-89496560D01*
X109235001Y-89677616D01*
X109231478Y-89682582D01*
X109093017Y-89867981D01*
X108954243Y-90040427D01*
X108799272Y-90216308D01*
X108646351Y-90376338D01*
X108477665Y-90539158D01*
X108311718Y-90685601D01*
X108132798Y-90832336D01*
X108127998Y-90836081D01*
X107952650Y-90966087D01*
X107762657Y-91097771D01*
X107757118Y-91101396D01*
X107571631Y-91215865D01*
X107371805Y-91331680D01*
X107365520Y-91335086D01*
X107171283Y-91433229D01*
X106962911Y-91532463D01*
X106955881Y-91535549D01*
X106754387Y-91616681D01*
X106538786Y-91698733D01*
X106531023Y-91701397D01*
X106323798Y-91764984D01*
X106102334Y-91829348D01*
X106093864Y-91831490D01*
X105882616Y-91877106D01*
X105656516Y-91923415D01*
X105647375Y-91924935D01*
X105434153Y-91952291D01*
X105204432Y-91980273D01*
X105194668Y-91981074D01*
X104984604Y-91990015D01*
X104750000Y-91999500D01*
X66250000Y-91999500D01*
X66008389Y-91990006D01*
X65798030Y-91981306D01*
X65788538Y-91980549D01*
X65553728Y-91952758D01*
X65337825Y-91925845D01*
X65328934Y-91924408D01*
X65098109Y-91878493D01*
X64883644Y-91833525D01*
X64875397Y-91831500D01*
X64649139Y-91767689D01*
X64438406Y-91704950D01*
X64430838Y-91702430D01*
X64210324Y-91621079D01*
X64004991Y-91540958D01*
X63998123Y-91538038D01*
X63784605Y-91439606D01*
X63586194Y-91342607D01*
X63580040Y-91339384D01*
X63374816Y-91224454D01*
X63333775Y-91199999D01*
X63184747Y-91111197D01*
X63179328Y-91107775D01*
X62983598Y-90976993D01*
X62803264Y-90848237D01*
X62798544Y-90844694D01*
X62613529Y-90698841D01*
X62519574Y-90619265D01*
X62442158Y-90553696D01*
X62267009Y-90391790D01*
X62108209Y-90232990D01*
X61946303Y-90057841D01*
X61872343Y-89970518D01*
X61801155Y-89886466D01*
X61655294Y-89701442D01*
X61651761Y-89696734D01*
X61523006Y-89516401D01*
X61392223Y-89320670D01*
X61388804Y-89315255D01*
X61275540Y-89125174D01*
X61160615Y-88919958D01*
X61157390Y-88913804D01*
X61156267Y-88911506D01*
X61060401Y-88715411D01*
X60961960Y-88501875D01*
X60959048Y-88495026D01*
X60878917Y-88289666D01*
X60797568Y-88069160D01*
X60795048Y-88061591D01*
X60789517Y-88043012D01*
X60732311Y-87850861D01*
X60668490Y-87624573D01*
X60666473Y-87616354D01*
X60621506Y-87401889D01*
X60599941Y-87293478D01*
X60575583Y-87171026D01*
X60574157Y-87162200D01*
X60547254Y-86946377D01*
X60519446Y-86711432D01*
X60518694Y-86702004D01*
X60509993Y-86491609D01*
X60502465Y-86300007D01*
X61314642Y-86300007D01*
X61334387Y-86739676D01*
X61393465Y-87175806D01*
X61393467Y-87175818D01*
X61491404Y-87604902D01*
X61627405Y-88023469D01*
X61627410Y-88023484D01*
X61800385Y-88428177D01*
X61800388Y-88428182D01*
X62008938Y-88815733D01*
X62251396Y-89183042D01*
X62251410Y-89183061D01*
X62525807Y-89527144D01*
X62546513Y-89548801D01*
X63336744Y-88758570D01*
X63417526Y-88704593D01*
X63512814Y-88685639D01*
X63608102Y-88704593D01*
X63680564Y-88750626D01*
X63756024Y-88819417D01*
X63813674Y-88897619D01*
X63837008Y-88991931D01*
X63822475Y-89087992D01*
X63772287Y-89171180D01*
X63764344Y-89179499D01*
X62973325Y-89970518D01*
X63161395Y-90134829D01*
X63161409Y-90134840D01*
X63517461Y-90393527D01*
X63895283Y-90619265D01*
X64291811Y-90810225D01*
X64291818Y-90810228D01*
X64703874Y-90964874D01*
X65128135Y-91081963D01*
X65561182Y-91160548D01*
X65999519Y-91199999D01*
X65999523Y-91200000D01*
X66439639Y-91200000D01*
X66439642Y-91199999D01*
X66877979Y-91160548D01*
X67311026Y-91081963D01*
X67735287Y-90964874D01*
X68147343Y-90810228D01*
X68147350Y-90810225D01*
X68543878Y-90619265D01*
X68921700Y-90393527D01*
X69277759Y-90134836D01*
X69465835Y-89970518D01*
X68678180Y-89182863D01*
X68624204Y-89102082D01*
X68605250Y-89006794D01*
X68624204Y-88911506D01*
X68678181Y-88830724D01*
X68689088Y-88822085D01*
X68688560Y-88821506D01*
X68705607Y-88805965D01*
X68705608Y-88805962D01*
X68705610Y-88805962D01*
X68724284Y-88781232D01*
X68796830Y-88716614D01*
X68888585Y-88684675D01*
X68985578Y-88690280D01*
X69073043Y-88732576D01*
X69099061Y-88755216D01*
X69892648Y-89548802D01*
X69913348Y-89527151D01*
X69913350Y-89527149D01*
X70187751Y-89183061D01*
X70187765Y-89183042D01*
X70430223Y-88815733D01*
X70638773Y-88428182D01*
X70638776Y-88428177D01*
X70811751Y-88023484D01*
X70811756Y-88023469D01*
X70947757Y-87604902D01*
X71045694Y-87175818D01*
X71045696Y-87175806D01*
X71104774Y-86739676D01*
X71106258Y-86706630D01*
X75024500Y-86706630D01*
X75030912Y-86777188D01*
X75030914Y-86777196D01*
X75081522Y-86939608D01*
X75131134Y-87021674D01*
X75169528Y-87085185D01*
X75289815Y-87205472D01*
X75337256Y-87234151D01*
X75435391Y-87293477D01*
X75435393Y-87293477D01*
X75435394Y-87293478D01*
X75597804Y-87344086D01*
X75597808Y-87344086D01*
X75597811Y-87344087D01*
X75668369Y-87350499D01*
X75668377Y-87350499D01*
X75668384Y-87350500D01*
X75668390Y-87350500D01*
X76181610Y-87350500D01*
X76181616Y-87350500D01*
X76181623Y-87350499D01*
X76181630Y-87350499D01*
X76252188Y-87344087D01*
X76252189Y-87344086D01*
X76252196Y-87344086D01*
X76414606Y-87293478D01*
X76490316Y-87247709D01*
X76581668Y-87214632D01*
X76678723Y-87219032D01*
X76720414Y-87233325D01*
X76876946Y-87303018D01*
X76895197Y-87311144D01*
X77080354Y-87350500D01*
X77269645Y-87350500D01*
X77269646Y-87350500D01*
X77454803Y-87311144D01*
X77627730Y-87234151D01*
X77653639Y-87215326D01*
X77741869Y-87174651D01*
X77838949Y-87170835D01*
X77930099Y-87204461D01*
X77946361Y-87215327D01*
X77972270Y-87234151D01*
X78145189Y-87311141D01*
X78145192Y-87311142D01*
X78145197Y-87311144D01*
X78330354Y-87350500D01*
X78519645Y-87350500D01*
X78519646Y-87350500D01*
X78704803Y-87311144D01*
X78723054Y-87303018D01*
X78853863Y-87244778D01*
X78948622Y-87223335D01*
X79044374Y-87239788D01*
X79107554Y-87275346D01*
X79143303Y-87303017D01*
X79143304Y-87303018D01*
X79325908Y-87392589D01*
X79374999Y-87405299D01*
X79375000Y-87405298D01*
X79375000Y-86697607D01*
X79393954Y-86602319D01*
X79447930Y-86521537D01*
X79528712Y-86467561D01*
X79624000Y-86448607D01*
X79648407Y-86449806D01*
X79650375Y-86449999D01*
X79650376Y-86450000D01*
X79650377Y-86450000D01*
X79699623Y-86450000D01*
X79699624Y-86450000D01*
X79699624Y-86449999D01*
X79701593Y-86449806D01*
X79703563Y-86450000D01*
X79711857Y-86450000D01*
X79711857Y-86450816D01*
X79798280Y-86459329D01*
X79883963Y-86505127D01*
X79945598Y-86580229D01*
X79973801Y-86673200D01*
X79975000Y-86697607D01*
X79975000Y-87405270D01*
X80117666Y-87352433D01*
X80290259Y-87244856D01*
X80437670Y-87104732D01*
X80553856Y-86937803D01*
X80634060Y-86750903D01*
X80674999Y-86551694D01*
X80675000Y-86551686D01*
X80675000Y-86500001D01*
X80674999Y-86500000D01*
X80173632Y-86500000D01*
X80078344Y-86481046D01*
X79997562Y-86427070D01*
X79943586Y-86346288D01*
X79934380Y-86300007D01*
X99845061Y-86300007D01*
X99864806Y-86739676D01*
X99923884Y-87175806D01*
X99923886Y-87175818D01*
X100021823Y-87604902D01*
X100157824Y-88023469D01*
X100157829Y-88023484D01*
X100330804Y-88428177D01*
X100330807Y-88428182D01*
X100539357Y-88815733D01*
X100781815Y-89183042D01*
X100781829Y-89183061D01*
X101056226Y-89527144D01*
X101076932Y-89548801D01*
X101867163Y-88758570D01*
X101947945Y-88704593D01*
X102043233Y-88685639D01*
X102138521Y-88704593D01*
X102210983Y-88750626D01*
X102286443Y-88819417D01*
X102344093Y-88897619D01*
X102367427Y-88991931D01*
X102352894Y-89087992D01*
X102302706Y-89171180D01*
X102294763Y-89179499D01*
X101503744Y-89970518D01*
X101691814Y-90134829D01*
X101691828Y-90134840D01*
X102047880Y-90393527D01*
X102425702Y-90619265D01*
X102822230Y-90810225D01*
X102822237Y-90810228D01*
X103234293Y-90964874D01*
X103658554Y-91081963D01*
X104091601Y-91160548D01*
X104529938Y-91199999D01*
X104529942Y-91200000D01*
X104970058Y-91200000D01*
X104970061Y-91199999D01*
X105408398Y-91160548D01*
X105841445Y-91081963D01*
X106265706Y-90964874D01*
X106677762Y-90810228D01*
X106677769Y-90810225D01*
X107074297Y-90619265D01*
X107452119Y-90393527D01*
X107808178Y-90134836D01*
X107996254Y-89970518D01*
X107208599Y-89182863D01*
X107154623Y-89102082D01*
X107135669Y-89006794D01*
X107154623Y-88911506D01*
X107208600Y-88830724D01*
X107219507Y-88822085D01*
X107218979Y-88821506D01*
X107236026Y-88805965D01*
X107236027Y-88805962D01*
X107236029Y-88805962D01*
X107254703Y-88781232D01*
X107327249Y-88716614D01*
X107419004Y-88684675D01*
X107515997Y-88690280D01*
X107603462Y-88732576D01*
X107629480Y-88755216D01*
X108423067Y-89548802D01*
X108443767Y-89527151D01*
X108443769Y-89527149D01*
X108718170Y-89183061D01*
X108718184Y-89183042D01*
X108960642Y-88815733D01*
X109169192Y-88428182D01*
X109169195Y-88428177D01*
X109342170Y-88023484D01*
X109342175Y-88023469D01*
X109478176Y-87604902D01*
X109576113Y-87175818D01*
X109576115Y-87175806D01*
X109635193Y-86739676D01*
X109654938Y-86300007D01*
X109654938Y-86299992D01*
X109635193Y-85860323D01*
X109576115Y-85424193D01*
X109576113Y-85424181D01*
X109478176Y-84995097D01*
X109342175Y-84576530D01*
X109342170Y-84576515D01*
X109169195Y-84171822D01*
X109169192Y-84171817D01*
X108960642Y-83784266D01*
X108718184Y-83416957D01*
X108718170Y-83416938D01*
X108443773Y-83072855D01*
X108423066Y-83051197D01*
X107632834Y-83841429D01*
X107552053Y-83895405D01*
X107456765Y-83914359D01*
X107361477Y-83895405D01*
X107289015Y-83849372D01*
X107213555Y-83780581D01*
X107155905Y-83702379D01*
X107132571Y-83608067D01*
X107147104Y-83512006D01*
X107197292Y-83428818D01*
X107205235Y-83420498D01*
X107996252Y-82629480D01*
X107808185Y-82465170D01*
X107808171Y-82465159D01*
X107452119Y-82206472D01*
X107074297Y-81980734D01*
X106677769Y-81789774D01*
X106677762Y-81789771D01*
X106265706Y-81635125D01*
X105841445Y-81518036D01*
X105408398Y-81439451D01*
X104970061Y-81400000D01*
X104529938Y-81400000D01*
X104091601Y-81439451D01*
X103658554Y-81518036D01*
X103234293Y-81635125D01*
X102822237Y-81789771D01*
X102822230Y-81789774D01*
X102425702Y-81980734D01*
X102047882Y-82206471D01*
X101691822Y-82465162D01*
X101691817Y-82465166D01*
X101503745Y-82629479D01*
X101503745Y-82629480D01*
X102291400Y-83417135D01*
X102345376Y-83497917D01*
X102364330Y-83593205D01*
X102345376Y-83688493D01*
X102291400Y-83769275D01*
X102280494Y-83777916D01*
X102281021Y-83778494D01*
X102263972Y-83794035D01*
X102245294Y-83818770D01*
X102172744Y-83883389D01*
X102080988Y-83915325D01*
X101983995Y-83909717D01*
X101896531Y-83867419D01*
X101870518Y-83844783D01*
X101076931Y-83051196D01*
X101056238Y-83072841D01*
X101056223Y-83072858D01*
X100781829Y-83416938D01*
X100781815Y-83416957D01*
X100539357Y-83784266D01*
X100330807Y-84171817D01*
X100330804Y-84171822D01*
X100157829Y-84576515D01*
X100157824Y-84576530D01*
X100021823Y-84995097D01*
X99923886Y-85424181D01*
X99923884Y-85424193D01*
X99864806Y-85860323D01*
X99845061Y-86299992D01*
X99845061Y-86300007D01*
X79934380Y-86300007D01*
X79924632Y-86251000D01*
X79929416Y-86202426D01*
X79929898Y-86200002D01*
X79929898Y-86199997D01*
X79929416Y-86197574D01*
X79929417Y-86100419D01*
X79966598Y-86010660D01*
X80035298Y-85941962D01*
X80125058Y-85904784D01*
X80173632Y-85900000D01*
X80674999Y-85900000D01*
X80675000Y-85899999D01*
X80675000Y-85899293D01*
X80674998Y-85899268D01*
X80659582Y-85747672D01*
X80659580Y-85747662D01*
X80598697Y-85553613D01*
X80598696Y-85553611D01*
X80499997Y-85375788D01*
X80367517Y-85221466D01*
X80206697Y-85096983D01*
X80206687Y-85096976D01*
X80024100Y-85007413D01*
X80024097Y-85007412D01*
X79975000Y-84994699D01*
X79975000Y-85702392D01*
X79956046Y-85797680D01*
X79902070Y-85878462D01*
X79821288Y-85932438D01*
X79726000Y-85951392D01*
X79701610Y-85950195D01*
X79699629Y-85950000D01*
X79699624Y-85950000D01*
X79650376Y-85950000D01*
X79650371Y-85950000D01*
X79648390Y-85950195D01*
X79646412Y-85950000D01*
X79638143Y-85950000D01*
X79638143Y-85949184D01*
X79551703Y-85940665D01*
X79466023Y-85894861D01*
X79404394Y-85819755D01*
X79376197Y-85726782D01*
X79375000Y-85702392D01*
X79375000Y-84994728D01*
X79232335Y-85047565D01*
X79086086Y-85138722D01*
X78995194Y-85173040D01*
X78898088Y-85169964D01*
X78853097Y-85154881D01*
X78704809Y-85088858D01*
X78704796Y-85088854D01*
X78519646Y-85049500D01*
X78330354Y-85049500D01*
X78145203Y-85088854D01*
X78145189Y-85088858D01*
X77972272Y-85165847D01*
X77946358Y-85184675D01*
X77858127Y-85225349D01*
X77761047Y-85229163D01*
X77669897Y-85195536D01*
X77653642Y-85184675D01*
X77644741Y-85178208D01*
X77627730Y-85165849D01*
X77627729Y-85165848D01*
X77627727Y-85165847D01*
X77454810Y-85088858D01*
X77454796Y-85088854D01*
X77269646Y-85049500D01*
X77080354Y-85049500D01*
X76895203Y-85088854D01*
X76895194Y-85088857D01*
X76720413Y-85166675D01*
X76625654Y-85188117D01*
X76529902Y-85171664D01*
X76490318Y-85152291D01*
X76414608Y-85106522D01*
X76252196Y-85055914D01*
X76252188Y-85055912D01*
X76181630Y-85049500D01*
X76181616Y-85049500D01*
X75668384Y-85049500D01*
X75668369Y-85049500D01*
X75597811Y-85055912D01*
X75597803Y-85055914D01*
X75435391Y-85106522D01*
X75289816Y-85194527D01*
X75169527Y-85314816D01*
X75081522Y-85460391D01*
X75030914Y-85622803D01*
X75030912Y-85622811D01*
X75024500Y-85693369D01*
X75024500Y-86706630D01*
X71106258Y-86706630D01*
X71124520Y-86300007D01*
X71124520Y-86299992D01*
X71104774Y-85860323D01*
X71045696Y-85424193D01*
X71045694Y-85424181D01*
X70947757Y-84995097D01*
X70811756Y-84576530D01*
X70811751Y-84576515D01*
X70638776Y-84171822D01*
X70638773Y-84171817D01*
X70430223Y-83784266D01*
X70187765Y-83416957D01*
X70187751Y-83416938D01*
X69913354Y-83072855D01*
X69892647Y-83051197D01*
X69102415Y-83841429D01*
X69021634Y-83895405D01*
X68926346Y-83914359D01*
X68831058Y-83895405D01*
X68758596Y-83849372D01*
X68683136Y-83780581D01*
X68625486Y-83702379D01*
X68602152Y-83608067D01*
X68616685Y-83512006D01*
X68666873Y-83428818D01*
X68674816Y-83420498D01*
X69465833Y-82629480D01*
X69277766Y-82465170D01*
X69277752Y-82465159D01*
X68921700Y-82206472D01*
X68543878Y-81980734D01*
X68147350Y-81789774D01*
X68147343Y-81789771D01*
X67735287Y-81635125D01*
X67311026Y-81518036D01*
X66877979Y-81439451D01*
X66439642Y-81400000D01*
X65999519Y-81400000D01*
X65561182Y-81439451D01*
X65128135Y-81518036D01*
X64703874Y-81635125D01*
X64291818Y-81789771D01*
X64291811Y-81789774D01*
X63895283Y-81980734D01*
X63517463Y-82206471D01*
X63161403Y-82465162D01*
X63161398Y-82465166D01*
X62973326Y-82629479D01*
X62973326Y-82629480D01*
X63760981Y-83417135D01*
X63814957Y-83497917D01*
X63833911Y-83593205D01*
X63814957Y-83688493D01*
X63760981Y-83769275D01*
X63750075Y-83777916D01*
X63750602Y-83778494D01*
X63733553Y-83794035D01*
X63714875Y-83818770D01*
X63642325Y-83883389D01*
X63550569Y-83915325D01*
X63453576Y-83909717D01*
X63366112Y-83867419D01*
X63340099Y-83844783D01*
X62546512Y-83051196D01*
X62525819Y-83072841D01*
X62525804Y-83072858D01*
X62251410Y-83416938D01*
X62251396Y-83416957D01*
X62008938Y-83784266D01*
X61800388Y-84171817D01*
X61800385Y-84171822D01*
X61627410Y-84576515D01*
X61627405Y-84576530D01*
X61491404Y-84995097D01*
X61393467Y-85424181D01*
X61393465Y-85424193D01*
X61334387Y-85860323D01*
X61314642Y-86299992D01*
X61314642Y-86300007D01*
X60502465Y-86300007D01*
X60500500Y-86250000D01*
X60500500Y-80400000D01*
X86394659Y-80400000D01*
X86413975Y-80596131D01*
X86471185Y-80784725D01*
X86471188Y-80784733D01*
X86564088Y-80958536D01*
X86605124Y-81008538D01*
X86689117Y-81110883D01*
X86757021Y-81166611D01*
X86818653Y-81241710D01*
X86846856Y-81334682D01*
X86837333Y-81431369D01*
X86818654Y-81476465D01*
X86771187Y-81565269D01*
X86771185Y-81565274D01*
X86713975Y-81753868D01*
X86694659Y-81950000D01*
X86713975Y-82146131D01*
X86771185Y-82334725D01*
X86771188Y-82334733D01*
X86864088Y-82508536D01*
X86864090Y-82508538D01*
X86989117Y-82660883D01*
X87080536Y-82735909D01*
X87141463Y-82785911D01*
X87315266Y-82878811D01*
X87315270Y-82878812D01*
X87315273Y-82878814D01*
X87503868Y-82936024D01*
X87700000Y-82955341D01*
X87896132Y-82936024D01*
X88084727Y-82878814D01*
X88258538Y-82785910D01*
X88397501Y-82671865D01*
X88483179Y-82626068D01*
X88579866Y-82616545D01*
X88672838Y-82644747D01*
X88713427Y-82671868D01*
X88791460Y-82735909D01*
X88965266Y-82828811D01*
X88965270Y-82828812D01*
X88965273Y-82828814D01*
X89153868Y-82886024D01*
X89350000Y-82905341D01*
X89546132Y-82886024D01*
X89734727Y-82828814D01*
X89908538Y-82735910D01*
X90060883Y-82610883D01*
X90185910Y-82458538D01*
X90252085Y-82334733D01*
X90278811Y-82284733D01*
X90278811Y-82284731D01*
X90278814Y-82284727D01*
X90336024Y-82096132D01*
X90355341Y-81900000D01*
X90336024Y-81703868D01*
X90278814Y-81515273D01*
X90278812Y-81515270D01*
X90278811Y-81515266D01*
X90215738Y-81397265D01*
X90187535Y-81304293D01*
X90197058Y-81207606D01*
X90242854Y-81121925D01*
X90335910Y-81008538D01*
X90428814Y-80834727D01*
X90486024Y-80646132D01*
X90505341Y-80450000D01*
X90486024Y-80253868D01*
X90428814Y-80065273D01*
X90428812Y-80065270D01*
X90428811Y-80065266D01*
X90335909Y-79891460D01*
X90262902Y-79802501D01*
X90217103Y-79716818D01*
X90207580Y-79620131D01*
X90235782Y-79527160D01*
X90262901Y-79486573D01*
X90285910Y-79458538D01*
X90290474Y-79450000D01*
X95644659Y-79450000D01*
X95663975Y-79646131D01*
X95721185Y-79834725D01*
X95721188Y-79834733D01*
X95814088Y-80008536D01*
X95819617Y-80015273D01*
X95939117Y-80160883D01*
X95991494Y-80203868D01*
X96091463Y-80285911D01*
X96265266Y-80378811D01*
X96265270Y-80378812D01*
X96265273Y-80378814D01*
X96453868Y-80436024D01*
X96453876Y-80436024D01*
X96458462Y-80436937D01*
X96462799Y-80438733D01*
X96465574Y-80439575D01*
X96465491Y-80439848D01*
X96548224Y-80474112D01*
X96616926Y-80542807D01*
X96648176Y-80608873D01*
X96671186Y-80684728D01*
X96671188Y-80684733D01*
X96764088Y-80858536D01*
X96764090Y-80858538D01*
X96889117Y-81010883D01*
X96946837Y-81058253D01*
X97041463Y-81135911D01*
X97215266Y-81228811D01*
X97215270Y-81228812D01*
X97215273Y-81228814D01*
X97403868Y-81286024D01*
X97600000Y-81305341D01*
X97796132Y-81286024D01*
X97984727Y-81228814D01*
X98024405Y-81207606D01*
X98158536Y-81135911D01*
X98158535Y-81135911D01*
X98158538Y-81135910D01*
X98310883Y-81010883D01*
X98435910Y-80858538D01*
X98528814Y-80684727D01*
X98586024Y-80496132D01*
X98605341Y-80300000D01*
X98586024Y-80103868D01*
X98528814Y-79915273D01*
X98528812Y-79915270D01*
X98528811Y-79915266D01*
X98435911Y-79741463D01*
X98339845Y-79624407D01*
X98310883Y-79589117D01*
X98158538Y-79464090D01*
X98158539Y-79464090D01*
X98158536Y-79464088D01*
X97984733Y-79371188D01*
X97984725Y-79371185D01*
X97796126Y-79313974D01*
X97791511Y-79313056D01*
X97787167Y-79311256D01*
X97784426Y-79310425D01*
X97784507Y-79310154D01*
X97701754Y-79275872D01*
X97633058Y-79207170D01*
X97601823Y-79141124D01*
X97578814Y-79065273D01*
X97578811Y-79065266D01*
X97485911Y-78891463D01*
X97450955Y-78848870D01*
X97360883Y-78739117D01*
X97208538Y-78614090D01*
X97208539Y-78614090D01*
X97208536Y-78614088D01*
X97034733Y-78521188D01*
X97034725Y-78521185D01*
X96846131Y-78463975D01*
X96650000Y-78444659D01*
X96453868Y-78463975D01*
X96265274Y-78521185D01*
X96265266Y-78521188D01*
X96091463Y-78614088D01*
X95939120Y-78739114D01*
X95939114Y-78739120D01*
X95814088Y-78891463D01*
X95721188Y-79065266D01*
X95721185Y-79065274D01*
X95663975Y-79253868D01*
X95644659Y-79450000D01*
X90290474Y-79450000D01*
X90378814Y-79284727D01*
X90436024Y-79096132D01*
X90455341Y-78900000D01*
X90436024Y-78703868D01*
X90378814Y-78515273D01*
X90378812Y-78515270D01*
X90378811Y-78515266D01*
X90285909Y-78341460D01*
X90271689Y-78324133D01*
X90225890Y-78238451D01*
X90216367Y-78141763D01*
X90244567Y-78048798D01*
X90278814Y-77984727D01*
X90336024Y-77796132D01*
X90355341Y-77600000D01*
X90336024Y-77403868D01*
X90278814Y-77215273D01*
X90278812Y-77215270D01*
X90278811Y-77215266D01*
X90185912Y-77041465D01*
X90185910Y-77041463D01*
X90185910Y-77041462D01*
X90183020Y-77037941D01*
X90180869Y-77033917D01*
X90179114Y-77031290D01*
X90179372Y-77031117D01*
X90137220Y-76952262D01*
X90127694Y-76855575D01*
X90155893Y-76762603D01*
X90217521Y-76687503D01*
X90310883Y-76610883D01*
X90435910Y-76458538D01*
X90528814Y-76284727D01*
X90586024Y-76096132D01*
X90605341Y-75900000D01*
X90586024Y-75703868D01*
X90528814Y-75515273D01*
X90528813Y-75515272D01*
X90528813Y-75515270D01*
X90464020Y-75394052D01*
X90438124Y-75345604D01*
X90409922Y-75252635D01*
X90419445Y-75155948D01*
X90438126Y-75110848D01*
X90462487Y-75065273D01*
X90478814Y-75034727D01*
X90536024Y-74846132D01*
X90555341Y-74650000D01*
X90536024Y-74453868D01*
X90478814Y-74265273D01*
X90478812Y-74265270D01*
X90478811Y-74265266D01*
X90385911Y-74091463D01*
X90260885Y-73939120D01*
X90260883Y-73939117D01*
X90193721Y-73883998D01*
X90108536Y-73814088D01*
X89934733Y-73721188D01*
X89934725Y-73721185D01*
X89746131Y-73663975D01*
X89550000Y-73644659D01*
X89353868Y-73663975D01*
X89165274Y-73721185D01*
X89165266Y-73721188D01*
X88991463Y-73814088D01*
X88839120Y-73939114D01*
X88839114Y-73939120D01*
X88714088Y-74091463D01*
X88621188Y-74265266D01*
X88621185Y-74265274D01*
X88563975Y-74453868D01*
X88544659Y-74650000D01*
X88563975Y-74846131D01*
X88621185Y-75034725D01*
X88621188Y-75034733D01*
X88711874Y-75204393D01*
X88740077Y-75297364D01*
X88730554Y-75394052D01*
X88711875Y-75439148D01*
X88671187Y-75515269D01*
X88671185Y-75515274D01*
X88613975Y-75703868D01*
X88594659Y-75900000D01*
X88613975Y-76096131D01*
X88671185Y-76284725D01*
X88671188Y-76284733D01*
X88764089Y-76458537D01*
X88766978Y-76462057D01*
X88769127Y-76466078D01*
X88770886Y-76468710D01*
X88770626Y-76468883D01*
X88812779Y-76547739D01*
X88822305Y-76644426D01*
X88794105Y-76737398D01*
X88732472Y-76812501D01*
X88732468Y-76812504D01*
X88639126Y-76889108D01*
X88639114Y-76889120D01*
X88514088Y-77041463D01*
X88421188Y-77215266D01*
X88421185Y-77215274D01*
X88363975Y-77403868D01*
X88344659Y-77600000D01*
X88344659Y-77600001D01*
X88358704Y-77742610D01*
X88349181Y-77839297D01*
X88303382Y-77924980D01*
X88228280Y-77986614D01*
X88135308Y-78014816D01*
X88038621Y-78005293D01*
X87970167Y-77968705D01*
X87968710Y-77970886D01*
X87958540Y-77964091D01*
X87784733Y-77871188D01*
X87784725Y-77871185D01*
X87596131Y-77813975D01*
X87400000Y-77794659D01*
X87203868Y-77813975D01*
X87015274Y-77871185D01*
X87015266Y-77871188D01*
X86841463Y-77964088D01*
X86689120Y-78089114D01*
X86689114Y-78089120D01*
X86564088Y-78241463D01*
X86471188Y-78415266D01*
X86471185Y-78415274D01*
X86413975Y-78603868D01*
X86394659Y-78800000D01*
X86413975Y-78996131D01*
X86471185Y-79184725D01*
X86471188Y-79184733D01*
X86564090Y-79358538D01*
X86632615Y-79442037D01*
X86678413Y-79527720D01*
X86687936Y-79624407D01*
X86659733Y-79717378D01*
X86632615Y-79757963D01*
X86564090Y-79841461D01*
X86471188Y-80015266D01*
X86471185Y-80015274D01*
X86413975Y-80203868D01*
X86394659Y-80400000D01*
X60500500Y-80400000D01*
X60500500Y-77200000D01*
X73894659Y-77200000D01*
X73913975Y-77396131D01*
X73971185Y-77584725D01*
X73971188Y-77584733D01*
X74064088Y-77758536D01*
X74064090Y-77758538D01*
X74189117Y-77910883D01*
X74279093Y-77984725D01*
X74341463Y-78035911D01*
X74515266Y-78128811D01*
X74515270Y-78128812D01*
X74515273Y-78128814D01*
X74703868Y-78186024D01*
X74900000Y-78205341D01*
X75096132Y-78186024D01*
X75284727Y-78128814D01*
X75359001Y-78089114D01*
X75458536Y-78035911D01*
X75458535Y-78035911D01*
X75458538Y-78035910D01*
X75610883Y-77910883D01*
X75735910Y-77758538D01*
X75820650Y-77600001D01*
X75828811Y-77584733D01*
X75828811Y-77584731D01*
X75828814Y-77584727D01*
X75886024Y-77396132D01*
X75905341Y-77200000D01*
X75886024Y-77003868D01*
X75828814Y-76815273D01*
X75828812Y-76815270D01*
X75828811Y-76815266D01*
X75735911Y-76641463D01*
X75658993Y-76547739D01*
X75610883Y-76489117D01*
X75476479Y-76378814D01*
X75458536Y-76364088D01*
X75284733Y-76271188D01*
X75284725Y-76271185D01*
X75096131Y-76213975D01*
X74900000Y-76194659D01*
X74703868Y-76213975D01*
X74515274Y-76271185D01*
X74515266Y-76271188D01*
X74341463Y-76364088D01*
X74189120Y-76489114D01*
X74189114Y-76489120D01*
X74064088Y-76641463D01*
X73971188Y-76815266D01*
X73971185Y-76815274D01*
X73913975Y-77003868D01*
X73894659Y-77200000D01*
X60500500Y-77200000D01*
X60500500Y-75450000D01*
X81194659Y-75450000D01*
X81213975Y-75646131D01*
X81271185Y-75834725D01*
X81271188Y-75834733D01*
X81364088Y-76008536D01*
X81364090Y-76008538D01*
X81489117Y-76160883D01*
X81553811Y-76213976D01*
X81641463Y-76285911D01*
X81815266Y-76378811D01*
X81815270Y-76378812D01*
X81815273Y-76378814D01*
X82003868Y-76436024D01*
X82200000Y-76455341D01*
X82396132Y-76436024D01*
X82584727Y-76378814D01*
X82612278Y-76364088D01*
X82758536Y-76285911D01*
X82758535Y-76285911D01*
X82758538Y-76285910D01*
X82910883Y-76160883D01*
X83035910Y-76008538D01*
X83128814Y-75834727D01*
X83139348Y-75800000D01*
X85194659Y-75800000D01*
X85213975Y-75996131D01*
X85271185Y-76184725D01*
X85271188Y-76184733D01*
X85364088Y-76358536D01*
X85380730Y-76378814D01*
X85489117Y-76510883D01*
X85534026Y-76547739D01*
X85641463Y-76635911D01*
X85815266Y-76728811D01*
X85815270Y-76728812D01*
X85815273Y-76728814D01*
X86003868Y-76786024D01*
X86200000Y-76805341D01*
X86396132Y-76786024D01*
X86584727Y-76728814D01*
X86758538Y-76635910D01*
X86910883Y-76510883D01*
X87035910Y-76358538D01*
X87128814Y-76184727D01*
X87186024Y-75996132D01*
X87205341Y-75800000D01*
X87186024Y-75603868D01*
X87128814Y-75415273D01*
X87089850Y-75342377D01*
X87061648Y-75249407D01*
X87071171Y-75152720D01*
X87089851Y-75107621D01*
X87112486Y-75065274D01*
X87128814Y-75034727D01*
X87186024Y-74846132D01*
X87205341Y-74650000D01*
X87186024Y-74453868D01*
X87128814Y-74265273D01*
X87128812Y-74265270D01*
X87128811Y-74265266D01*
X87035911Y-74091463D01*
X86910885Y-73939120D01*
X86910883Y-73939117D01*
X86843721Y-73883998D01*
X86758536Y-73814088D01*
X86584733Y-73721188D01*
X86584725Y-73721185D01*
X86396131Y-73663975D01*
X86200000Y-73644659D01*
X86003868Y-73663975D01*
X85815274Y-73721185D01*
X85815266Y-73721188D01*
X85641463Y-73814088D01*
X85489120Y-73939114D01*
X85489114Y-73939120D01*
X85364088Y-74091463D01*
X85271188Y-74265266D01*
X85271185Y-74265274D01*
X85213975Y-74453868D01*
X85194659Y-74650000D01*
X85213975Y-74846131D01*
X85271185Y-75034725D01*
X85271187Y-75034730D01*
X85310149Y-75107623D01*
X85338351Y-75200595D01*
X85328828Y-75297282D01*
X85310149Y-75342377D01*
X85271187Y-75415269D01*
X85271185Y-75415274D01*
X85213975Y-75603868D01*
X85194659Y-75800000D01*
X83139348Y-75800000D01*
X83186024Y-75646132D01*
X83205341Y-75450000D01*
X83186024Y-75253868D01*
X83128814Y-75065273D01*
X83128812Y-75065270D01*
X83128811Y-75065266D01*
X83035911Y-74891463D01*
X82910885Y-74739120D01*
X82910883Y-74739117D01*
X82758538Y-74614090D01*
X82758539Y-74614090D01*
X82758536Y-74614088D01*
X82584733Y-74521188D01*
X82584725Y-74521185D01*
X82396131Y-74463975D01*
X82200000Y-74444659D01*
X82003868Y-74463975D01*
X81815274Y-74521185D01*
X81815266Y-74521188D01*
X81641463Y-74614088D01*
X81489120Y-74739114D01*
X81489114Y-74739120D01*
X81364088Y-74891463D01*
X81271188Y-75065266D01*
X81271185Y-75065274D01*
X81213975Y-75253868D01*
X81194659Y-75450000D01*
X60500500Y-75450000D01*
X60500500Y-71600000D01*
X65494659Y-71600000D01*
X65513975Y-71796131D01*
X65571185Y-71984725D01*
X65571188Y-71984733D01*
X65664088Y-72158535D01*
X65664090Y-72158538D01*
X65740924Y-72252160D01*
X65757615Y-72272498D01*
X65803413Y-72358181D01*
X65812936Y-72454868D01*
X65784733Y-72547840D01*
X65757616Y-72588424D01*
X65714089Y-72641461D01*
X65621188Y-72815266D01*
X65621185Y-72815274D01*
X65563975Y-73003868D01*
X65544659Y-73200000D01*
X65563975Y-73396131D01*
X65621185Y-73584725D01*
X65621188Y-73584733D01*
X65714088Y-73758536D01*
X65783998Y-73843721D01*
X65839117Y-73910883D01*
X65873520Y-73939117D01*
X65991463Y-74035911D01*
X66165266Y-74128811D01*
X66165270Y-74128812D01*
X66165273Y-74128814D01*
X66353868Y-74186024D01*
X66550000Y-74205341D01*
X66746132Y-74186024D01*
X66934727Y-74128814D01*
X67108538Y-74035910D01*
X67260883Y-73910883D01*
X67385910Y-73758538D01*
X67409136Y-73715085D01*
X67478811Y-73584733D01*
X67478811Y-73584731D01*
X67478814Y-73584727D01*
X67536024Y-73396132D01*
X67552139Y-73232506D01*
X102842000Y-73232506D01*
X102852501Y-73335300D01*
X102907685Y-73501831D01*
X102907686Y-73501834D01*
X102999788Y-73651156D01*
X103123844Y-73775212D01*
X103273166Y-73867314D01*
X103273169Y-73867315D01*
X103273167Y-73867315D01*
X103404636Y-73910879D01*
X103439703Y-73922499D01*
X103542491Y-73933000D01*
X106742508Y-73932999D01*
X106845297Y-73922499D01*
X107011834Y-73867314D01*
X107161156Y-73775212D01*
X107285212Y-73651156D01*
X107377314Y-73501834D01*
X107432499Y-73335297D01*
X107443000Y-73232509D01*
X107442999Y-71832492D01*
X107432499Y-71729703D01*
X107377314Y-71563166D01*
X107285212Y-71413844D01*
X107161156Y-71289788D01*
X107011834Y-71197686D01*
X107011832Y-71197685D01*
X107011830Y-71197684D01*
X107011832Y-71197684D01*
X106845302Y-71142502D01*
X106845298Y-71142501D01*
X106845297Y-71142501D01*
X106742509Y-71132000D01*
X106742505Y-71132000D01*
X103542493Y-71132000D01*
X103439699Y-71142501D01*
X103273167Y-71197685D01*
X103123846Y-71289786D01*
X102999786Y-71413846D01*
X102907684Y-71563168D01*
X102852502Y-71729697D01*
X102852501Y-71729704D01*
X102842000Y-71832488D01*
X102842000Y-73232506D01*
X67552139Y-73232506D01*
X67555341Y-73200000D01*
X67536024Y-73003868D01*
X67478814Y-72815273D01*
X67478812Y-72815270D01*
X67478811Y-72815266D01*
X67385909Y-72641460D01*
X67292385Y-72527501D01*
X67246586Y-72441818D01*
X67237063Y-72345131D01*
X67265265Y-72252160D01*
X67292382Y-72211575D01*
X67335910Y-72158538D01*
X67428814Y-71984727D01*
X67486024Y-71796132D01*
X67505341Y-71600000D01*
X67486024Y-71403868D01*
X67428814Y-71215273D01*
X67428812Y-71215270D01*
X67428811Y-71215266D01*
X67335911Y-71041463D01*
X67210885Y-70889120D01*
X67210883Y-70889117D01*
X67058538Y-70764090D01*
X67058539Y-70764090D01*
X67058536Y-70764088D01*
X66884733Y-70671188D01*
X66884725Y-70671185D01*
X66696131Y-70613975D01*
X66500000Y-70594659D01*
X66303868Y-70613975D01*
X66115274Y-70671185D01*
X66115266Y-70671188D01*
X65941463Y-70764088D01*
X65789120Y-70889114D01*
X65789114Y-70889120D01*
X65664088Y-71041463D01*
X65571188Y-71215266D01*
X65571185Y-71215274D01*
X65513975Y-71403868D01*
X65494659Y-71600000D01*
X60500500Y-71600000D01*
X60500500Y-67950000D01*
X78294540Y-67950000D01*
X78314325Y-68138255D01*
X78334391Y-68200009D01*
X78372821Y-68318284D01*
X78438764Y-68432500D01*
X78467469Y-68482219D01*
X78491044Y-68508401D01*
X78594129Y-68622888D01*
X78708984Y-68706335D01*
X78747271Y-68734152D01*
X78920189Y-68811141D01*
X78920192Y-68811142D01*
X78920197Y-68811144D01*
X79105354Y-68850500D01*
X79294645Y-68850500D01*
X79294646Y-68850500D01*
X79479803Y-68811144D01*
X79613868Y-68751454D01*
X79652728Y-68734152D01*
X79652728Y-68734151D01*
X79652730Y-68734151D01*
X79655004Y-68732499D01*
X102771819Y-68732499D01*
X102771820Y-68732500D01*
X104292889Y-68732500D01*
X104388177Y-68751454D01*
X104468959Y-68805430D01*
X104522935Y-68886212D01*
X104541889Y-68981500D01*
X104539759Y-69013990D01*
X104537323Y-69032500D01*
X104539758Y-69051001D01*
X104533405Y-69147944D01*
X104490435Y-69235080D01*
X104417391Y-69299139D01*
X104325392Y-69330370D01*
X104292889Y-69332500D01*
X102771820Y-69332500D01*
X102783414Y-69401985D01*
X102783415Y-69401987D01*
X102864131Y-69637106D01*
X102864130Y-69637106D01*
X102982444Y-69855730D01*
X102982449Y-69855737D01*
X103135129Y-70051899D01*
X103135139Y-70051911D01*
X103318022Y-70220267D01*
X103318024Y-70220269D01*
X103526131Y-70356231D01*
X103753777Y-70456086D01*
X103753785Y-70456089D01*
X103994751Y-70517110D01*
X103994758Y-70517112D01*
X104180452Y-70532500D01*
X104842499Y-70532500D01*
X104842500Y-70532498D01*
X104842500Y-69881268D01*
X104861454Y-69785980D01*
X104915430Y-69705198D01*
X104996212Y-69651222D01*
X105091500Y-69632268D01*
X105098563Y-69632500D01*
X105189974Y-69632500D01*
X105189974Y-69634489D01*
X105273479Y-69645462D01*
X105357630Y-69694018D01*
X105416794Y-69771082D01*
X105441963Y-69864920D01*
X105442500Y-69881268D01*
X105442499Y-70532498D01*
X105442501Y-70532500D01*
X106104548Y-70532500D01*
X106290241Y-70517112D01*
X106290248Y-70517110D01*
X106531214Y-70456089D01*
X106531222Y-70456086D01*
X106758868Y-70356231D01*
X106758869Y-70356231D01*
X106966975Y-70220269D01*
X106966977Y-70220267D01*
X107149860Y-70051911D01*
X107149870Y-70051899D01*
X107302550Y-69855737D01*
X107302555Y-69855730D01*
X107420869Y-69637106D01*
X107501584Y-69401987D01*
X107501585Y-69401985D01*
X107513180Y-69332500D01*
X105992111Y-69332500D01*
X105896823Y-69313546D01*
X105816041Y-69259570D01*
X105762065Y-69178788D01*
X105743111Y-69083500D01*
X105745240Y-69051009D01*
X105747677Y-69032500D01*
X105745241Y-69013998D01*
X105751595Y-68917056D01*
X105794565Y-68829920D01*
X105867609Y-68765861D01*
X105959608Y-68734630D01*
X105992111Y-68732500D01*
X107513180Y-68732500D01*
X107513180Y-68732499D01*
X107501585Y-68663014D01*
X107501584Y-68663012D01*
X107420868Y-68427893D01*
X107420869Y-68427893D01*
X107302555Y-68209269D01*
X107302550Y-68209262D01*
X107149870Y-68013100D01*
X107149860Y-68013088D01*
X106966977Y-67844732D01*
X106966975Y-67844730D01*
X106758868Y-67708768D01*
X106531222Y-67608913D01*
X106531214Y-67608910D01*
X106290248Y-67547889D01*
X106290241Y-67547887D01*
X106104548Y-67532500D01*
X105442500Y-67532500D01*
X105442500Y-68183731D01*
X105423546Y-68279019D01*
X105369570Y-68359801D01*
X105288788Y-68413777D01*
X105193500Y-68432731D01*
X105186445Y-68432500D01*
X105181823Y-68432500D01*
X105103177Y-68432500D01*
X105095026Y-68432500D01*
X105095026Y-68430518D01*
X105011454Y-68419514D01*
X104927317Y-68370934D01*
X104868175Y-68293854D01*
X104843033Y-68200009D01*
X104842500Y-68183731D01*
X104842500Y-67532501D01*
X104842499Y-67532500D01*
X104180452Y-67532500D01*
X103994758Y-67547887D01*
X103994751Y-67547889D01*
X103753785Y-67608910D01*
X103753777Y-67608913D01*
X103526131Y-67708768D01*
X103526130Y-67708768D01*
X103318024Y-67844730D01*
X103318022Y-67844732D01*
X103135139Y-68013088D01*
X103135129Y-68013100D01*
X102982449Y-68209262D01*
X102982444Y-68209269D01*
X102864130Y-68427893D01*
X102783415Y-68663012D01*
X102783414Y-68663014D01*
X102771819Y-68732499D01*
X79655004Y-68732499D01*
X79805871Y-68622888D01*
X79932533Y-68482216D01*
X80027179Y-68318284D01*
X80085674Y-68138256D01*
X80105460Y-67950000D01*
X80085674Y-67761744D01*
X80027179Y-67581716D01*
X79932533Y-67417784D01*
X79932531Y-67417781D01*
X79932530Y-67417780D01*
X79805873Y-67277114D01*
X79805872Y-67277113D01*
X79805871Y-67277112D01*
X79729300Y-67221480D01*
X79652728Y-67165847D01*
X79479810Y-67088858D01*
X79479796Y-67088854D01*
X79294646Y-67049500D01*
X79105354Y-67049500D01*
X78920203Y-67088854D01*
X78920189Y-67088858D01*
X78747271Y-67165847D01*
X78594126Y-67277114D01*
X78467469Y-67417780D01*
X78372822Y-67581714D01*
X78314325Y-67761744D01*
X78294540Y-67950000D01*
X60500500Y-67950000D01*
X60500500Y-64680000D01*
X68144659Y-64680000D01*
X68163975Y-64876131D01*
X68221185Y-65064725D01*
X68221188Y-65064733D01*
X68314088Y-65238536D01*
X68314090Y-65238538D01*
X68439117Y-65390883D01*
X68548870Y-65480955D01*
X68591463Y-65515911D01*
X68765266Y-65608811D01*
X68765270Y-65608812D01*
X68765273Y-65608814D01*
X68953868Y-65666024D01*
X69150000Y-65685341D01*
X69346132Y-65666024D01*
X69534727Y-65608814D01*
X69708538Y-65515910D01*
X69860883Y-65390883D01*
X69985910Y-65238538D01*
X70078814Y-65064727D01*
X70136024Y-64876132D01*
X70155341Y-64680000D01*
X70136024Y-64483868D01*
X70078814Y-64295273D01*
X70078812Y-64295270D01*
X70078811Y-64295266D01*
X69985911Y-64121463D01*
X69860885Y-63969120D01*
X69860883Y-63969117D01*
X69837589Y-63950000D01*
X83194659Y-63950000D01*
X83213975Y-64146131D01*
X83271185Y-64334725D01*
X83271188Y-64334733D01*
X83364088Y-64508536D01*
X83364090Y-64508538D01*
X83489117Y-64660883D01*
X83512411Y-64680000D01*
X83641463Y-64785911D01*
X83815266Y-64878811D01*
X83815270Y-64878812D01*
X83815273Y-64878814D01*
X84003868Y-64936024D01*
X84200000Y-64955341D01*
X84396132Y-64936024D01*
X84584727Y-64878814D01*
X84758538Y-64785910D01*
X84910883Y-64660883D01*
X85035910Y-64508538D01*
X85128814Y-64334727D01*
X85186024Y-64146132D01*
X85205341Y-63950000D01*
X85186024Y-63753868D01*
X85128814Y-63565273D01*
X85128812Y-63565270D01*
X85128811Y-63565266D01*
X85035911Y-63391463D01*
X84946256Y-63282219D01*
X84910883Y-63239117D01*
X84763650Y-63118285D01*
X84758536Y-63114088D01*
X84584733Y-63021188D01*
X84584725Y-63021185D01*
X84396131Y-62963975D01*
X84200000Y-62944659D01*
X84003868Y-62963975D01*
X83815274Y-63021185D01*
X83815266Y-63021188D01*
X83641463Y-63114088D01*
X83489120Y-63239114D01*
X83489114Y-63239120D01*
X83364088Y-63391463D01*
X83271188Y-63565266D01*
X83271185Y-63565274D01*
X83213975Y-63753868D01*
X83194659Y-63950000D01*
X69837589Y-63950000D01*
X69708538Y-63844090D01*
X69708539Y-63844090D01*
X69708536Y-63844088D01*
X69534733Y-63751188D01*
X69534725Y-63751185D01*
X69346131Y-63693975D01*
X69150000Y-63674659D01*
X68953868Y-63693975D01*
X68765274Y-63751185D01*
X68765266Y-63751188D01*
X68591463Y-63844088D01*
X68439120Y-63969114D01*
X68439114Y-63969120D01*
X68314088Y-64121463D01*
X68221188Y-64295266D01*
X68221185Y-64295274D01*
X68163975Y-64483868D01*
X68144659Y-64680000D01*
X60500500Y-64680000D01*
X60500500Y-62749999D01*
X87644540Y-62749999D01*
X87664325Y-62938255D01*
X87672683Y-62963976D01*
X87722821Y-63118284D01*
X87722822Y-63118285D01*
X87817469Y-63282219D01*
X87944126Y-63422885D01*
X87944129Y-63422888D01*
X88058984Y-63506335D01*
X88097271Y-63534152D01*
X88270189Y-63611141D01*
X88270192Y-63611142D01*
X88270197Y-63611144D01*
X88455354Y-63650500D01*
X88644645Y-63650500D01*
X88644646Y-63650500D01*
X88829803Y-63611144D01*
X88932828Y-63565274D01*
X89002728Y-63534152D01*
X89002728Y-63534151D01*
X89002730Y-63534151D01*
X89155871Y-63422888D01*
X89282533Y-63282216D01*
X89377179Y-63118284D01*
X89435674Y-62938256D01*
X89455460Y-62750000D01*
X89435674Y-62561744D01*
X89377179Y-62381716D01*
X89282533Y-62217784D01*
X89282531Y-62217781D01*
X89282530Y-62217780D01*
X89155873Y-62077114D01*
X89155872Y-62077113D01*
X89155871Y-62077112D01*
X89079300Y-62021480D01*
X89002728Y-61965847D01*
X88829810Y-61888858D01*
X88829796Y-61888854D01*
X88644646Y-61849500D01*
X88455354Y-61849500D01*
X88270203Y-61888854D01*
X88270189Y-61888858D01*
X88097271Y-61965847D01*
X87944126Y-62077114D01*
X87817469Y-62217780D01*
X87722822Y-62381714D01*
X87664325Y-62561744D01*
X87644540Y-62749999D01*
X60500500Y-62749999D01*
X60500500Y-60450000D01*
X70794659Y-60450000D01*
X70813975Y-60646131D01*
X70871185Y-60834725D01*
X70871188Y-60834733D01*
X70964088Y-61008536D01*
X70996796Y-61048390D01*
X71089117Y-61160883D01*
X71184880Y-61239474D01*
X71241463Y-61285911D01*
X71415266Y-61378811D01*
X71415270Y-61378812D01*
X71415273Y-61378814D01*
X71603868Y-61436024D01*
X71800000Y-61455341D01*
X71996132Y-61436024D01*
X72184727Y-61378814D01*
X72358538Y-61285910D01*
X72510883Y-61160883D01*
X72610378Y-61039647D01*
X72685478Y-60978015D01*
X72778449Y-60949812D01*
X72875136Y-60959335D01*
X72920234Y-60978015D01*
X73015266Y-61028811D01*
X73015270Y-61028812D01*
X73015273Y-61028814D01*
X73203868Y-61086024D01*
X73400000Y-61105341D01*
X73596132Y-61086024D01*
X73720207Y-61048386D01*
X106890823Y-61048386D01*
X106903043Y-61128152D01*
X106920097Y-61239474D01*
X106920097Y-61239476D01*
X106920098Y-61239477D01*
X106920098Y-61239479D01*
X106954294Y-61331809D01*
X106987236Y-61420753D01*
X107089491Y-61584807D01*
X107222677Y-61724919D01*
X107381342Y-61835353D01*
X107558988Y-61911587D01*
X107748344Y-61950500D01*
X108593199Y-61950500D01*
X108593206Y-61950500D01*
X108737321Y-61935845D01*
X108737323Y-61935844D01*
X108737325Y-61935844D01*
X108814636Y-61911587D01*
X108921768Y-61877974D01*
X109090791Y-61784159D01*
X109090790Y-61784159D01*
X109090793Y-61784158D01*
X109172159Y-61714305D01*
X109237468Y-61658240D01*
X109355796Y-61505373D01*
X109440930Y-61331816D01*
X109489385Y-61144674D01*
X109499176Y-60951610D01*
X109469903Y-60760526D01*
X109402764Y-60579247D01*
X109300509Y-60415193D01*
X109167323Y-60275081D01*
X109008658Y-60164647D01*
X108831012Y-60088413D01*
X108831010Y-60088412D01*
X108831009Y-60088412D01*
X108641656Y-60049500D01*
X107796794Y-60049500D01*
X107796789Y-60049500D01*
X107796775Y-60049501D01*
X107652683Y-60064154D01*
X107652674Y-60064155D01*
X107468230Y-60122026D01*
X107468228Y-60122027D01*
X107299206Y-60215841D01*
X107152534Y-60341757D01*
X107034205Y-60494624D01*
X106949068Y-60668189D01*
X106949068Y-60668190D01*
X106900615Y-60855326D01*
X106900614Y-60855333D01*
X106890823Y-61048386D01*
X73720207Y-61048386D01*
X73784727Y-61028814D01*
X73822665Y-61008536D01*
X73958536Y-60935911D01*
X73958535Y-60935911D01*
X73958538Y-60935910D01*
X74110883Y-60810883D01*
X74235910Y-60658538D01*
X74278293Y-60579245D01*
X74328811Y-60484733D01*
X74328811Y-60484731D01*
X74328814Y-60484727D01*
X74386024Y-60296132D01*
X74405341Y-60100000D01*
X74386024Y-59903868D01*
X74328814Y-59715273D01*
X74328812Y-59715270D01*
X74328811Y-59715266D01*
X74235911Y-59541463D01*
X74200955Y-59498870D01*
X74110883Y-59389117D01*
X73958538Y-59264090D01*
X73958539Y-59264090D01*
X73958536Y-59264088D01*
X73784733Y-59171188D01*
X73784725Y-59171185D01*
X73596131Y-59113975D01*
X73400000Y-59094659D01*
X73203868Y-59113975D01*
X73015274Y-59171185D01*
X73015266Y-59171188D01*
X72841463Y-59264088D01*
X72689120Y-59389114D01*
X72689114Y-59389120D01*
X72589622Y-59510351D01*
X72514519Y-59571985D01*
X72421548Y-59600187D01*
X72324861Y-59590664D01*
X72279765Y-59571985D01*
X72222662Y-59541463D01*
X72184727Y-59521186D01*
X72184726Y-59521185D01*
X72184725Y-59521185D01*
X71996131Y-59463975D01*
X71800000Y-59444659D01*
X71603868Y-59463975D01*
X71415274Y-59521185D01*
X71415266Y-59521188D01*
X71241463Y-59614088D01*
X71089120Y-59739114D01*
X71089114Y-59739120D01*
X70964088Y-59891463D01*
X70871188Y-60065266D01*
X70871185Y-60065274D01*
X70813975Y-60253868D01*
X70794659Y-60450000D01*
X60500500Y-60450000D01*
X60500500Y-57500000D01*
X73894659Y-57500000D01*
X73913975Y-57696131D01*
X73971185Y-57884725D01*
X73971188Y-57884733D01*
X74064088Y-58058536D01*
X74064090Y-58058538D01*
X74189117Y-58210883D01*
X74280537Y-58285910D01*
X74341463Y-58335911D01*
X74515266Y-58428811D01*
X74515270Y-58428812D01*
X74515273Y-58428814D01*
X74703868Y-58486024D01*
X74900000Y-58505341D01*
X75096132Y-58486024D01*
X75284727Y-58428814D01*
X75458538Y-58335910D01*
X75610883Y-58210883D01*
X75735910Y-58058538D01*
X75828814Y-57884727D01*
X75886024Y-57696132D01*
X75905341Y-57500000D01*
X75900417Y-57450000D01*
X78444659Y-57450000D01*
X78463975Y-57646131D01*
X78521185Y-57834725D01*
X78521188Y-57834733D01*
X78614088Y-58008536D01*
X78655124Y-58058538D01*
X78739117Y-58160883D01*
X78848870Y-58250955D01*
X78891463Y-58285911D01*
X79065266Y-58378811D01*
X79065270Y-58378812D01*
X79065273Y-58378814D01*
X79253868Y-58436024D01*
X79450000Y-58455341D01*
X79646132Y-58436024D01*
X79834727Y-58378814D01*
X80008538Y-58285910D01*
X80160883Y-58160883D01*
X80285910Y-58008538D01*
X80352085Y-57884733D01*
X80378811Y-57834733D01*
X80378811Y-57834731D01*
X80378814Y-57834727D01*
X80436024Y-57646132D01*
X80455341Y-57450000D01*
X80436024Y-57253868D01*
X80378814Y-57065273D01*
X80378812Y-57065270D01*
X80378811Y-57065266D01*
X80285911Y-56891463D01*
X80250955Y-56848870D01*
X80160883Y-56739117D01*
X80069463Y-56664090D01*
X80008536Y-56614088D01*
X79834733Y-56521188D01*
X79834725Y-56521185D01*
X79646131Y-56463975D01*
X79450000Y-56444659D01*
X79253868Y-56463975D01*
X79065274Y-56521185D01*
X79065266Y-56521188D01*
X78891463Y-56614088D01*
X78739120Y-56739114D01*
X78739114Y-56739120D01*
X78614088Y-56891463D01*
X78521188Y-57065266D01*
X78521185Y-57065274D01*
X78463975Y-57253868D01*
X78444659Y-57450000D01*
X75900417Y-57450000D01*
X75886024Y-57303868D01*
X75828814Y-57115273D01*
X75828812Y-57115270D01*
X75828811Y-57115266D01*
X75735911Y-56941463D01*
X75610885Y-56789120D01*
X75610883Y-56789117D01*
X75458538Y-56664090D01*
X75458539Y-56664090D01*
X75458536Y-56664088D01*
X75284733Y-56571188D01*
X75284725Y-56571185D01*
X75096131Y-56513975D01*
X74900000Y-56494659D01*
X74703868Y-56513975D01*
X74515274Y-56571185D01*
X74515266Y-56571188D01*
X74341463Y-56664088D01*
X74189120Y-56789114D01*
X74189114Y-56789120D01*
X74064088Y-56941463D01*
X73971188Y-57115266D01*
X73971185Y-57115274D01*
X73913975Y-57303868D01*
X73894659Y-57500000D01*
X60500500Y-57500000D01*
X60500500Y-55050000D01*
X64644659Y-55050000D01*
X64663975Y-55246131D01*
X64721185Y-55434725D01*
X64721188Y-55434733D01*
X64814088Y-55608536D01*
X64814090Y-55608538D01*
X64939117Y-55760883D01*
X65048870Y-55850955D01*
X65091463Y-55885911D01*
X65265266Y-55978811D01*
X65265270Y-55978812D01*
X65265273Y-55978814D01*
X65453868Y-56036024D01*
X65650000Y-56055341D01*
X65846132Y-56036024D01*
X66034727Y-55978814D01*
X66208538Y-55885910D01*
X66360883Y-55760883D01*
X66485910Y-55608538D01*
X66578814Y-55434727D01*
X66636024Y-55246132D01*
X66655341Y-55050000D01*
X66636024Y-54853868D01*
X66578814Y-54665273D01*
X66578812Y-54665270D01*
X66578811Y-54665266D01*
X66485911Y-54491463D01*
X66450558Y-54448386D01*
X106890823Y-54448386D01*
X106903043Y-54528152D01*
X106920097Y-54639474D01*
X106920097Y-54639476D01*
X106920098Y-54639477D01*
X106920098Y-54639479D01*
X106929652Y-54665274D01*
X106987236Y-54820753D01*
X107089491Y-54984807D01*
X107222677Y-55124919D01*
X107381342Y-55235353D01*
X107558988Y-55311587D01*
X107748344Y-55350500D01*
X108593199Y-55350500D01*
X108593206Y-55350500D01*
X108737321Y-55335845D01*
X108737323Y-55335844D01*
X108737325Y-55335844D01*
X108814636Y-55311587D01*
X108921768Y-55277974D01*
X109090791Y-55184159D01*
X109090790Y-55184159D01*
X109090793Y-55184158D01*
X109172159Y-55114305D01*
X109237468Y-55058240D01*
X109355796Y-54905373D01*
X109440930Y-54731816D01*
X109489385Y-54544674D01*
X109499176Y-54351610D01*
X109469903Y-54160526D01*
X109402764Y-53979247D01*
X109300509Y-53815193D01*
X109167323Y-53675081D01*
X109008658Y-53564647D01*
X108831012Y-53488413D01*
X108831010Y-53488412D01*
X108831009Y-53488412D01*
X108641656Y-53449500D01*
X107796794Y-53449500D01*
X107796789Y-53449500D01*
X107796775Y-53449501D01*
X107652683Y-53464154D01*
X107652674Y-53464155D01*
X107468230Y-53522026D01*
X107468228Y-53522027D01*
X107299206Y-53615841D01*
X107152534Y-53741757D01*
X107034205Y-53894624D01*
X107034204Y-53894627D01*
X106951135Y-54063976D01*
X106949068Y-54068189D01*
X106949068Y-54068190D01*
X106900615Y-54255326D01*
X106900614Y-54255333D01*
X106890823Y-54448386D01*
X66450558Y-54448386D01*
X66360883Y-54339117D01*
X66293721Y-54283998D01*
X66208536Y-54214088D01*
X66034733Y-54121188D01*
X66034725Y-54121185D01*
X65846131Y-54063975D01*
X65650000Y-54044659D01*
X65453868Y-54063975D01*
X65265274Y-54121185D01*
X65265266Y-54121188D01*
X65091463Y-54214088D01*
X64939120Y-54339114D01*
X64939114Y-54339120D01*
X64814088Y-54491463D01*
X64721188Y-54665266D01*
X64721185Y-54665274D01*
X64663975Y-54853868D01*
X64644659Y-55050000D01*
X60500500Y-55050000D01*
X60500500Y-52100000D01*
X84994540Y-52100000D01*
X85014325Y-52288255D01*
X85043573Y-52378270D01*
X85072821Y-52468284D01*
X85162706Y-52623970D01*
X85167469Y-52632219D01*
X85294126Y-52772885D01*
X85294129Y-52772888D01*
X85408984Y-52856335D01*
X85447271Y-52884152D01*
X85620189Y-52961141D01*
X85620192Y-52961142D01*
X85620197Y-52961144D01*
X85805354Y-53000500D01*
X85994645Y-53000500D01*
X85994646Y-53000500D01*
X86179803Y-52961144D01*
X86352730Y-52884151D01*
X86505871Y-52772888D01*
X86632533Y-52632216D01*
X86632534Y-52632213D01*
X86639957Y-52623970D01*
X86717803Y-52565840D01*
X86811969Y-52541925D01*
X86908118Y-52555866D01*
X86991614Y-52605541D01*
X87010043Y-52623970D01*
X87017465Y-52632213D01*
X87017467Y-52632216D01*
X87144129Y-52772888D01*
X87264385Y-52860259D01*
X87297271Y-52884152D01*
X87470189Y-52961141D01*
X87470192Y-52961142D01*
X87470197Y-52961144D01*
X87655354Y-53000500D01*
X87844645Y-53000500D01*
X87844646Y-53000500D01*
X88029803Y-52961144D01*
X88202730Y-52884151D01*
X88355871Y-52772888D01*
X88482533Y-52632216D01*
X88577179Y-52468284D01*
X88635674Y-52288256D01*
X88655460Y-52100000D01*
X88635674Y-51911744D01*
X88577179Y-51731716D01*
X88482533Y-51567784D01*
X88482531Y-51567781D01*
X88482530Y-51567780D01*
X88355873Y-51427114D01*
X88355872Y-51427113D01*
X88355871Y-51427112D01*
X88279300Y-51371480D01*
X88202728Y-51315847D01*
X88029810Y-51238858D01*
X88029796Y-51238854D01*
X87844646Y-51199500D01*
X87655354Y-51199500D01*
X87470203Y-51238854D01*
X87470189Y-51238858D01*
X87297271Y-51315847D01*
X87144126Y-51427114D01*
X87010042Y-51576029D01*
X86932196Y-51634159D01*
X86838031Y-51658074D01*
X86741881Y-51644132D01*
X86658386Y-51594457D01*
X86639958Y-51576029D01*
X86505873Y-51427114D01*
X86505872Y-51427113D01*
X86505871Y-51427112D01*
X86429300Y-51371480D01*
X86352728Y-51315847D01*
X86179810Y-51238858D01*
X86179796Y-51238854D01*
X85994646Y-51199500D01*
X85805354Y-51199500D01*
X85620203Y-51238854D01*
X85620189Y-51238858D01*
X85447271Y-51315847D01*
X85294126Y-51427114D01*
X85167469Y-51567780D01*
X85072822Y-51731714D01*
X85014325Y-51911744D01*
X84994540Y-52100000D01*
X60500500Y-52100000D01*
X60500500Y-46300007D01*
X61314642Y-46300007D01*
X61334387Y-46739676D01*
X61393465Y-47175806D01*
X61393467Y-47175818D01*
X61491404Y-47604902D01*
X61627405Y-48023469D01*
X61627410Y-48023484D01*
X61800385Y-48428177D01*
X61800388Y-48428182D01*
X62008938Y-48815733D01*
X62251396Y-49183042D01*
X62251410Y-49183061D01*
X62525807Y-49527144D01*
X62546513Y-49548801D01*
X63336744Y-48758570D01*
X63417526Y-48704593D01*
X63512814Y-48685639D01*
X63608102Y-48704593D01*
X63680564Y-48750626D01*
X63756024Y-48819417D01*
X63813674Y-48897619D01*
X63837008Y-48991931D01*
X63822475Y-49087992D01*
X63772287Y-49171180D01*
X63764344Y-49179499D01*
X62973325Y-49970518D01*
X63161395Y-50134829D01*
X63161409Y-50134840D01*
X63517461Y-50393527D01*
X63895283Y-50619265D01*
X64291811Y-50810225D01*
X64291818Y-50810228D01*
X64703874Y-50964874D01*
X65128135Y-51081963D01*
X65561182Y-51160548D01*
X65999519Y-51199999D01*
X65999523Y-51200000D01*
X66439639Y-51200000D01*
X66439642Y-51199999D01*
X66877979Y-51160548D01*
X67311026Y-51081963D01*
X67735287Y-50964874D01*
X68147343Y-50810228D01*
X68147350Y-50810225D01*
X68543878Y-50619265D01*
X68921700Y-50393527D01*
X69277759Y-50134836D01*
X69465835Y-49970518D01*
X68678180Y-49182863D01*
X68624204Y-49102082D01*
X68605250Y-49006794D01*
X68624204Y-48911506D01*
X68678181Y-48830724D01*
X68689088Y-48822085D01*
X68688560Y-48821506D01*
X68705607Y-48805965D01*
X68705608Y-48805962D01*
X68705610Y-48805962D01*
X68724284Y-48781232D01*
X68796830Y-48716614D01*
X68888585Y-48684675D01*
X68985578Y-48690280D01*
X69073043Y-48732576D01*
X69099061Y-48755216D01*
X69892648Y-49548802D01*
X69913348Y-49527151D01*
X69913350Y-49527149D01*
X70187751Y-49183061D01*
X70187765Y-49183042D01*
X70430223Y-48815733D01*
X70638773Y-48428182D01*
X70638776Y-48428177D01*
X70811751Y-48023484D01*
X70811756Y-48023469D01*
X70947757Y-47604902D01*
X71045694Y-47175818D01*
X71045696Y-47175806D01*
X71103280Y-46750706D01*
X74925000Y-46750706D01*
X74925001Y-46750731D01*
X74940417Y-46902327D01*
X74940419Y-46902337D01*
X75001302Y-47096386D01*
X75001303Y-47096388D01*
X75100002Y-47274211D01*
X75232482Y-47428533D01*
X75393302Y-47553016D01*
X75393304Y-47553018D01*
X75575908Y-47642589D01*
X75624999Y-47655299D01*
X75625000Y-47655298D01*
X75625000Y-46947607D01*
X75643954Y-46852319D01*
X75697930Y-46771537D01*
X75778712Y-46717561D01*
X75874000Y-46698607D01*
X75898407Y-46699806D01*
X75900375Y-46699999D01*
X75900376Y-46700000D01*
X75900377Y-46700000D01*
X75949623Y-46700000D01*
X75949624Y-46700000D01*
X75949624Y-46699999D01*
X75951593Y-46699806D01*
X75953563Y-46700000D01*
X75961857Y-46700000D01*
X75961857Y-46700816D01*
X76048280Y-46709329D01*
X76133963Y-46755127D01*
X76195598Y-46830229D01*
X76223801Y-46923200D01*
X76225000Y-46947607D01*
X76225000Y-47655270D01*
X76367665Y-47602434D01*
X76513911Y-47511278D01*
X76604803Y-47476959D01*
X76701909Y-47480035D01*
X76746898Y-47495116D01*
X76895197Y-47561144D01*
X77080354Y-47600500D01*
X77269645Y-47600500D01*
X77269646Y-47600500D01*
X77454803Y-47561144D01*
X77627730Y-47484151D01*
X77653639Y-47465326D01*
X77741869Y-47424651D01*
X77838949Y-47420835D01*
X77930099Y-47454461D01*
X77946361Y-47465327D01*
X77972270Y-47484151D01*
X78145189Y-47561141D01*
X78145192Y-47561142D01*
X78145197Y-47561144D01*
X78330354Y-47600500D01*
X78519645Y-47600500D01*
X78519646Y-47600500D01*
X78704803Y-47561144D01*
X78847279Y-47497709D01*
X78879586Y-47483325D01*
X78974345Y-47461882D01*
X79070097Y-47478335D01*
X79109683Y-47497709D01*
X79185390Y-47543476D01*
X79185391Y-47543476D01*
X79185394Y-47543478D01*
X79347804Y-47594086D01*
X79347808Y-47594086D01*
X79347811Y-47594087D01*
X79418369Y-47600499D01*
X79418377Y-47600499D01*
X79418384Y-47600500D01*
X79418390Y-47600500D01*
X79931610Y-47600500D01*
X79931616Y-47600500D01*
X79931623Y-47600499D01*
X79931630Y-47600499D01*
X80002188Y-47594087D01*
X80002189Y-47594086D01*
X80002196Y-47594086D01*
X80164606Y-47543478D01*
X80164610Y-47543476D01*
X80217871Y-47511278D01*
X80310185Y-47455472D01*
X80430472Y-47335185D01*
X80518478Y-47189606D01*
X80569086Y-47027196D01*
X80575500Y-46956616D01*
X80575500Y-46400007D01*
X99495061Y-46400007D01*
X99514806Y-46839676D01*
X99573884Y-47275806D01*
X99573886Y-47275818D01*
X99671823Y-47704902D01*
X99807824Y-48123469D01*
X99807829Y-48123484D01*
X99980804Y-48528177D01*
X99980807Y-48528182D01*
X100189357Y-48915733D01*
X100431815Y-49283042D01*
X100431829Y-49283061D01*
X100706226Y-49627144D01*
X100726932Y-49648801D01*
X101517163Y-48858570D01*
X101597945Y-48804593D01*
X101693233Y-48785639D01*
X101788521Y-48804593D01*
X101860983Y-48850626D01*
X101936443Y-48919417D01*
X101994093Y-48997619D01*
X102017427Y-49091931D01*
X102002894Y-49187992D01*
X101952706Y-49271180D01*
X101944763Y-49279499D01*
X101153744Y-50070518D01*
X101341814Y-50234829D01*
X101341828Y-50234840D01*
X101697880Y-50493527D01*
X102075702Y-50719265D01*
X102472230Y-50910225D01*
X102472237Y-50910228D01*
X102884293Y-51064874D01*
X103308554Y-51181963D01*
X103741601Y-51260548D01*
X104179938Y-51299999D01*
X104179942Y-51300000D01*
X104620058Y-51300000D01*
X104620061Y-51299999D01*
X105058398Y-51260548D01*
X105491445Y-51181963D01*
X105915706Y-51064874D01*
X106327762Y-50910228D01*
X106327769Y-50910225D01*
X106724297Y-50719265D01*
X107102119Y-50493527D01*
X107458178Y-50234836D01*
X107646254Y-50070518D01*
X106858599Y-49282863D01*
X106804623Y-49202082D01*
X106785669Y-49106794D01*
X106804623Y-49011506D01*
X106858600Y-48930724D01*
X106869507Y-48922085D01*
X106868979Y-48921506D01*
X106886026Y-48905965D01*
X106886027Y-48905962D01*
X106886029Y-48905962D01*
X106904703Y-48881232D01*
X106977249Y-48816614D01*
X107069004Y-48784675D01*
X107165997Y-48790280D01*
X107253462Y-48832576D01*
X107279480Y-48855216D01*
X108073067Y-49648802D01*
X108093767Y-49627151D01*
X108093769Y-49627149D01*
X108368170Y-49283061D01*
X108368184Y-49283042D01*
X108610642Y-48915733D01*
X108819192Y-48528182D01*
X108819195Y-48528177D01*
X108992170Y-48123484D01*
X108992175Y-48123469D01*
X109128176Y-47704902D01*
X109226113Y-47275818D01*
X109226115Y-47275806D01*
X109285193Y-46839676D01*
X109304938Y-46400007D01*
X109304938Y-46399992D01*
X109285193Y-45960323D01*
X109226115Y-45524193D01*
X109226113Y-45524181D01*
X109128176Y-45095097D01*
X108992175Y-44676530D01*
X108992170Y-44676515D01*
X108819195Y-44271822D01*
X108819192Y-44271817D01*
X108610642Y-43884266D01*
X108368184Y-43516957D01*
X108368170Y-43516938D01*
X108093773Y-43172855D01*
X108073066Y-43151197D01*
X107282834Y-43941429D01*
X107202053Y-43995405D01*
X107106765Y-44014359D01*
X107011477Y-43995405D01*
X106939015Y-43949372D01*
X106863555Y-43880581D01*
X106805905Y-43802379D01*
X106782571Y-43708067D01*
X106797104Y-43612006D01*
X106847292Y-43528818D01*
X106855235Y-43520498D01*
X107646252Y-42729480D01*
X107458185Y-42565170D01*
X107458171Y-42565159D01*
X107102119Y-42306472D01*
X106724297Y-42080734D01*
X106327769Y-41889774D01*
X106327762Y-41889771D01*
X105915706Y-41735125D01*
X105491445Y-41618036D01*
X105058398Y-41539451D01*
X104620061Y-41500000D01*
X104179938Y-41500000D01*
X103741601Y-41539451D01*
X103308554Y-41618036D01*
X102884293Y-41735125D01*
X102472237Y-41889771D01*
X102472230Y-41889774D01*
X102075702Y-42080734D01*
X101697882Y-42306471D01*
X101341822Y-42565162D01*
X101341817Y-42565166D01*
X101153745Y-42729479D01*
X101153745Y-42729480D01*
X101941400Y-43517135D01*
X101995376Y-43597917D01*
X102014330Y-43693205D01*
X101995376Y-43788493D01*
X101941400Y-43869275D01*
X101930494Y-43877916D01*
X101931021Y-43878494D01*
X101913972Y-43894035D01*
X101895294Y-43918770D01*
X101822744Y-43983389D01*
X101730988Y-44015325D01*
X101633995Y-44009717D01*
X101546531Y-43967419D01*
X101520518Y-43944783D01*
X100726931Y-43151196D01*
X100706238Y-43172841D01*
X100706223Y-43172858D01*
X100431829Y-43516938D01*
X100431815Y-43516957D01*
X100189357Y-43884266D01*
X99980807Y-44271817D01*
X99980804Y-44271822D01*
X99807829Y-44676515D01*
X99807824Y-44676530D01*
X99671823Y-45095097D01*
X99573886Y-45524181D01*
X99573884Y-45524193D01*
X99514806Y-45960323D01*
X99495061Y-46399992D01*
X99495061Y-46400007D01*
X80575500Y-46400007D01*
X80575500Y-45943384D01*
X80572043Y-45905340D01*
X80569087Y-45872811D01*
X80569086Y-45872808D01*
X80569086Y-45872804D01*
X80518478Y-45710394D01*
X80518477Y-45710393D01*
X80518477Y-45710391D01*
X80458319Y-45610879D01*
X80430472Y-45564815D01*
X80310185Y-45444528D01*
X80264111Y-45416675D01*
X80164608Y-45356522D01*
X80002196Y-45305914D01*
X80002188Y-45305912D01*
X79931630Y-45299500D01*
X79931616Y-45299500D01*
X79418384Y-45299500D01*
X79418369Y-45299500D01*
X79347811Y-45305912D01*
X79347803Y-45305914D01*
X79185390Y-45356523D01*
X79109679Y-45402292D01*
X79018328Y-45435367D01*
X78921273Y-45430966D01*
X78879585Y-45416675D01*
X78877730Y-45415849D01*
X78704803Y-45338856D01*
X78704798Y-45338855D01*
X78704796Y-45338854D01*
X78519646Y-45299500D01*
X78330354Y-45299500D01*
X78145203Y-45338854D01*
X78145189Y-45338858D01*
X77972272Y-45415847D01*
X77946358Y-45434675D01*
X77858127Y-45475349D01*
X77761047Y-45479163D01*
X77669897Y-45445536D01*
X77653642Y-45434675D01*
X77642617Y-45426665D01*
X77627730Y-45415849D01*
X77627729Y-45415848D01*
X77627727Y-45415847D01*
X77454810Y-45338858D01*
X77454796Y-45338854D01*
X77269646Y-45299500D01*
X77080354Y-45299500D01*
X76895203Y-45338854D01*
X76895199Y-45338855D01*
X76895197Y-45338856D01*
X76759148Y-45399429D01*
X76746136Y-45405223D01*
X76651376Y-45426665D01*
X76555625Y-45410212D01*
X76492443Y-45374653D01*
X76456692Y-45346979D01*
X76456687Y-45346976D01*
X76274100Y-45257413D01*
X76274097Y-45257412D01*
X76225000Y-45244699D01*
X76225000Y-45952392D01*
X76206046Y-46047680D01*
X76152070Y-46128462D01*
X76071288Y-46182438D01*
X75976000Y-46201392D01*
X75951610Y-46200195D01*
X75949629Y-46200000D01*
X75949624Y-46200000D01*
X75900376Y-46200000D01*
X75900371Y-46200000D01*
X75898390Y-46200195D01*
X75896412Y-46200000D01*
X75888143Y-46200000D01*
X75888143Y-46199184D01*
X75801703Y-46190665D01*
X75716023Y-46144861D01*
X75654394Y-46069755D01*
X75626197Y-45976782D01*
X75625000Y-45952392D01*
X75625000Y-45244728D01*
X75482335Y-45297565D01*
X75309740Y-45405143D01*
X75162329Y-45545267D01*
X75046143Y-45712196D01*
X74965939Y-45899096D01*
X74925000Y-46098305D01*
X74925000Y-46149999D01*
X74925001Y-46150000D01*
X75426368Y-46150000D01*
X75521656Y-46168954D01*
X75602438Y-46222930D01*
X75656414Y-46303712D01*
X75675368Y-46399000D01*
X75670584Y-46447574D01*
X75670102Y-46449997D01*
X75670102Y-46450002D01*
X75670584Y-46452426D01*
X75670583Y-46549581D01*
X75633402Y-46639340D01*
X75564702Y-46708038D01*
X75474942Y-46745216D01*
X75426368Y-46750000D01*
X74925001Y-46750000D01*
X74925000Y-46750001D01*
X74925000Y-46750706D01*
X71103280Y-46750706D01*
X71104774Y-46739676D01*
X71124520Y-46300007D01*
X71124520Y-46299992D01*
X71104774Y-45860323D01*
X71045696Y-45424193D01*
X71045694Y-45424181D01*
X70947757Y-44995097D01*
X70916858Y-44900000D01*
X84544659Y-44900000D01*
X84563975Y-45096131D01*
X84621185Y-45284725D01*
X84621188Y-45284733D01*
X84714088Y-45458536D01*
X84777588Y-45535910D01*
X84839117Y-45610883D01*
X84860966Y-45628814D01*
X84991463Y-45735911D01*
X85165266Y-45828811D01*
X85165270Y-45828812D01*
X85165273Y-45828814D01*
X85353868Y-45886024D01*
X85550000Y-45905341D01*
X85746132Y-45886024D01*
X85934727Y-45828814D01*
X85981881Y-45803610D01*
X86108536Y-45735911D01*
X86108535Y-45735911D01*
X86108538Y-45735910D01*
X86260883Y-45610883D01*
X86385910Y-45458538D01*
X86412630Y-45408549D01*
X86478811Y-45284733D01*
X86478811Y-45284731D01*
X86478814Y-45284727D01*
X86536024Y-45096132D01*
X86555341Y-44900000D01*
X86536024Y-44703868D01*
X86534851Y-44700000D01*
X96844659Y-44700000D01*
X96863975Y-44896131D01*
X96921185Y-45084725D01*
X96921188Y-45084733D01*
X97014088Y-45258536D01*
X97014090Y-45258538D01*
X97139117Y-45410883D01*
X97217669Y-45475349D01*
X97291463Y-45535911D01*
X97465266Y-45628811D01*
X97465270Y-45628812D01*
X97465273Y-45628814D01*
X97653868Y-45686024D01*
X97850000Y-45705341D01*
X98046132Y-45686024D01*
X98234727Y-45628814D01*
X98311450Y-45587805D01*
X98408536Y-45535911D01*
X98408535Y-45535911D01*
X98408538Y-45535910D01*
X98560883Y-45410883D01*
X98685910Y-45258538D01*
X98772718Y-45096132D01*
X98778811Y-45084733D01*
X98778811Y-45084731D01*
X98778814Y-45084727D01*
X98836024Y-44896132D01*
X98855341Y-44700000D01*
X98836024Y-44503868D01*
X98778814Y-44315273D01*
X98778812Y-44315270D01*
X98778811Y-44315266D01*
X98685911Y-44141463D01*
X98599408Y-44036060D01*
X98560883Y-43989117D01*
X98493721Y-43933998D01*
X98408536Y-43864088D01*
X98234733Y-43771188D01*
X98234725Y-43771185D01*
X98046131Y-43713975D01*
X97850000Y-43694659D01*
X97653868Y-43713975D01*
X97465274Y-43771185D01*
X97465266Y-43771188D01*
X97291463Y-43864088D01*
X97139120Y-43989114D01*
X97139114Y-43989120D01*
X97014088Y-44141463D01*
X96921188Y-44315266D01*
X96921185Y-44315274D01*
X96863975Y-44503868D01*
X96844659Y-44700000D01*
X86534851Y-44700000D01*
X86478814Y-44515273D01*
X86478812Y-44515270D01*
X86478811Y-44515266D01*
X86385911Y-44341463D01*
X86334702Y-44279065D01*
X86260883Y-44189117D01*
X86108538Y-44064090D01*
X86108539Y-44064090D01*
X86108536Y-44064088D01*
X85934733Y-43971188D01*
X85934725Y-43971185D01*
X85746131Y-43913975D01*
X85550000Y-43894659D01*
X85353868Y-43913975D01*
X85165274Y-43971185D01*
X85165266Y-43971188D01*
X84991463Y-44064088D01*
X84839120Y-44189114D01*
X84839114Y-44189120D01*
X84714088Y-44341463D01*
X84621188Y-44515266D01*
X84621185Y-44515274D01*
X84563975Y-44703868D01*
X84544659Y-44900000D01*
X70916858Y-44900000D01*
X70811756Y-44576530D01*
X70811751Y-44576515D01*
X70638776Y-44171822D01*
X70638773Y-44171817D01*
X70430223Y-43784266D01*
X70187765Y-43416957D01*
X70187751Y-43416938D01*
X69913354Y-43072855D01*
X69892647Y-43051197D01*
X69102415Y-43841429D01*
X69021634Y-43895405D01*
X68926346Y-43914359D01*
X68831058Y-43895405D01*
X68758596Y-43849372D01*
X68683136Y-43780581D01*
X68625486Y-43702379D01*
X68602152Y-43608067D01*
X68616685Y-43512006D01*
X68666873Y-43428818D01*
X68674816Y-43420498D01*
X69465833Y-42629480D01*
X69277766Y-42465170D01*
X69277752Y-42465159D01*
X68921700Y-42206472D01*
X68543878Y-41980734D01*
X68147350Y-41789774D01*
X68147343Y-41789771D01*
X67735287Y-41635125D01*
X67311026Y-41518036D01*
X66877979Y-41439451D01*
X66439642Y-41400000D01*
X65999519Y-41400000D01*
X65561182Y-41439451D01*
X65128135Y-41518036D01*
X64703874Y-41635125D01*
X64291818Y-41789771D01*
X64291811Y-41789774D01*
X63895283Y-41980734D01*
X63517463Y-42206471D01*
X63161403Y-42465162D01*
X63161398Y-42465166D01*
X62973326Y-42629479D01*
X62973326Y-42629480D01*
X63760981Y-43417135D01*
X63814957Y-43497917D01*
X63833911Y-43593205D01*
X63814957Y-43688493D01*
X63760981Y-43769275D01*
X63750075Y-43777916D01*
X63750602Y-43778494D01*
X63733553Y-43794035D01*
X63714875Y-43818770D01*
X63642325Y-43883389D01*
X63550569Y-43915325D01*
X63453576Y-43909717D01*
X63366112Y-43867419D01*
X63340099Y-43844783D01*
X62546512Y-43051196D01*
X62525819Y-43072841D01*
X62525804Y-43072858D01*
X62251410Y-43416938D01*
X62251396Y-43416957D01*
X62008938Y-43784266D01*
X61800388Y-44171817D01*
X61800385Y-44171822D01*
X61627410Y-44576515D01*
X61627405Y-44576530D01*
X61491404Y-44995097D01*
X61393467Y-45424181D01*
X61393465Y-45424193D01*
X61334387Y-45860323D01*
X61314642Y-46299992D01*
X61314642Y-46300007D01*
X60500500Y-46300007D01*
X60500500Y-46250000D01*
X60503294Y-46182438D01*
X60509497Y-46032456D01*
X60509817Y-46025155D01*
X60519904Y-45794112D01*
X60520737Y-45784191D01*
X60549085Y-45556772D01*
X60578884Y-45330423D01*
X60580452Y-45321219D01*
X60627976Y-45094569D01*
X60676987Y-44873502D01*
X60679212Y-44864923D01*
X60694503Y-44813561D01*
X60745580Y-44641993D01*
X60813531Y-44426483D01*
X60816244Y-44418783D01*
X60901094Y-44201333D01*
X60987478Y-43992784D01*
X60990607Y-43985845D01*
X61093376Y-43775627D01*
X61197599Y-43575419D01*
X61201058Y-43569218D01*
X61321048Y-43367849D01*
X61442384Y-43177392D01*
X61446011Y-43172017D01*
X61582440Y-42980936D01*
X61720042Y-42801611D01*
X61723760Y-42796998D01*
X61875719Y-42617581D01*
X61886753Y-42605541D01*
X62030404Y-42448771D01*
X62198759Y-42280415D01*
X62367585Y-42125716D01*
X62546998Y-41973760D01*
X62551611Y-41970042D01*
X62730936Y-41832440D01*
X62922017Y-41696011D01*
X62927392Y-41692384D01*
X63117849Y-41571048D01*
X63319219Y-41451056D01*
X63325419Y-41447599D01*
X63525627Y-41343376D01*
X63735845Y-41240607D01*
X63742784Y-41237478D01*
X63951333Y-41151094D01*
X64168783Y-41066244D01*
X64176483Y-41063531D01*
X64391993Y-40995580D01*
X64614919Y-40929212D01*
X64623502Y-40926987D01*
X64679038Y-40914674D01*
X64844569Y-40877976D01*
X65071219Y-40830452D01*
X65080423Y-40828884D01*
X65306772Y-40799085D01*
X65534191Y-40770737D01*
X65544110Y-40769904D01*
X65782356Y-40759501D01*
X65999999Y-40750500D01*
X104499841Y-40756173D01*
G37*
%TD.AperFunction*%
%TD*%
M02*
