%TF.GenerationSoftware,KiCad,Pcbnew,7.0.7*%
%TF.CreationDate,2023-08-28T01:03:24+03:00*%
%TF.ProjectId,STM32F405_Lesson_1,53544d33-3246-4343-9035-5f4c6573736f,rev?*%
%TF.SameCoordinates,Original*%
%TF.FileFunction,Legend,Top*%
%TF.FilePolarity,Positive*%
%FSLAX46Y46*%
G04 Gerber Fmt 4.6, Leading zero omitted, Abs format (unit mm)*
G04 Created by KiCad (PCBNEW 7.0.7) date 2023-08-28 01:03:24*
%MOMM*%
%LPD*%
G01*
G04 APERTURE LIST*
%ADD10C,0.100000*%
%ADD11C,0.125000*%
%ADD12C,0.150000*%
%ADD13C,0.200000*%
%ADD14C,0.120000*%
G04 APERTURE END LIST*
D10*
X74619047Y-68558895D02*
X74619047Y-69130323D01*
X74619047Y-69130323D02*
X74580952Y-69244609D01*
X74580952Y-69244609D02*
X74504761Y-69320800D01*
X74504761Y-69320800D02*
X74390476Y-69358895D01*
X74390476Y-69358895D02*
X74314285Y-69358895D01*
X75380952Y-69358895D02*
X75000000Y-69358895D01*
X75000000Y-69358895D02*
X75000000Y-68558895D01*
X76104762Y-69282704D02*
X76066666Y-69320800D01*
X76066666Y-69320800D02*
X75952381Y-69358895D01*
X75952381Y-69358895D02*
X75876190Y-69358895D01*
X75876190Y-69358895D02*
X75761904Y-69320800D01*
X75761904Y-69320800D02*
X75685714Y-69244609D01*
X75685714Y-69244609D02*
X75647619Y-69168419D01*
X75647619Y-69168419D02*
X75609523Y-69016038D01*
X75609523Y-69016038D02*
X75609523Y-68901752D01*
X75609523Y-68901752D02*
X75647619Y-68749371D01*
X75647619Y-68749371D02*
X75685714Y-68673180D01*
X75685714Y-68673180D02*
X75761904Y-68596990D01*
X75761904Y-68596990D02*
X75876190Y-68558895D01*
X75876190Y-68558895D02*
X75952381Y-68558895D01*
X75952381Y-68558895D02*
X76066666Y-68596990D01*
X76066666Y-68596990D02*
X76104762Y-68635085D01*
X76257143Y-69435085D02*
X76866666Y-69435085D01*
X77057143Y-69358895D02*
X77057143Y-68558895D01*
X77057143Y-68558895D02*
X77514286Y-69358895D01*
X77514286Y-69358895D02*
X77514286Y-68558895D01*
X78238095Y-68825561D02*
X78238095Y-69358895D01*
X77895238Y-68825561D02*
X77895238Y-69244609D01*
X77895238Y-69244609D02*
X77933333Y-69320800D01*
X77933333Y-69320800D02*
X78009523Y-69358895D01*
X78009523Y-69358895D02*
X78123809Y-69358895D01*
X78123809Y-69358895D02*
X78200000Y-69320800D01*
X78200000Y-69320800D02*
X78238095Y-69282704D01*
X78619048Y-69358895D02*
X78619048Y-68825561D01*
X78619048Y-68901752D02*
X78657143Y-68863657D01*
X78657143Y-68863657D02*
X78733333Y-68825561D01*
X78733333Y-68825561D02*
X78847619Y-68825561D01*
X78847619Y-68825561D02*
X78923810Y-68863657D01*
X78923810Y-68863657D02*
X78961905Y-68939847D01*
X78961905Y-68939847D02*
X78961905Y-69358895D01*
X78961905Y-68939847D02*
X79000000Y-68863657D01*
X79000000Y-68863657D02*
X79076191Y-68825561D01*
X79076191Y-68825561D02*
X79190476Y-68825561D01*
X79190476Y-68825561D02*
X79266667Y-68863657D01*
X79266667Y-68863657D02*
X79304762Y-68939847D01*
X79304762Y-68939847D02*
X79304762Y-69358895D01*
X79685715Y-69358895D02*
X79685715Y-68558895D01*
X79685715Y-68863657D02*
X79761905Y-68825561D01*
X79761905Y-68825561D02*
X79914286Y-68825561D01*
X79914286Y-68825561D02*
X79990477Y-68863657D01*
X79990477Y-68863657D02*
X80028572Y-68901752D01*
X80028572Y-68901752D02*
X80066667Y-68977942D01*
X80066667Y-68977942D02*
X80066667Y-69206514D01*
X80066667Y-69206514D02*
X80028572Y-69282704D01*
X80028572Y-69282704D02*
X79990477Y-69320800D01*
X79990477Y-69320800D02*
X79914286Y-69358895D01*
X79914286Y-69358895D02*
X79761905Y-69358895D01*
X79761905Y-69358895D02*
X79685715Y-69320800D01*
X80714287Y-69320800D02*
X80638096Y-69358895D01*
X80638096Y-69358895D02*
X80485715Y-69358895D01*
X80485715Y-69358895D02*
X80409525Y-69320800D01*
X80409525Y-69320800D02*
X80371429Y-69244609D01*
X80371429Y-69244609D02*
X80371429Y-68939847D01*
X80371429Y-68939847D02*
X80409525Y-68863657D01*
X80409525Y-68863657D02*
X80485715Y-68825561D01*
X80485715Y-68825561D02*
X80638096Y-68825561D01*
X80638096Y-68825561D02*
X80714287Y-68863657D01*
X80714287Y-68863657D02*
X80752382Y-68939847D01*
X80752382Y-68939847D02*
X80752382Y-69016038D01*
X80752382Y-69016038D02*
X80371429Y-69092228D01*
X81095239Y-69358895D02*
X81095239Y-68825561D01*
X81095239Y-68977942D02*
X81133334Y-68901752D01*
X81133334Y-68901752D02*
X81171429Y-68863657D01*
X81171429Y-68863657D02*
X81247620Y-68825561D01*
X81247620Y-68825561D02*
X81323810Y-68825561D01*
X76333334Y-70951657D02*
X76295239Y-70913561D01*
X76295239Y-70913561D02*
X76219048Y-70799276D01*
X76219048Y-70799276D02*
X76180953Y-70723085D01*
X76180953Y-70723085D02*
X76142858Y-70608800D01*
X76142858Y-70608800D02*
X76104763Y-70418323D01*
X76104763Y-70418323D02*
X76104763Y-70265942D01*
X76104763Y-70265942D02*
X76142858Y-70075466D01*
X76142858Y-70075466D02*
X76180953Y-69961180D01*
X76180953Y-69961180D02*
X76219048Y-69884990D01*
X76219048Y-69884990D02*
X76295239Y-69770704D01*
X76295239Y-69770704D02*
X76333334Y-69732609D01*
X76638096Y-70646895D02*
X76638096Y-69846895D01*
X76638096Y-70227847D02*
X77095239Y-70227847D01*
X77095239Y-70646895D02*
X77095239Y-69846895D01*
X77780953Y-70608800D02*
X77704762Y-70646895D01*
X77704762Y-70646895D02*
X77552381Y-70646895D01*
X77552381Y-70646895D02*
X77476191Y-70608800D01*
X77476191Y-70608800D02*
X77438095Y-70532609D01*
X77438095Y-70532609D02*
X77438095Y-70227847D01*
X77438095Y-70227847D02*
X77476191Y-70151657D01*
X77476191Y-70151657D02*
X77552381Y-70113561D01*
X77552381Y-70113561D02*
X77704762Y-70113561D01*
X77704762Y-70113561D02*
X77780953Y-70151657D01*
X77780953Y-70151657D02*
X77819048Y-70227847D01*
X77819048Y-70227847D02*
X77819048Y-70304038D01*
X77819048Y-70304038D02*
X77438095Y-70380228D01*
X78161905Y-70646895D02*
X78161905Y-70113561D01*
X78161905Y-70265942D02*
X78200000Y-70189752D01*
X78200000Y-70189752D02*
X78238095Y-70151657D01*
X78238095Y-70151657D02*
X78314286Y-70113561D01*
X78314286Y-70113561D02*
X78390476Y-70113561D01*
X78961905Y-70608800D02*
X78885714Y-70646895D01*
X78885714Y-70646895D02*
X78733333Y-70646895D01*
X78733333Y-70646895D02*
X78657143Y-70608800D01*
X78657143Y-70608800D02*
X78619047Y-70532609D01*
X78619047Y-70532609D02*
X78619047Y-70227847D01*
X78619047Y-70227847D02*
X78657143Y-70151657D01*
X78657143Y-70151657D02*
X78733333Y-70113561D01*
X78733333Y-70113561D02*
X78885714Y-70113561D01*
X78885714Y-70113561D02*
X78961905Y-70151657D01*
X78961905Y-70151657D02*
X79000000Y-70227847D01*
X79000000Y-70227847D02*
X79000000Y-70304038D01*
X79000000Y-70304038D02*
X78619047Y-70380228D01*
X79266666Y-70951657D02*
X79304761Y-70913561D01*
X79304761Y-70913561D02*
X79380952Y-70799276D01*
X79380952Y-70799276D02*
X79419047Y-70723085D01*
X79419047Y-70723085D02*
X79457142Y-70608800D01*
X79457142Y-70608800D02*
X79495238Y-70418323D01*
X79495238Y-70418323D02*
X79495238Y-70265942D01*
X79495238Y-70265942D02*
X79457142Y-70075466D01*
X79457142Y-70075466D02*
X79419047Y-69961180D01*
X79419047Y-69961180D02*
X79380952Y-69884990D01*
X79380952Y-69884990D02*
X79304761Y-69770704D01*
X79304761Y-69770704D02*
X79266666Y-69732609D01*
D11*
X85322712Y-87395595D02*
X85322712Y-86595595D01*
X85322712Y-86595595D02*
X85627474Y-86595595D01*
X85627474Y-86595595D02*
X85703664Y-86633690D01*
X85703664Y-86633690D02*
X85741759Y-86671785D01*
X85741759Y-86671785D02*
X85779855Y-86747976D01*
X85779855Y-86747976D02*
X85779855Y-86862261D01*
X85779855Y-86862261D02*
X85741759Y-86938452D01*
X85741759Y-86938452D02*
X85703664Y-86976547D01*
X85703664Y-86976547D02*
X85627474Y-87014642D01*
X85627474Y-87014642D02*
X85322712Y-87014642D01*
X86122712Y-87395595D02*
X86122712Y-86595595D01*
X86122712Y-86976547D02*
X86579855Y-86976547D01*
X86579855Y-87395595D02*
X86579855Y-86595595D01*
X86960807Y-87395595D02*
X86960807Y-86595595D01*
X87722711Y-87395595D02*
X87341759Y-87395595D01*
X87341759Y-87395595D02*
X87341759Y-86595595D01*
X88027473Y-86595595D02*
X87951282Y-86747976D01*
X88332234Y-87357500D02*
X88446520Y-87395595D01*
X88446520Y-87395595D02*
X88636996Y-87395595D01*
X88636996Y-87395595D02*
X88713187Y-87357500D01*
X88713187Y-87357500D02*
X88751282Y-87319404D01*
X88751282Y-87319404D02*
X88789377Y-87243214D01*
X88789377Y-87243214D02*
X88789377Y-87167023D01*
X88789377Y-87167023D02*
X88751282Y-87090833D01*
X88751282Y-87090833D02*
X88713187Y-87052738D01*
X88713187Y-87052738D02*
X88636996Y-87014642D01*
X88636996Y-87014642D02*
X88484615Y-86976547D01*
X88484615Y-86976547D02*
X88408425Y-86938452D01*
X88408425Y-86938452D02*
X88370330Y-86900357D01*
X88370330Y-86900357D02*
X88332234Y-86824166D01*
X88332234Y-86824166D02*
X88332234Y-86747976D01*
X88332234Y-86747976D02*
X88370330Y-86671785D01*
X88370330Y-86671785D02*
X88408425Y-86633690D01*
X88408425Y-86633690D02*
X88484615Y-86595595D01*
X88484615Y-86595595D02*
X88675092Y-86595595D01*
X88675092Y-86595595D02*
X88789377Y-86633690D01*
X90122711Y-87395595D02*
X89741759Y-87395595D01*
X89741759Y-87395595D02*
X89741759Y-86595595D01*
X90351282Y-87167023D02*
X90732235Y-87167023D01*
X90275092Y-87395595D02*
X90541759Y-86595595D01*
X90541759Y-86595595D02*
X90808425Y-87395595D01*
X91341758Y-86976547D02*
X91456044Y-87014642D01*
X91456044Y-87014642D02*
X91494139Y-87052738D01*
X91494139Y-87052738D02*
X91532235Y-87128928D01*
X91532235Y-87128928D02*
X91532235Y-87243214D01*
X91532235Y-87243214D02*
X91494139Y-87319404D01*
X91494139Y-87319404D02*
X91456044Y-87357500D01*
X91456044Y-87357500D02*
X91379854Y-87395595D01*
X91379854Y-87395595D02*
X91075092Y-87395595D01*
X91075092Y-87395595D02*
X91075092Y-86595595D01*
X91075092Y-86595595D02*
X91341758Y-86595595D01*
X91341758Y-86595595D02*
X91417949Y-86633690D01*
X91417949Y-86633690D02*
X91456044Y-86671785D01*
X91456044Y-86671785D02*
X91494139Y-86747976D01*
X91494139Y-86747976D02*
X91494139Y-86824166D01*
X91494139Y-86824166D02*
X91456044Y-86900357D01*
X91456044Y-86900357D02*
X91417949Y-86938452D01*
X91417949Y-86938452D02*
X91341758Y-86976547D01*
X91341758Y-86976547D02*
X91075092Y-86976547D01*
X92484616Y-87090833D02*
X93094140Y-87090833D01*
X94046520Y-87357500D02*
X94160806Y-87395595D01*
X94160806Y-87395595D02*
X94351282Y-87395595D01*
X94351282Y-87395595D02*
X94427473Y-87357500D01*
X94427473Y-87357500D02*
X94465568Y-87319404D01*
X94465568Y-87319404D02*
X94503663Y-87243214D01*
X94503663Y-87243214D02*
X94503663Y-87167023D01*
X94503663Y-87167023D02*
X94465568Y-87090833D01*
X94465568Y-87090833D02*
X94427473Y-87052738D01*
X94427473Y-87052738D02*
X94351282Y-87014642D01*
X94351282Y-87014642D02*
X94198901Y-86976547D01*
X94198901Y-86976547D02*
X94122711Y-86938452D01*
X94122711Y-86938452D02*
X94084616Y-86900357D01*
X94084616Y-86900357D02*
X94046520Y-86824166D01*
X94046520Y-86824166D02*
X94046520Y-86747976D01*
X94046520Y-86747976D02*
X94084616Y-86671785D01*
X94084616Y-86671785D02*
X94122711Y-86633690D01*
X94122711Y-86633690D02*
X94198901Y-86595595D01*
X94198901Y-86595595D02*
X94389378Y-86595595D01*
X94389378Y-86595595D02*
X94503663Y-86633690D01*
X94732235Y-86595595D02*
X95189378Y-86595595D01*
X94960806Y-87395595D02*
X94960806Y-86595595D01*
X95456045Y-87395595D02*
X95456045Y-86595595D01*
X95456045Y-86595595D02*
X95722711Y-87167023D01*
X95722711Y-87167023D02*
X95989378Y-86595595D01*
X95989378Y-86595595D02*
X95989378Y-87395595D01*
X96294140Y-86595595D02*
X96789378Y-86595595D01*
X96789378Y-86595595D02*
X96522712Y-86900357D01*
X96522712Y-86900357D02*
X96636997Y-86900357D01*
X96636997Y-86900357D02*
X96713188Y-86938452D01*
X96713188Y-86938452D02*
X96751283Y-86976547D01*
X96751283Y-86976547D02*
X96789378Y-87052738D01*
X96789378Y-87052738D02*
X96789378Y-87243214D01*
X96789378Y-87243214D02*
X96751283Y-87319404D01*
X96751283Y-87319404D02*
X96713188Y-87357500D01*
X96713188Y-87357500D02*
X96636997Y-87395595D01*
X96636997Y-87395595D02*
X96408426Y-87395595D01*
X96408426Y-87395595D02*
X96332235Y-87357500D01*
X96332235Y-87357500D02*
X96294140Y-87319404D01*
X97094140Y-86671785D02*
X97132236Y-86633690D01*
X97132236Y-86633690D02*
X97208426Y-86595595D01*
X97208426Y-86595595D02*
X97398902Y-86595595D01*
X97398902Y-86595595D02*
X97475093Y-86633690D01*
X97475093Y-86633690D02*
X97513188Y-86671785D01*
X97513188Y-86671785D02*
X97551283Y-86747976D01*
X97551283Y-86747976D02*
X97551283Y-86824166D01*
X97551283Y-86824166D02*
X97513188Y-86938452D01*
X97513188Y-86938452D02*
X97056045Y-87395595D01*
X97056045Y-87395595D02*
X97551283Y-87395595D01*
X98160807Y-86976547D02*
X97894141Y-86976547D01*
X97894141Y-87395595D02*
X97894141Y-86595595D01*
X97894141Y-86595595D02*
X98275093Y-86595595D01*
X98922712Y-86862261D02*
X98922712Y-87395595D01*
X98732236Y-86557500D02*
X98541759Y-87128928D01*
X98541759Y-87128928D02*
X99036998Y-87128928D01*
D12*
X66308207Y-61669819D02*
X65974874Y-61193628D01*
X65736779Y-61669819D02*
X65736779Y-60669819D01*
X65736779Y-60669819D02*
X66117731Y-60669819D01*
X66117731Y-60669819D02*
X66212969Y-60717438D01*
X66212969Y-60717438D02*
X66260588Y-60765057D01*
X66260588Y-60765057D02*
X66308207Y-60860295D01*
X66308207Y-60860295D02*
X66308207Y-61003152D01*
X66308207Y-61003152D02*
X66260588Y-61098390D01*
X66260588Y-61098390D02*
X66212969Y-61146009D01*
X66212969Y-61146009D02*
X66117731Y-61193628D01*
X66117731Y-61193628D02*
X65736779Y-61193628D01*
X66736779Y-60669819D02*
X66736779Y-61479342D01*
X66736779Y-61479342D02*
X66784398Y-61574580D01*
X66784398Y-61574580D02*
X66832017Y-61622200D01*
X66832017Y-61622200D02*
X66927255Y-61669819D01*
X66927255Y-61669819D02*
X67117731Y-61669819D01*
X67117731Y-61669819D02*
X67212969Y-61622200D01*
X67212969Y-61622200D02*
X67260588Y-61574580D01*
X67260588Y-61574580D02*
X67308207Y-61479342D01*
X67308207Y-61479342D02*
X67308207Y-60669819D01*
X67784398Y-61669819D02*
X67784398Y-60669819D01*
X67784398Y-60669819D02*
X68355826Y-61669819D01*
X68355826Y-61669819D02*
X68355826Y-60669819D01*
D10*
X67656265Y-73792133D02*
X68265789Y-73792133D01*
X67961027Y-74096895D02*
X67961027Y-73487371D01*
D13*
X104357768Y-76632933D02*
X105881578Y-76632933D01*
X105119673Y-77394838D02*
X105119673Y-75871028D01*
D10*
X90506265Y-67542133D02*
X91115789Y-67542133D01*
X90811027Y-67846895D02*
X90811027Y-67237371D01*
X102956265Y-63192133D02*
X103565789Y-63192133D01*
X103261027Y-63496895D02*
X103261027Y-62887371D01*
X97506265Y-43742133D02*
X98115789Y-43742133D01*
X97811027Y-44046895D02*
X97811027Y-43437371D01*
D12*
X104350000Y-59050000D02*
G75*
G03*
X104350000Y-59050000I-50000J0D01*
G01*
X102600000Y-58750000D02*
G75*
G03*
X102600000Y-58750000I-50000J0D01*
G01*
X98550000Y-66250000D02*
G75*
G03*
X98550000Y-66250000I-50000J0D01*
G01*
X93800000Y-78150000D02*
G75*
G03*
X93800000Y-78150000I-50000J0D01*
G01*
X70550000Y-64950000D02*
G75*
G03*
X70550000Y-64950000I-50000J0D01*
G01*
X67089160Y-78122200D02*
X67232017Y-78169819D01*
X67232017Y-78169819D02*
X67470112Y-78169819D01*
X67470112Y-78169819D02*
X67565350Y-78122200D01*
X67565350Y-78122200D02*
X67612969Y-78074580D01*
X67612969Y-78074580D02*
X67660588Y-77979342D01*
X67660588Y-77979342D02*
X67660588Y-77884104D01*
X67660588Y-77884104D02*
X67612969Y-77788866D01*
X67612969Y-77788866D02*
X67565350Y-77741247D01*
X67565350Y-77741247D02*
X67470112Y-77693628D01*
X67470112Y-77693628D02*
X67279636Y-77646009D01*
X67279636Y-77646009D02*
X67184398Y-77598390D01*
X67184398Y-77598390D02*
X67136779Y-77550771D01*
X67136779Y-77550771D02*
X67089160Y-77455533D01*
X67089160Y-77455533D02*
X67089160Y-77360295D01*
X67089160Y-77360295D02*
X67136779Y-77265057D01*
X67136779Y-77265057D02*
X67184398Y-77217438D01*
X67184398Y-77217438D02*
X67279636Y-77169819D01*
X67279636Y-77169819D02*
X67517731Y-77169819D01*
X67517731Y-77169819D02*
X67660588Y-77217438D01*
X67946303Y-77169819D02*
X68517731Y-77169819D01*
X68232017Y-78169819D02*
X68232017Y-77169819D01*
X68803446Y-77884104D02*
X69279636Y-77884104D01*
X68708208Y-78169819D02*
X69041541Y-77169819D01*
X69041541Y-77169819D02*
X69374874Y-78169819D01*
X69565351Y-77169819D02*
X70136779Y-77169819D01*
X69851065Y-78169819D02*
X69851065Y-77169819D01*
X70470113Y-77169819D02*
X70470113Y-77979342D01*
X70470113Y-77979342D02*
X70517732Y-78074580D01*
X70517732Y-78074580D02*
X70565351Y-78122200D01*
X70565351Y-78122200D02*
X70660589Y-78169819D01*
X70660589Y-78169819D02*
X70851065Y-78169819D01*
X70851065Y-78169819D02*
X70946303Y-78122200D01*
X70946303Y-78122200D02*
X70993922Y-78074580D01*
X70993922Y-78074580D02*
X71041541Y-77979342D01*
X71041541Y-77979342D02*
X71041541Y-77169819D01*
X71470113Y-78122200D02*
X71612970Y-78169819D01*
X71612970Y-78169819D02*
X71851065Y-78169819D01*
X71851065Y-78169819D02*
X71946303Y-78122200D01*
X71946303Y-78122200D02*
X71993922Y-78074580D01*
X71993922Y-78074580D02*
X72041541Y-77979342D01*
X72041541Y-77979342D02*
X72041541Y-77884104D01*
X72041541Y-77884104D02*
X71993922Y-77788866D01*
X71993922Y-77788866D02*
X71946303Y-77741247D01*
X71946303Y-77741247D02*
X71851065Y-77693628D01*
X71851065Y-77693628D02*
X71660589Y-77646009D01*
X71660589Y-77646009D02*
X71565351Y-77598390D01*
X71565351Y-77598390D02*
X71517732Y-77550771D01*
X71517732Y-77550771D02*
X71470113Y-77455533D01*
X71470113Y-77455533D02*
X71470113Y-77360295D01*
X71470113Y-77360295D02*
X71517732Y-77265057D01*
X71517732Y-77265057D02*
X71565351Y-77217438D01*
X71565351Y-77217438D02*
X71660589Y-77169819D01*
X71660589Y-77169819D02*
X71898684Y-77169819D01*
X71898684Y-77169819D02*
X72041541Y-77217438D01*
X95041541Y-42469819D02*
X95660588Y-42469819D01*
X95660588Y-42469819D02*
X95327255Y-42850771D01*
X95327255Y-42850771D02*
X95470112Y-42850771D01*
X95470112Y-42850771D02*
X95565350Y-42898390D01*
X95565350Y-42898390D02*
X95612969Y-42946009D01*
X95612969Y-42946009D02*
X95660588Y-43041247D01*
X95660588Y-43041247D02*
X95660588Y-43279342D01*
X95660588Y-43279342D02*
X95612969Y-43374580D01*
X95612969Y-43374580D02*
X95565350Y-43422200D01*
X95565350Y-43422200D02*
X95470112Y-43469819D01*
X95470112Y-43469819D02*
X95184398Y-43469819D01*
X95184398Y-43469819D02*
X95089160Y-43422200D01*
X95089160Y-43422200D02*
X95041541Y-43374580D01*
X95946303Y-42469819D02*
X96279636Y-43469819D01*
X96279636Y-43469819D02*
X96612969Y-42469819D01*
X96851065Y-42469819D02*
X97470112Y-42469819D01*
X97470112Y-42469819D02*
X97136779Y-42850771D01*
X97136779Y-42850771D02*
X97279636Y-42850771D01*
X97279636Y-42850771D02*
X97374874Y-42898390D01*
X97374874Y-42898390D02*
X97422493Y-42946009D01*
X97422493Y-42946009D02*
X97470112Y-43041247D01*
X97470112Y-43041247D02*
X97470112Y-43279342D01*
X97470112Y-43279342D02*
X97422493Y-43374580D01*
X97422493Y-43374580D02*
X97374874Y-43422200D01*
X97374874Y-43422200D02*
X97279636Y-43469819D01*
X97279636Y-43469819D02*
X96993922Y-43469819D01*
X96993922Y-43469819D02*
X96898684Y-43422200D01*
X96898684Y-43422200D02*
X96851065Y-43374580D01*
X86689160Y-43672200D02*
X86832017Y-43719819D01*
X86832017Y-43719819D02*
X87070112Y-43719819D01*
X87070112Y-43719819D02*
X87165350Y-43672200D01*
X87165350Y-43672200D02*
X87212969Y-43624580D01*
X87212969Y-43624580D02*
X87260588Y-43529342D01*
X87260588Y-43529342D02*
X87260588Y-43434104D01*
X87260588Y-43434104D02*
X87212969Y-43338866D01*
X87212969Y-43338866D02*
X87165350Y-43291247D01*
X87165350Y-43291247D02*
X87070112Y-43243628D01*
X87070112Y-43243628D02*
X86879636Y-43196009D01*
X86879636Y-43196009D02*
X86784398Y-43148390D01*
X86784398Y-43148390D02*
X86736779Y-43100771D01*
X86736779Y-43100771D02*
X86689160Y-43005533D01*
X86689160Y-43005533D02*
X86689160Y-42910295D01*
X86689160Y-42910295D02*
X86736779Y-42815057D01*
X86736779Y-42815057D02*
X86784398Y-42767438D01*
X86784398Y-42767438D02*
X86879636Y-42719819D01*
X86879636Y-42719819D02*
X87117731Y-42719819D01*
X87117731Y-42719819D02*
X87260588Y-42767438D01*
X87593922Y-42719819D02*
X87832017Y-43719819D01*
X87832017Y-43719819D02*
X88022493Y-43005533D01*
X88022493Y-43005533D02*
X88212969Y-43719819D01*
X88212969Y-43719819D02*
X88451065Y-42719819D01*
X88832017Y-43719819D02*
X88832017Y-42719819D01*
X88832017Y-42719819D02*
X89070112Y-42719819D01*
X89070112Y-42719819D02*
X89212969Y-42767438D01*
X89212969Y-42767438D02*
X89308207Y-42862676D01*
X89308207Y-42862676D02*
X89355826Y-42957914D01*
X89355826Y-42957914D02*
X89403445Y-43148390D01*
X89403445Y-43148390D02*
X89403445Y-43291247D01*
X89403445Y-43291247D02*
X89355826Y-43481723D01*
X89355826Y-43481723D02*
X89308207Y-43576961D01*
X89308207Y-43576961D02*
X89212969Y-43672200D01*
X89212969Y-43672200D02*
X89070112Y-43719819D01*
X89070112Y-43719819D02*
X88832017Y-43719819D01*
X66170112Y-53446009D02*
X66312969Y-53493628D01*
X66312969Y-53493628D02*
X66360588Y-53541247D01*
X66360588Y-53541247D02*
X66408207Y-53636485D01*
X66408207Y-53636485D02*
X66408207Y-53779342D01*
X66408207Y-53779342D02*
X66360588Y-53874580D01*
X66360588Y-53874580D02*
X66312969Y-53922200D01*
X66312969Y-53922200D02*
X66217731Y-53969819D01*
X66217731Y-53969819D02*
X65836779Y-53969819D01*
X65836779Y-53969819D02*
X65836779Y-52969819D01*
X65836779Y-52969819D02*
X66170112Y-52969819D01*
X66170112Y-52969819D02*
X66265350Y-53017438D01*
X66265350Y-53017438D02*
X66312969Y-53065057D01*
X66312969Y-53065057D02*
X66360588Y-53160295D01*
X66360588Y-53160295D02*
X66360588Y-53255533D01*
X66360588Y-53255533D02*
X66312969Y-53350771D01*
X66312969Y-53350771D02*
X66265350Y-53398390D01*
X66265350Y-53398390D02*
X66170112Y-53446009D01*
X66170112Y-53446009D02*
X65836779Y-53446009D01*
X67027255Y-52969819D02*
X67217731Y-52969819D01*
X67217731Y-52969819D02*
X67312969Y-53017438D01*
X67312969Y-53017438D02*
X67408207Y-53112676D01*
X67408207Y-53112676D02*
X67455826Y-53303152D01*
X67455826Y-53303152D02*
X67455826Y-53636485D01*
X67455826Y-53636485D02*
X67408207Y-53826961D01*
X67408207Y-53826961D02*
X67312969Y-53922200D01*
X67312969Y-53922200D02*
X67217731Y-53969819D01*
X67217731Y-53969819D02*
X67027255Y-53969819D01*
X67027255Y-53969819D02*
X66932017Y-53922200D01*
X66932017Y-53922200D02*
X66836779Y-53826961D01*
X66836779Y-53826961D02*
X66789160Y-53636485D01*
X66789160Y-53636485D02*
X66789160Y-53303152D01*
X66789160Y-53303152D02*
X66836779Y-53112676D01*
X66836779Y-53112676D02*
X66932017Y-53017438D01*
X66932017Y-53017438D02*
X67027255Y-52969819D01*
X68074874Y-52969819D02*
X68265350Y-52969819D01*
X68265350Y-52969819D02*
X68360588Y-53017438D01*
X68360588Y-53017438D02*
X68455826Y-53112676D01*
X68455826Y-53112676D02*
X68503445Y-53303152D01*
X68503445Y-53303152D02*
X68503445Y-53636485D01*
X68503445Y-53636485D02*
X68455826Y-53826961D01*
X68455826Y-53826961D02*
X68360588Y-53922200D01*
X68360588Y-53922200D02*
X68265350Y-53969819D01*
X68265350Y-53969819D02*
X68074874Y-53969819D01*
X68074874Y-53969819D02*
X67979636Y-53922200D01*
X67979636Y-53922200D02*
X67884398Y-53826961D01*
X67884398Y-53826961D02*
X67836779Y-53636485D01*
X67836779Y-53636485D02*
X67836779Y-53303152D01*
X67836779Y-53303152D02*
X67884398Y-53112676D01*
X67884398Y-53112676D02*
X67979636Y-53017438D01*
X67979636Y-53017438D02*
X68074874Y-52969819D01*
X68789160Y-52969819D02*
X69360588Y-52969819D01*
X69074874Y-53969819D02*
X69074874Y-52969819D01*
X103886779Y-65919819D02*
X103886779Y-64919819D01*
X103886779Y-64919819D02*
X104267731Y-64919819D01*
X104267731Y-64919819D02*
X104362969Y-64967438D01*
X104362969Y-64967438D02*
X104410588Y-65015057D01*
X104410588Y-65015057D02*
X104458207Y-65110295D01*
X104458207Y-65110295D02*
X104458207Y-65253152D01*
X104458207Y-65253152D02*
X104410588Y-65348390D01*
X104410588Y-65348390D02*
X104362969Y-65396009D01*
X104362969Y-65396009D02*
X104267731Y-65443628D01*
X104267731Y-65443628D02*
X103886779Y-65443628D01*
X105077255Y-64919819D02*
X105267731Y-64919819D01*
X105267731Y-64919819D02*
X105362969Y-64967438D01*
X105362969Y-64967438D02*
X105458207Y-65062676D01*
X105458207Y-65062676D02*
X105505826Y-65253152D01*
X105505826Y-65253152D02*
X105505826Y-65586485D01*
X105505826Y-65586485D02*
X105458207Y-65776961D01*
X105458207Y-65776961D02*
X105362969Y-65872200D01*
X105362969Y-65872200D02*
X105267731Y-65919819D01*
X105267731Y-65919819D02*
X105077255Y-65919819D01*
X105077255Y-65919819D02*
X104982017Y-65872200D01*
X104982017Y-65872200D02*
X104886779Y-65776961D01*
X104886779Y-65776961D02*
X104839160Y-65586485D01*
X104839160Y-65586485D02*
X104839160Y-65253152D01*
X104839160Y-65253152D02*
X104886779Y-65062676D01*
X104886779Y-65062676D02*
X104982017Y-64967438D01*
X104982017Y-64967438D02*
X105077255Y-64919819D01*
X105839160Y-64919819D02*
X106077255Y-65919819D01*
X106077255Y-65919819D02*
X106267731Y-65205533D01*
X106267731Y-65205533D02*
X106458207Y-65919819D01*
X106458207Y-65919819D02*
X106696303Y-64919819D01*
X107077255Y-65396009D02*
X107410588Y-65396009D01*
X107553445Y-65919819D02*
X107077255Y-65919819D01*
X107077255Y-65919819D02*
X107077255Y-64919819D01*
X107077255Y-64919819D02*
X107553445Y-64919819D01*
X108553445Y-65919819D02*
X108220112Y-65443628D01*
X107982017Y-65919819D02*
X107982017Y-64919819D01*
X107982017Y-64919819D02*
X108362969Y-64919819D01*
X108362969Y-64919819D02*
X108458207Y-64967438D01*
X108458207Y-64967438D02*
X108505826Y-65015057D01*
X108505826Y-65015057D02*
X108553445Y-65110295D01*
X108553445Y-65110295D02*
X108553445Y-65253152D01*
X108553445Y-65253152D02*
X108505826Y-65348390D01*
X108505826Y-65348390D02*
X108458207Y-65396009D01*
X108458207Y-65396009D02*
X108362969Y-65443628D01*
X108362969Y-65443628D02*
X107982017Y-65443628D01*
X105986779Y-62619819D02*
X105986779Y-63429342D01*
X105986779Y-63429342D02*
X106034398Y-63524580D01*
X106034398Y-63524580D02*
X106082017Y-63572200D01*
X106082017Y-63572200D02*
X106177255Y-63619819D01*
X106177255Y-63619819D02*
X106367731Y-63619819D01*
X106367731Y-63619819D02*
X106462969Y-63572200D01*
X106462969Y-63572200D02*
X106510588Y-63524580D01*
X106510588Y-63524580D02*
X106558207Y-63429342D01*
X106558207Y-63429342D02*
X106558207Y-62619819D01*
X106986779Y-63572200D02*
X107129636Y-63619819D01*
X107129636Y-63619819D02*
X107367731Y-63619819D01*
X107367731Y-63619819D02*
X107462969Y-63572200D01*
X107462969Y-63572200D02*
X107510588Y-63524580D01*
X107510588Y-63524580D02*
X107558207Y-63429342D01*
X107558207Y-63429342D02*
X107558207Y-63334104D01*
X107558207Y-63334104D02*
X107510588Y-63238866D01*
X107510588Y-63238866D02*
X107462969Y-63191247D01*
X107462969Y-63191247D02*
X107367731Y-63143628D01*
X107367731Y-63143628D02*
X107177255Y-63096009D01*
X107177255Y-63096009D02*
X107082017Y-63048390D01*
X107082017Y-63048390D02*
X107034398Y-63000771D01*
X107034398Y-63000771D02*
X106986779Y-62905533D01*
X106986779Y-62905533D02*
X106986779Y-62810295D01*
X106986779Y-62810295D02*
X107034398Y-62715057D01*
X107034398Y-62715057D02*
X107082017Y-62667438D01*
X107082017Y-62667438D02*
X107177255Y-62619819D01*
X107177255Y-62619819D02*
X107415350Y-62619819D01*
X107415350Y-62619819D02*
X107558207Y-62667438D01*
X108320112Y-63096009D02*
X108462969Y-63143628D01*
X108462969Y-63143628D02*
X108510588Y-63191247D01*
X108510588Y-63191247D02*
X108558207Y-63286485D01*
X108558207Y-63286485D02*
X108558207Y-63429342D01*
X108558207Y-63429342D02*
X108510588Y-63524580D01*
X108510588Y-63524580D02*
X108462969Y-63572200D01*
X108462969Y-63572200D02*
X108367731Y-63619819D01*
X108367731Y-63619819D02*
X107986779Y-63619819D01*
X107986779Y-63619819D02*
X107986779Y-62619819D01*
X107986779Y-62619819D02*
X108320112Y-62619819D01*
X108320112Y-62619819D02*
X108415350Y-62667438D01*
X108415350Y-62667438D02*
X108462969Y-62715057D01*
X108462969Y-62715057D02*
X108510588Y-62810295D01*
X108510588Y-62810295D02*
X108510588Y-62905533D01*
X108510588Y-62905533D02*
X108462969Y-63000771D01*
X108462969Y-63000771D02*
X108415350Y-63048390D01*
X108415350Y-63048390D02*
X108320112Y-63096009D01*
X108320112Y-63096009D02*
X107986779Y-63096009D01*
X76336779Y-82669819D02*
X76336779Y-83479342D01*
X76336779Y-83479342D02*
X76384398Y-83574580D01*
X76384398Y-83574580D02*
X76432017Y-83622200D01*
X76432017Y-83622200D02*
X76527255Y-83669819D01*
X76527255Y-83669819D02*
X76717731Y-83669819D01*
X76717731Y-83669819D02*
X76812969Y-83622200D01*
X76812969Y-83622200D02*
X76860588Y-83574580D01*
X76860588Y-83574580D02*
X76908207Y-83479342D01*
X76908207Y-83479342D02*
X76908207Y-82669819D01*
X77336779Y-83384104D02*
X77812969Y-83384104D01*
X77241541Y-83669819D02*
X77574874Y-82669819D01*
X77574874Y-82669819D02*
X77908207Y-83669819D01*
X78812969Y-83669819D02*
X78479636Y-83193628D01*
X78241541Y-83669819D02*
X78241541Y-82669819D01*
X78241541Y-82669819D02*
X78622493Y-82669819D01*
X78622493Y-82669819D02*
X78717731Y-82717438D01*
X78717731Y-82717438D02*
X78765350Y-82765057D01*
X78765350Y-82765057D02*
X78812969Y-82860295D01*
X78812969Y-82860295D02*
X78812969Y-83003152D01*
X78812969Y-83003152D02*
X78765350Y-83098390D01*
X78765350Y-83098390D02*
X78717731Y-83146009D01*
X78717731Y-83146009D02*
X78622493Y-83193628D01*
X78622493Y-83193628D02*
X78241541Y-83193628D01*
X79098684Y-82669819D02*
X79670112Y-82669819D01*
X79384398Y-83669819D02*
X79384398Y-82669819D01*
X76536779Y-49869819D02*
X76536779Y-48869819D01*
X76965350Y-48965057D02*
X77012969Y-48917438D01*
X77012969Y-48917438D02*
X77108207Y-48869819D01*
X77108207Y-48869819D02*
X77346302Y-48869819D01*
X77346302Y-48869819D02*
X77441540Y-48917438D01*
X77441540Y-48917438D02*
X77489159Y-48965057D01*
X77489159Y-48965057D02*
X77536778Y-49060295D01*
X77536778Y-49060295D02*
X77536778Y-49155533D01*
X77536778Y-49155533D02*
X77489159Y-49298390D01*
X77489159Y-49298390D02*
X76917731Y-49869819D01*
X76917731Y-49869819D02*
X77536778Y-49869819D01*
X78536778Y-49774580D02*
X78489159Y-49822200D01*
X78489159Y-49822200D02*
X78346302Y-49869819D01*
X78346302Y-49869819D02*
X78251064Y-49869819D01*
X78251064Y-49869819D02*
X78108207Y-49822200D01*
X78108207Y-49822200D02*
X78012969Y-49726961D01*
X78012969Y-49726961D02*
X77965350Y-49631723D01*
X77965350Y-49631723D02*
X77917731Y-49441247D01*
X77917731Y-49441247D02*
X77917731Y-49298390D01*
X77917731Y-49298390D02*
X77965350Y-49107914D01*
X77965350Y-49107914D02*
X78012969Y-49012676D01*
X78012969Y-49012676D02*
X78108207Y-48917438D01*
X78108207Y-48917438D02*
X78251064Y-48869819D01*
X78251064Y-48869819D02*
X78346302Y-48869819D01*
X78346302Y-48869819D02*
X78489159Y-48917438D01*
X78489159Y-48917438D02*
X78536778Y-48965057D01*
D14*
%TO.C,J4*%
X81285000Y-91460000D02*
X81285000Y-91010000D01*
X74315000Y-87490000D02*
X74315000Y-87040000D01*
X74315000Y-91010000D02*
X74315000Y-91460000D01*
X75265000Y-87040000D02*
X75265000Y-85550000D01*
X74315000Y-87040000D02*
X75265000Y-87040000D01*
X81285000Y-87040000D02*
X80335000Y-87040000D01*
X81285000Y-87490000D02*
X81285000Y-87040000D01*
X74315000Y-91460000D02*
X81285000Y-91460000D01*
%TO.C,J3*%
X74165000Y-41240000D02*
X74165000Y-41690000D01*
X81135000Y-45210000D02*
X81135000Y-45660000D01*
X81135000Y-41690000D02*
X81135000Y-41240000D01*
X80185000Y-45660000D02*
X80185000Y-47150000D01*
X81135000Y-45660000D02*
X80185000Y-45660000D01*
X74165000Y-45660000D02*
X75115000Y-45660000D01*
X74165000Y-45210000D02*
X74165000Y-45660000D01*
X81135000Y-41240000D02*
X74165000Y-41240000D01*
%TO.C,G\u002A\u002A\u002A*%
G36*
X95101427Y-54574190D02*
G01*
X95101427Y-54838380D01*
X91232927Y-54838380D01*
X87364428Y-54838380D01*
X87364428Y-54574190D01*
X87364428Y-54310000D01*
X91232927Y-54310000D01*
X95101427Y-54310000D01*
X95101427Y-54574190D01*
G37*
G36*
X88348676Y-55328017D02*
G01*
X88550023Y-55330485D01*
X88711999Y-55334258D01*
X88823307Y-55339056D01*
X88872648Y-55344602D01*
X88874086Y-55345754D01*
X88883478Y-55387333D01*
X88910043Y-55492727D01*
X88951369Y-55652854D01*
X89005045Y-55858632D01*
X89068656Y-56100980D01*
X89139790Y-56370814D01*
X89216034Y-56659053D01*
X89294977Y-56956615D01*
X89374204Y-57254418D01*
X89451303Y-57543379D01*
X89523862Y-57814417D01*
X89589467Y-58058449D01*
X89645707Y-58266393D01*
X89690167Y-58429168D01*
X89720437Y-58537691D01*
X89733974Y-58582576D01*
X89749884Y-58563853D01*
X89782815Y-58474523D01*
X89831974Y-58317329D01*
X89896566Y-58095014D01*
X89975799Y-57810323D01*
X90068879Y-57465998D01*
X90175012Y-57064783D01*
X90195037Y-56988282D01*
X90629064Y-55327697D01*
X91393328Y-55327415D01*
X92157593Y-55327132D01*
X92157593Y-56308410D01*
X92157593Y-57289688D01*
X93120000Y-57289688D01*
X94082407Y-57289688D01*
X94082407Y-56308410D01*
X94082407Y-55327132D01*
X94591917Y-55327132D01*
X95101427Y-55327132D01*
X95101427Y-57799197D01*
X95101427Y-60271263D01*
X94591917Y-60271263D01*
X94082407Y-60271263D01*
X94082407Y-59195631D01*
X94082407Y-58120000D01*
X93120000Y-58120000D01*
X92157593Y-58120000D01*
X92157593Y-59195631D01*
X92157593Y-60271263D01*
X91685825Y-60271263D01*
X91214057Y-60271263D01*
X91214057Y-59560323D01*
X91213125Y-59328573D01*
X91210501Y-59039883D01*
X91206439Y-58712772D01*
X91201192Y-58365760D01*
X91195017Y-58017364D01*
X91188511Y-57701556D01*
X91162966Y-56553729D01*
X90723473Y-58308707D01*
X90634558Y-58663736D01*
X90550575Y-58999016D01*
X90473443Y-59306899D01*
X90405077Y-59579736D01*
X90347394Y-59809879D01*
X90302312Y-59989679D01*
X90271746Y-60111487D01*
X90257660Y-60167474D01*
X90231341Y-60271263D01*
X89744931Y-60271263D01*
X89258522Y-60271263D01*
X88787296Y-58374755D01*
X88316070Y-56478247D01*
X88312017Y-58374755D01*
X88307964Y-60271263D01*
X87836196Y-60271263D01*
X87364428Y-60271263D01*
X87364428Y-57799197D01*
X87364428Y-55327132D01*
X88119257Y-55327132D01*
X88348676Y-55328017D01*
G37*
%TO.C,R11*%
X95937742Y-46277500D02*
X96412258Y-46277500D01*
X95937742Y-47322500D02*
X96412258Y-47322500D01*
%TO.C,Y1*%
X68050000Y-65200000D02*
X64750000Y-65200000D01*
X64750000Y-65200000D02*
X64750000Y-69200000D01*
%TO.C,C8*%
X73812164Y-60540000D02*
X74027836Y-60540000D01*
X73812164Y-61260000D02*
X74027836Y-61260000D01*
%TO.C,C6*%
X83112164Y-74540000D02*
X83327836Y-74540000D01*
X83112164Y-75260000D02*
X83327836Y-75260000D01*
%TO.C,C11*%
X66827836Y-70360000D02*
X66612164Y-70360000D01*
X66827836Y-69640000D02*
X66612164Y-69640000D01*
%TO.C,F1*%
X95602064Y-65210000D02*
X94397936Y-65210000D01*
X95602064Y-63390000D02*
X94397936Y-63390000D01*
%TO.C,D5*%
X87640000Y-68100000D02*
X87640000Y-70100000D01*
X87640000Y-68100000D02*
X91650000Y-68100000D01*
X87640000Y-70100000D02*
X91650000Y-70100000D01*
%TO.C,Q1*%
X99060000Y-68200000D02*
X99060000Y-66525000D01*
X99060000Y-68200000D02*
X99060000Y-68850000D01*
X95940000Y-68200000D02*
X95940000Y-67550000D01*
X95940000Y-68200000D02*
X95940000Y-68850000D01*
%TO.C,R7*%
X99822500Y-78362742D02*
X99822500Y-78837258D01*
X98777500Y-78362742D02*
X98777500Y-78837258D01*
%TO.C,D2*%
X98340000Y-63200000D02*
X98340000Y-65200000D01*
X98340000Y-63200000D02*
X102350000Y-63200000D01*
X98340000Y-65200000D02*
X102350000Y-65200000D01*
%TO.C,L2*%
X90260000Y-71140000D02*
X89410000Y-71140000D01*
X90260000Y-71140000D02*
X90260000Y-76060000D01*
X85540000Y-71140000D02*
X86390000Y-71140000D01*
X85540000Y-71140000D02*
X85540000Y-76060000D01*
X90260000Y-76060000D02*
X89410000Y-76060000D01*
X85540000Y-76060000D02*
X86390000Y-76060000D01*
%TO.C,J1*%
X100392500Y-75482500D02*
X100392500Y-73482500D01*
X101642500Y-75482500D02*
X100392500Y-75482500D01*
X100782500Y-75092500D02*
X108252500Y-75092500D01*
X108252500Y-75092500D02*
X108252500Y-66472500D01*
X101742500Y-74032500D02*
X101742500Y-71032500D01*
X103092500Y-74032500D02*
X103092500Y-73282500D01*
X107392500Y-74032500D02*
X103092500Y-74032500D01*
X102742500Y-73782500D02*
X101742500Y-74032500D01*
X102742500Y-73282500D02*
X102742500Y-73782500D01*
X103092500Y-73282500D02*
X102742500Y-73282500D01*
X107392500Y-73282500D02*
X107392500Y-74032500D01*
X102742500Y-71782500D02*
X103092500Y-71782500D01*
X103092500Y-71782500D02*
X103092500Y-71032500D01*
X102742500Y-71282500D02*
X102742500Y-71782500D01*
X101742500Y-71032500D02*
X102742500Y-71282500D01*
X103092500Y-71032500D02*
X107392500Y-71032500D01*
X107392500Y-71032500D02*
X107392500Y-71782500D01*
X101742500Y-70532500D02*
X101742500Y-67532500D01*
X103092500Y-70532500D02*
X103092500Y-69782500D01*
X107392500Y-70532500D02*
X103092500Y-70532500D01*
X102742500Y-70282500D02*
X101742500Y-70532500D01*
X102742500Y-69782500D02*
X102742500Y-70282500D01*
X103092500Y-69782500D02*
X102742500Y-69782500D01*
X107392500Y-69782500D02*
X107392500Y-70532500D01*
X102742500Y-68282500D02*
X103092500Y-68282500D01*
X103092500Y-68282500D02*
X103092500Y-67532500D01*
X102742500Y-67782500D02*
X102742500Y-68282500D01*
X101742500Y-67532500D02*
X102742500Y-67782500D01*
X103092500Y-67532500D02*
X107392500Y-67532500D01*
X107392500Y-67532500D02*
X107392500Y-68282500D01*
X100782500Y-66472500D02*
X100782500Y-75092500D01*
X108252500Y-66472500D02*
X100782500Y-66472500D01*
X107392345Y-71782853D02*
G75*
G03*
X107392500Y-73282500I1700155J-749647D01*
G01*
X107392345Y-68282853D02*
G75*
G03*
X107392500Y-69782500I1700155J-749647D01*
G01*
%TO.C,FB1*%
X94260000Y-67900378D02*
X94260000Y-68699622D01*
X93140000Y-67900378D02*
X93140000Y-68699622D01*
%TO.C,C15*%
X89188748Y-77290000D02*
X90611252Y-77290000D01*
X89188748Y-79110000D02*
X90611252Y-79110000D01*
%TO.C,U3*%
X100500000Y-59360000D02*
X102300000Y-59360000D01*
X100500000Y-59360000D02*
X99700000Y-59360000D01*
X100500000Y-56240000D02*
X101300000Y-56240000D01*
X100500000Y-56240000D02*
X99700000Y-56240000D01*
%TO.C,C4*%
X69440000Y-64307836D02*
X69440000Y-64092164D01*
X70160000Y-64307836D02*
X70160000Y-64092164D01*
%TO.C,C10*%
X69440000Y-70787836D02*
X69440000Y-70572164D01*
X70160000Y-70787836D02*
X70160000Y-70572164D01*
%TO.C,R2*%
X69543641Y-67880000D02*
X69236359Y-67880000D01*
X69543641Y-67120000D02*
X69236359Y-67120000D01*
%TO.C,D1*%
X67965000Y-76785000D02*
X69435000Y-76785000D01*
X69435000Y-76785000D02*
X69435000Y-74500000D01*
X67965000Y-74500000D02*
X67965000Y-76785000D01*
%TO.C,D4*%
X94702500Y-43965000D02*
X94702500Y-45435000D01*
X94702500Y-45435000D02*
X96987500Y-45435000D01*
X96987500Y-43965000D02*
X94702500Y-43965000D01*
%TO.C,C13*%
X94488748Y-70890000D02*
X95911252Y-70890000D01*
X94488748Y-72710000D02*
X95911252Y-72710000D01*
%TO.C,C14*%
X91090000Y-74940580D02*
X91090000Y-74659420D01*
X92110000Y-74940580D02*
X92110000Y-74659420D01*
%TO.C,R5*%
X98777500Y-75537258D02*
X98777500Y-75062742D01*
X99822500Y-75537258D02*
X99822500Y-75062742D01*
%TO.C,J5*%
X104785000Y-61960000D02*
X109145000Y-61960000D01*
X104785000Y-61960000D02*
X104785000Y-59460000D01*
X104785000Y-59460000D02*
X104585000Y-59460000D01*
X104585000Y-58800000D02*
X104585000Y-59460000D01*
X104785000Y-55940000D02*
X104785000Y-53440000D01*
X104785000Y-53440000D02*
X109145000Y-53440000D01*
%TO.C,SW1*%
X63045000Y-53850000D02*
X62255000Y-53850000D01*
X61245000Y-54450000D02*
X61245000Y-60150000D01*
X64095000Y-55700000D02*
X64095000Y-57400000D01*
X61245000Y-55900000D02*
X59955000Y-55900000D01*
X59955000Y-55900000D02*
X59745000Y-56100000D01*
X59745000Y-56100000D02*
X59745000Y-57000000D01*
X59955000Y-57200000D02*
X59745000Y-57000000D01*
X59955000Y-57200000D02*
X61245000Y-57200000D01*
X64095000Y-58700000D02*
X64095000Y-58900000D01*
X62255000Y-60750000D02*
X63045000Y-60750000D01*
%TO.C,U1*%
X72290000Y-63590000D02*
X72290000Y-64540000D01*
X72290000Y-64540000D02*
X70950000Y-64540000D01*
X72290000Y-73810000D02*
X72290000Y-72860000D01*
X73240000Y-63590000D02*
X72290000Y-63590000D01*
X73240000Y-73810000D02*
X72290000Y-73810000D01*
X81560000Y-63590000D02*
X82510000Y-63590000D01*
X81560000Y-73810000D02*
X82510000Y-73810000D01*
X82510000Y-63590000D02*
X82510000Y-64540000D01*
X82510000Y-73810000D02*
X82510000Y-72860000D01*
%TO.C,C7*%
X83340000Y-63007836D02*
X83340000Y-62792164D01*
X84060000Y-63007836D02*
X84060000Y-62792164D01*
%TO.C,R10*%
X76253641Y-57880000D02*
X75946359Y-57880000D01*
X76253641Y-57120000D02*
X75946359Y-57120000D01*
%TO.C,C16*%
X89188748Y-79990000D02*
X90611252Y-79990000D01*
X89188748Y-81810000D02*
X90611252Y-81810000D01*
%TO.C,R1*%
X67063641Y-58480000D02*
X66756359Y-58480000D01*
X67063641Y-57720000D02*
X66756359Y-57720000D01*
%TO.C,C9*%
X68140000Y-70787836D02*
X68140000Y-70572164D01*
X68860000Y-70787836D02*
X68860000Y-70572164D01*
%TO.C,C1*%
X84890000Y-64240580D02*
X84890000Y-63959420D01*
X85910000Y-64240580D02*
X85910000Y-63959420D01*
%TO.C,R3*%
X71222500Y-75062742D02*
X71222500Y-75537258D01*
X70177500Y-75062742D02*
X70177500Y-75537258D01*
%TO.C,C5*%
X74507836Y-76760000D02*
X74292164Y-76760000D01*
X74507836Y-76040000D02*
X74292164Y-76040000D01*
%TO.C,C12*%
X66592164Y-64090000D02*
X66807836Y-64090000D01*
X66592164Y-64810000D02*
X66807836Y-64810000D01*
%TO.C,R8*%
X100577500Y-78837258D02*
X100577500Y-78362742D01*
X101622500Y-78837258D02*
X101622500Y-78362742D01*
%TO.C,R4*%
X98122500Y-75062742D02*
X98122500Y-75537258D01*
X97077500Y-75062742D02*
X97077500Y-75537258D01*
%TO.C,J2*%
X84865000Y-49530000D02*
X84925000Y-49530000D01*
X84865000Y-49530000D02*
X84865000Y-46870000D01*
X91275000Y-49530000D02*
X91335000Y-49530000D01*
X91335000Y-49530000D02*
X91335000Y-46870000D01*
X84865000Y-46870000D02*
X84925000Y-46870000D01*
X84925000Y-46870000D02*
X84925000Y-45410000D01*
X91275000Y-46870000D02*
X91335000Y-46870000D01*
%TO.C,R9*%
X78046359Y-57880000D02*
X78353641Y-57880000D01*
X78046359Y-57120000D02*
X78353641Y-57120000D01*
%TO.C,C3*%
X71015580Y-61310000D02*
X70734420Y-61310000D01*
X71015580Y-60290000D02*
X70734420Y-60290000D01*
%TO.C,R6*%
X97077500Y-78837258D02*
X97077500Y-78362742D01*
X98122500Y-78837258D02*
X98122500Y-78362742D01*
%TO.C,U2*%
X93140000Y-76100000D02*
X93140000Y-77900000D01*
X93140000Y-76100000D02*
X93140000Y-75300000D01*
X96260000Y-76100000D02*
X96260000Y-76900000D01*
X96260000Y-76100000D02*
X96260000Y-75300000D01*
%TO.C,C2*%
X82084420Y-76190000D02*
X82365580Y-76190000D01*
X82084420Y-77210000D02*
X82365580Y-77210000D01*
%TD*%
M02*
