%TF.GenerationSoftware,KiCad,Pcbnew,7.0.7*%
%TF.CreationDate,2023-08-28T01:03:24+03:00*%
%TF.ProjectId,STM32F405_Lesson_1,53544d33-3246-4343-9035-5f4c6573736f,rev?*%
%TF.SameCoordinates,Original*%
%TF.FileFunction,Copper,L4,Bot*%
%TF.FilePolarity,Positive*%
%FSLAX46Y46*%
G04 Gerber Fmt 4.6, Leading zero omitted, Abs format (unit mm)*
G04 Created by KiCad (PCBNEW 7.0.7) date 2023-08-28 01:03:24*
%MOMM*%
%LPD*%
G01*
G04 APERTURE LIST*
G04 Aperture macros list*
%AMRoundRect*
0 Rectangle with rounded corners*
0 $1 Rounding radius*
0 $2 $3 $4 $5 $6 $7 $8 $9 X,Y pos of 4 corners*
0 Add a 4 corners polygon primitive as box body*
4,1,4,$2,$3,$4,$5,$6,$7,$8,$9,$2,$3,0*
0 Add four circle primitives for the rounded corners*
1,1,$1+$1,$2,$3*
1,1,$1+$1,$4,$5*
1,1,$1+$1,$6,$7*
1,1,$1+$1,$8,$9*
0 Add four rect primitives between the rounded corners*
20,1,$1+$1,$2,$3,$4,$5,0*
20,1,$1+$1,$4,$5,$6,$7,0*
20,1,$1+$1,$6,$7,$8,$9,0*
20,1,$1+$1,$8,$9,$2,$3,0*%
G04 Aperture macros list end*
%TA.AperFunction,ComponentPad*%
%ADD10C,0.900000*%
%TD*%
%TA.AperFunction,ComponentPad*%
%ADD11C,8.600000*%
%TD*%
%TA.AperFunction,ComponentPad*%
%ADD12RoundRect,0.250000X1.550000X-0.650000X1.550000X0.650000X-1.550000X0.650000X-1.550000X-0.650000X0*%
%TD*%
%TA.AperFunction,ComponentPad*%
%ADD13O,3.600000X1.800000*%
%TD*%
%TA.AperFunction,ComponentPad*%
%ADD14O,1.600000X0.900000*%
%TD*%
%TA.AperFunction,ViaPad*%
%ADD15C,1.000000*%
%TD*%
%TA.AperFunction,ViaPad*%
%ADD16C,0.800000*%
%TD*%
%TA.AperFunction,Conductor*%
%ADD17C,0.300000*%
%TD*%
G04 APERTURE END LIST*
D10*
%TO.P,H1,1,1*%
%TO.N,GND*%
X101175000Y-46400000D03*
X102119581Y-44119581D03*
X102119581Y-48680419D03*
X104400000Y-43175000D03*
D11*
X104400000Y-46400000D03*
D10*
X104400000Y-49625000D03*
X106680419Y-44119581D03*
X106680419Y-48680419D03*
X107625000Y-46400000D03*
%TD*%
D12*
%TO.P,J1,1,Pin_1*%
%TO.N,+12V*%
X105142500Y-72532500D03*
D13*
%TO.P,J1,2,Pin_2*%
%TO.N,GND*%
X105142500Y-69032500D03*
%TD*%
D10*
%TO.P,H4,1,1*%
%TO.N,GND*%
X62994581Y-86300000D03*
X63939162Y-84019581D03*
X63939162Y-88580419D03*
X66219581Y-83075000D03*
D11*
X66219581Y-86300000D03*
D10*
X66219581Y-89525000D03*
X68500000Y-84019581D03*
X68500000Y-88580419D03*
X69444581Y-86300000D03*
%TD*%
D14*
%TO.P,J5,6,Shield*%
%TO.N,unconnected-(J5-Shield-Pad6)*%
X108195000Y-61000000D03*
X108195000Y-54400000D03*
%TD*%
D10*
%TO.P,H3,1,1*%
%TO.N,GND*%
X62994581Y-46300000D03*
X63939162Y-44019581D03*
X63939162Y-48580419D03*
X66219581Y-43075000D03*
D11*
X66219581Y-46300000D03*
D10*
X66219581Y-49525000D03*
X68500000Y-44019581D03*
X68500000Y-48580419D03*
X69444581Y-46300000D03*
%TD*%
%TO.P,H2,1,1*%
%TO.N,GND*%
X101525000Y-86300000D03*
X102469581Y-84019581D03*
X102469581Y-88580419D03*
X104750000Y-83075000D03*
D11*
X104750000Y-86300000D03*
D10*
X104750000Y-89525000D03*
X107030419Y-84019581D03*
X107030419Y-88580419D03*
X107975000Y-86300000D03*
%TD*%
D15*
%TO.N,GND*%
X75100000Y-48050000D03*
X80250000Y-84650000D03*
%TO.N,+3.3V*%
X75400000Y-84800000D03*
X80000000Y-47900000D03*
%TO.N,GND*%
X100500000Y-55800000D03*
X64100000Y-67650000D03*
X64100000Y-68850000D03*
X68577216Y-65753623D03*
X67150000Y-63650000D03*
X94700000Y-79600000D03*
X99300000Y-67900000D03*
X99300000Y-66850000D03*
X96700000Y-70400000D03*
X97800000Y-71300000D03*
X97750000Y-72450000D03*
X99300000Y-73500000D03*
X102100000Y-77800000D03*
X101100000Y-76850000D03*
X91375000Y-77100000D03*
X92300000Y-77500000D03*
X92550000Y-78900000D03*
X92500000Y-80300000D03*
X91350000Y-82400000D03*
X92450000Y-81750000D03*
X94700000Y-78450000D03*
X91650000Y-70250000D03*
X104200000Y-54050000D03*
X102950000Y-55250000D03*
X104200000Y-55250000D03*
X104200000Y-56400000D03*
X94450000Y-46800000D03*
X90650000Y-44800000D03*
X88100000Y-44800000D03*
X86850000Y-44850000D03*
X85450000Y-62350000D03*
X83700000Y-61600000D03*
X91650000Y-67950000D03*
X83700000Y-74050000D03*
X83000000Y-77700000D03*
X69800000Y-69400000D03*
X68500000Y-69400000D03*
X65400000Y-70100000D03*
X73150000Y-76400000D03*
X70700000Y-73550000D03*
X69800000Y-62950000D03*
X75150000Y-60900000D03*
X65650000Y-59600000D03*
X69175000Y-60800000D03*
%TO.N,+3.3V*%
X97600000Y-80300000D03*
X87400000Y-80400000D03*
X89500000Y-80450000D03*
X89350000Y-81900000D03*
X89450000Y-78900000D03*
X89350000Y-77600000D03*
X87400000Y-78800000D03*
X89600000Y-75900000D03*
X89550000Y-74650000D03*
X86200000Y-74650000D03*
X86200000Y-75800000D03*
X66550000Y-73200000D03*
X66500000Y-71600000D03*
X84200000Y-63950000D03*
X73400000Y-60100000D03*
X69150000Y-64680000D03*
X74900000Y-77200000D03*
X96650000Y-79450000D03*
X87700000Y-81950000D03*
X82200000Y-75450000D03*
X85550000Y-44900000D03*
X97850000Y-44700000D03*
X65650000Y-55050000D03*
X71675000Y-59850000D03*
X74900000Y-57500000D03*
X79450000Y-57450000D03*
D16*
%TO.N,SWDIO*%
X87750000Y-52100000D03*
X85900000Y-52100000D03*
%TO.N,NRST*%
X79200000Y-67950000D03*
X88550000Y-62750000D03*
%TD*%
D17*
%TO.N,SWDIO*%
X87750000Y-52100000D02*
X85900000Y-52100000D01*
%TO.N,NRST*%
X83350000Y-67950000D02*
X88550000Y-62750000D01*
X79200000Y-67950000D02*
X83350000Y-67950000D01*
%TD*%
M02*
