%TF.GenerationSoftware,KiCad,Pcbnew,7.0.7*%
%TF.CreationDate,2023-08-28T01:03:24+03:00*%
%TF.ProjectId,STM32F405_Lesson_1,53544d33-3246-4343-9035-5f4c6573736f,rev?*%
%TF.SameCoordinates,Original*%
%TF.FileFunction,Soldermask,Bot*%
%TF.FilePolarity,Negative*%
%FSLAX46Y46*%
G04 Gerber Fmt 4.6, Leading zero omitted, Abs format (unit mm)*
G04 Created by KiCad (PCBNEW 7.0.7) date 2023-08-28 01:03:24*
%MOMM*%
%LPD*%
G01*
G04 APERTURE LIST*
G04 Aperture macros list*
%AMRoundRect*
0 Rectangle with rounded corners*
0 $1 Rounding radius*
0 $2 $3 $4 $5 $6 $7 $8 $9 X,Y pos of 4 corners*
0 Add a 4 corners polygon primitive as box body*
4,1,4,$2,$3,$4,$5,$6,$7,$8,$9,$2,$3,0*
0 Add four circle primitives for the rounded corners*
1,1,$1+$1,$2,$3*
1,1,$1+$1,$4,$5*
1,1,$1+$1,$6,$7*
1,1,$1+$1,$8,$9*
0 Add four rect primitives between the rounded corners*
20,1,$1+$1,$2,$3,$4,$5,0*
20,1,$1+$1,$4,$5,$6,$7,0*
20,1,$1+$1,$6,$7,$8,$9,0*
20,1,$1+$1,$8,$9,$2,$3,0*%
G04 Aperture macros list end*
%ADD10C,0.900000*%
%ADD11C,8.600000*%
%ADD12RoundRect,0.250000X1.550000X-0.650000X1.550000X0.650000X-1.550000X0.650000X-1.550000X-0.650000X0*%
%ADD13O,3.600000X1.800000*%
%ADD14O,1.600000X0.900000*%
G04 APERTURE END LIST*
D10*
%TO.C,H1*%
X101175000Y-46400000D03*
X102119581Y-44119581D03*
X102119581Y-48680419D03*
X104400000Y-43175000D03*
D11*
X104400000Y-46400000D03*
D10*
X104400000Y-49625000D03*
X106680419Y-44119581D03*
X106680419Y-48680419D03*
X107625000Y-46400000D03*
%TD*%
D12*
%TO.C,J1*%
X105142500Y-72532500D03*
D13*
X105142500Y-69032500D03*
%TD*%
D10*
%TO.C,H4*%
X62994581Y-86300000D03*
X63939162Y-84019581D03*
X63939162Y-88580419D03*
X66219581Y-83075000D03*
D11*
X66219581Y-86300000D03*
D10*
X66219581Y-89525000D03*
X68500000Y-84019581D03*
X68500000Y-88580419D03*
X69444581Y-86300000D03*
%TD*%
D14*
%TO.C,J5*%
X108195000Y-61000000D03*
X108195000Y-54400000D03*
%TD*%
D10*
%TO.C,SW1*%
X62645000Y-55800000D03*
X62645000Y-58800000D03*
%TD*%
%TO.C,H3*%
X62994581Y-46300000D03*
X63939162Y-44019581D03*
X63939162Y-48580419D03*
X66219581Y-43075000D03*
D11*
X66219581Y-46300000D03*
D10*
X66219581Y-49525000D03*
X68500000Y-44019581D03*
X68500000Y-48580419D03*
X69444581Y-46300000D03*
%TD*%
%TO.C,H2*%
X101525000Y-86300000D03*
X102469581Y-84019581D03*
X102469581Y-88580419D03*
X104750000Y-83075000D03*
D11*
X104750000Y-86300000D03*
D10*
X104750000Y-89525000D03*
X107030419Y-84019581D03*
X107030419Y-88580419D03*
X107975000Y-86300000D03*
%TD*%
M02*
