M48
; DRILL file {KiCad 7.0.7} date Mon Aug 28 01:02:44 2023
; FORMAT={-:-/ absolute / metric / decimal}
; #@! TF.CreationDate,2023-08-28T01:02:44+03:00
; #@! TF.GenerationSoftware,Kicad,Pcbnew,7.0.7
; #@! TF.FileFunction,Plated,1,4,PTH
FMAT,2
METRIC
; #@! TA.AperFunction,Plated,PTH,ViaDrill
T1C0.400
; #@! TA.AperFunction,Plated,PTH,ComponentDrill
T2C0.500
; #@! TA.AperFunction,Plated,PTH,ViaDrill
T3C0.600
; #@! TA.AperFunction,Plated,PTH,ComponentDrill
T4C0.600
; #@! TA.AperFunction,Plated,PTH,ComponentDrill
T5C1.200
; #@! TA.AperFunction,Plated,PTH,ComponentDrill
T6C4.300
%
G90
G05
T1
X79.2Y-67.95
X85.9Y-52.1
X87.75Y-52.1
X88.55Y-62.75
T3
X64.1Y-67.65
X64.1Y-68.85
X65.4Y-70.1
X65.65Y-55.05
X65.65Y-59.6
X66.5Y-71.6
X66.55Y-73.2
X67.15Y-63.65
X68.5Y-69.4
X68.577Y-65.754
X69.15Y-64.68
X69.175Y-60.8
X69.8Y-62.95
X69.8Y-69.4
X70.7Y-73.55
X71.675Y-59.85
X73.15Y-76.4
X73.4Y-60.1
X74.9Y-57.5
X74.9Y-77.2
X75.1Y-48.05
X75.15Y-60.9
X75.4Y-84.8
X79.45Y-57.45
X80.0Y-47.9
X80.25Y-84.65
X82.2Y-75.45
X83.0Y-77.7
X83.7Y-61.6
X83.7Y-74.05
X84.2Y-63.95
X85.45Y-62.35
X85.55Y-44.9
X86.2Y-74.65
X86.2Y-75.8
X86.85Y-44.85
X87.4Y-78.8
X87.4Y-80.4
X87.7Y-81.95
X88.1Y-44.8
X89.35Y-77.6
X89.35Y-81.9
X89.45Y-78.9
X89.5Y-80.45
X89.55Y-74.65
X89.6Y-75.9
X90.65Y-44.8
X91.35Y-82.4
X91.375Y-77.1
X91.65Y-67.95
X91.65Y-70.25
X92.3Y-77.5
X92.45Y-81.75
X92.5Y-80.3
X92.55Y-78.9
X94.45Y-46.8
X94.7Y-78.45
X94.7Y-79.6
X96.65Y-79.45
X96.7Y-70.4
X97.6Y-80.3
X97.75Y-72.45
X97.8Y-71.3
X97.85Y-44.7
X99.3Y-66.85
X99.3Y-67.9
X99.3Y-73.5
X100.5Y-55.8
X101.1Y-76.85
X102.1Y-77.8
X102.95Y-55.25
X104.2Y-54.05
X104.2Y-55.25
X104.2Y-56.4
T4
X62.995Y-46.3
X62.995Y-86.3
X63.939Y-44.02
X63.939Y-48.58
X63.939Y-84.02
X63.939Y-88.58
X66.22Y-43.075
X66.22Y-49.525
X66.22Y-83.075
X66.22Y-89.525
X68.5Y-44.02
X68.5Y-48.58
X68.5Y-84.02
X68.5Y-88.58
X69.445Y-46.3
X69.445Y-86.3
X101.175Y-46.4
X101.525Y-86.3
X102.12Y-44.12
X102.12Y-48.68
X102.47Y-84.02
X102.47Y-88.58
X104.4Y-43.175
X104.4Y-49.625
X104.75Y-83.075
X104.75Y-89.525
X106.68Y-44.12
X106.68Y-48.68
X107.03Y-84.02
X107.03Y-88.58
X107.625Y-46.4
X107.975Y-86.3
T5
X105.142Y-69.032
X105.142Y-72.532
T6
X66.22Y-46.3
X66.22Y-86.3
X104.4Y-46.4
X104.75Y-86.3
T2
G00X108.545Y-54.4
M15
G01X107.845Y-54.4
M16
G05
G00X108.545Y-61.0
M15
G01X107.845Y-61.0
M16
G05
T0
M30
