%TF.GenerationSoftware,KiCad,Pcbnew,7.0.7*%
%TF.CreationDate,2023-08-28T01:03:24+03:00*%
%TF.ProjectId,STM32F405_Lesson_1,53544d33-3246-4343-9035-5f4c6573736f,rev?*%
%TF.SameCoordinates,Original*%
%TF.FileFunction,Paste,Top*%
%TF.FilePolarity,Positive*%
%FSLAX46Y46*%
G04 Gerber Fmt 4.6, Leading zero omitted, Abs format (unit mm)*
G04 Created by KiCad (PCBNEW 7.0.7) date 2023-08-28 01:03:24*
%MOMM*%
%LPD*%
G01*
G04 APERTURE LIST*
G04 Aperture macros list*
%AMRoundRect*
0 Rectangle with rounded corners*
0 $1 Rounding radius*
0 $2 $3 $4 $5 $6 $7 $8 $9 X,Y pos of 4 corners*
0 Add a 4 corners polygon primitive as box body*
4,1,4,$2,$3,$4,$5,$6,$7,$8,$9,$2,$3,0*
0 Add four circle primitives for the rounded corners*
1,1,$1+$1,$2,$3*
1,1,$1+$1,$4,$5*
1,1,$1+$1,$6,$7*
1,1,$1+$1,$8,$9*
0 Add four rect primitives between the rounded corners*
20,1,$1+$1,$2,$3,$4,$5,0*
20,1,$1+$1,$4,$5,$6,$7,0*
20,1,$1+$1,$6,$7,$8,$9,0*
20,1,$1+$1,$8,$9,$2,$3,0*%
G04 Aperture macros list end*
%ADD10RoundRect,0.200000X-0.200000X-0.600000X0.200000X-0.600000X0.200000X0.600000X-0.200000X0.600000X0*%
%ADD11RoundRect,0.250001X-0.799999X-1.249999X0.799999X-1.249999X0.799999X1.249999X-0.799999X1.249999X0*%
%ADD12RoundRect,0.200000X0.200000X0.600000X-0.200000X0.600000X-0.200000X-0.600000X0.200000X-0.600000X0*%
%ADD13RoundRect,0.250001X0.799999X1.249999X-0.799999X1.249999X-0.799999X-1.249999X0.799999X-1.249999X0*%
%ADD14RoundRect,0.200000X-0.200000X-0.275000X0.200000X-0.275000X0.200000X0.275000X-0.200000X0.275000X0*%
%ADD15R,1.200000X1.400000*%
%ADD16RoundRect,0.140000X-0.140000X-0.170000X0.140000X-0.170000X0.140000X0.170000X-0.140000X0.170000X0*%
%ADD17RoundRect,0.140000X0.140000X0.170000X-0.140000X0.170000X-0.140000X-0.170000X0.140000X-0.170000X0*%
%ADD18RoundRect,0.250000X0.375000X0.625000X-0.375000X0.625000X-0.375000X-0.625000X0.375000X-0.625000X0*%
%ADD19RoundRect,0.225000X-0.225000X-0.375000X0.225000X-0.375000X0.225000X0.375000X-0.225000X0.375000X0*%
%ADD20RoundRect,0.150000X-0.150000X0.587500X-0.150000X-0.587500X0.150000X-0.587500X0.150000X0.587500X0*%
%ADD21RoundRect,0.200000X-0.275000X0.200000X-0.275000X-0.200000X0.275000X-0.200000X0.275000X0.200000X0*%
%ADD22R,2.500000X1.500000*%
%ADD23RoundRect,0.218750X-0.381250X0.218750X-0.381250X-0.218750X0.381250X-0.218750X0.381250X0.218750X0*%
%ADD24RoundRect,0.250000X-0.325000X-0.650000X0.325000X-0.650000X0.325000X0.650000X-0.325000X0.650000X0*%
%ADD25RoundRect,0.150000X0.512500X0.150000X-0.512500X0.150000X-0.512500X-0.150000X0.512500X-0.150000X0*%
%ADD26RoundRect,0.140000X0.170000X-0.140000X0.170000X0.140000X-0.170000X0.140000X-0.170000X-0.140000X0*%
%ADD27RoundRect,0.135000X0.135000X0.185000X-0.135000X0.185000X-0.135000X-0.185000X0.135000X-0.185000X0*%
%ADD28RoundRect,0.218750X0.256250X-0.218750X0.256250X0.218750X-0.256250X0.218750X-0.256250X-0.218750X0*%
%ADD29RoundRect,0.218750X-0.218750X-0.256250X0.218750X-0.256250X0.218750X0.256250X-0.218750X0.256250X0*%
%ADD30RoundRect,0.225000X0.250000X-0.225000X0.250000X0.225000X-0.250000X0.225000X-0.250000X-0.225000X0*%
%ADD31RoundRect,0.200000X0.275000X-0.200000X0.275000X0.200000X-0.275000X0.200000X-0.275000X-0.200000X0*%
%ADD32RoundRect,0.100000X0.575000X-0.100000X0.575000X0.100000X-0.575000X0.100000X-0.575000X-0.100000X0*%
%ADD33O,1.600000X0.900000*%
%ADD34RoundRect,0.250000X0.450000X-0.550000X0.450000X0.550000X-0.450000X0.550000X-0.450000X-0.550000X0*%
%ADD35RoundRect,0.250000X0.700000X-0.700000X0.700000X0.700000X-0.700000X0.700000X-0.700000X-0.700000X0*%
%ADD36R,0.800000X1.000000*%
%ADD37R,1.500000X0.700000*%
%ADD38RoundRect,0.075000X-0.700000X-0.075000X0.700000X-0.075000X0.700000X0.075000X-0.700000X0.075000X0*%
%ADD39RoundRect,0.075000X-0.075000X-0.700000X0.075000X-0.700000X0.075000X0.700000X-0.075000X0.700000X0*%
%ADD40RoundRect,0.147500X-0.147500X-0.172500X0.147500X-0.172500X0.147500X0.172500X-0.147500X0.172500X0*%
%ADD41R,0.750000X2.100000*%
%ADD42RoundRect,0.135000X-0.135000X-0.185000X0.135000X-0.185000X0.135000X0.185000X-0.135000X0.185000X0*%
%ADD43RoundRect,0.225000X0.225000X0.250000X-0.225000X0.250000X-0.225000X-0.250000X0.225000X-0.250000X0*%
%ADD44RoundRect,0.150000X0.150000X-0.512500X0.150000X0.512500X-0.150000X0.512500X-0.150000X-0.512500X0*%
%ADD45RoundRect,0.225000X-0.225000X-0.250000X0.225000X-0.250000X0.225000X0.250000X-0.225000X0.250000X0*%
G04 APERTURE END LIST*
D10*
%TO.C,J4*%
X75925000Y-86350000D03*
X77175000Y-86350000D03*
X78425000Y-86350000D03*
X79675000Y-86350000D03*
D11*
X73375000Y-89250000D03*
X82225000Y-89250000D03*
%TD*%
D12*
%TO.C,J3*%
X79525000Y-46350000D03*
X78275000Y-46350000D03*
X77025000Y-46350000D03*
X75775000Y-46350000D03*
D13*
X82075000Y-43450000D03*
X73225000Y-43450000D03*
%TD*%
D14*
%TO.C,R11*%
X95350000Y-46800000D03*
X97000000Y-46800000D03*
%TD*%
D15*
%TO.C,Y1*%
X65550000Y-66100000D03*
X65550000Y-68300000D03*
X67250000Y-68300000D03*
X67250000Y-66100000D03*
%TD*%
D16*
%TO.C,C8*%
X73440000Y-60900000D03*
X74400000Y-60900000D03*
%TD*%
%TO.C,C6*%
X82740000Y-74900000D03*
X83700000Y-74900000D03*
%TD*%
D17*
%TO.C,C11*%
X67200000Y-70000000D03*
X66240000Y-70000000D03*
%TD*%
D18*
%TO.C,F1*%
X96400000Y-64300000D03*
X93600000Y-64300000D03*
%TD*%
D19*
%TO.C,D5*%
X88350000Y-69100000D03*
X91650000Y-69100000D03*
%TD*%
D20*
%TO.C,Q1*%
X98450000Y-67262500D03*
X96550000Y-67262500D03*
X97500000Y-69137500D03*
%TD*%
D21*
%TO.C,R7*%
X99300000Y-77775000D03*
X99300000Y-79425000D03*
%TD*%
D19*
%TO.C,D2*%
X99050000Y-64200000D03*
X102350000Y-64200000D03*
%TD*%
D22*
%TO.C,L2*%
X87900000Y-71750000D03*
X87900000Y-75450000D03*
%TD*%
D23*
%TO.C,FB1*%
X93700000Y-67237500D03*
X93700000Y-69362500D03*
%TD*%
D24*
%TO.C,C15*%
X88425000Y-78200000D03*
X91375000Y-78200000D03*
%TD*%
D25*
%TO.C,U3*%
X101637500Y-58750000D03*
X101637500Y-57800000D03*
X101637500Y-56850000D03*
X99362500Y-56850000D03*
X99362500Y-57800000D03*
X99362500Y-58750000D03*
%TD*%
D26*
%TO.C,C4*%
X69800000Y-64680000D03*
X69800000Y-63720000D03*
%TD*%
%TO.C,C10*%
X69800000Y-71160000D03*
X69800000Y-70200000D03*
%TD*%
D27*
%TO.C,R2*%
X69900000Y-67500000D03*
X68880000Y-67500000D03*
%TD*%
D28*
%TO.C,D1*%
X68700000Y-76087500D03*
X68700000Y-74512500D03*
%TD*%
D29*
%TO.C,D4*%
X95400000Y-44700000D03*
X96975000Y-44700000D03*
%TD*%
D24*
%TO.C,C13*%
X93725000Y-71800000D03*
X96675000Y-71800000D03*
%TD*%
D30*
%TO.C,C14*%
X91600000Y-75575000D03*
X91600000Y-74025000D03*
%TD*%
D31*
%TO.C,R5*%
X99300000Y-76125000D03*
X99300000Y-74475000D03*
%TD*%
D32*
%TO.C,J5*%
X105520000Y-59000000D03*
X105520000Y-58350000D03*
X105520000Y-57700000D03*
X105520000Y-57050000D03*
X105520000Y-56400000D03*
D33*
X108195000Y-61000000D03*
D34*
X105745000Y-60900000D03*
D35*
X108195000Y-58900000D03*
X108195000Y-56500000D03*
D34*
X105745000Y-54500000D03*
D33*
X108195000Y-54400000D03*
%TD*%
D36*
%TO.C,SW1*%
X63755000Y-53650000D03*
X61545000Y-53650000D03*
X63755000Y-60950000D03*
X61545000Y-60950000D03*
D37*
X64405000Y-55050000D03*
X64405000Y-58050000D03*
X64405000Y-59550000D03*
%TD*%
D38*
%TO.C,U1*%
X71725000Y-64950000D03*
X71725000Y-65450000D03*
X71725000Y-65950000D03*
X71725000Y-66450000D03*
X71725000Y-66950000D03*
X71725000Y-67450000D03*
X71725000Y-67950000D03*
X71725000Y-68450000D03*
X71725000Y-68950000D03*
X71725000Y-69450000D03*
X71725000Y-69950000D03*
X71725000Y-70450000D03*
X71725000Y-70950000D03*
X71725000Y-71450000D03*
X71725000Y-71950000D03*
X71725000Y-72450000D03*
D39*
X73650000Y-74375000D03*
X74150000Y-74375000D03*
X74650000Y-74375000D03*
X75150000Y-74375000D03*
X75650000Y-74375000D03*
X76150000Y-74375000D03*
X76650000Y-74375000D03*
X77150000Y-74375000D03*
X77650000Y-74375000D03*
X78150000Y-74375000D03*
X78650000Y-74375000D03*
X79150000Y-74375000D03*
X79650000Y-74375000D03*
X80150000Y-74375000D03*
X80650000Y-74375000D03*
X81150000Y-74375000D03*
D38*
X83075000Y-72450000D03*
X83075000Y-71950000D03*
X83075000Y-71450000D03*
X83075000Y-70950000D03*
X83075000Y-70450000D03*
X83075000Y-69950000D03*
X83075000Y-69450000D03*
X83075000Y-68950000D03*
X83075000Y-68450000D03*
X83075000Y-67950000D03*
X83075000Y-67450000D03*
X83075000Y-66950000D03*
X83075000Y-66450000D03*
X83075000Y-65950000D03*
X83075000Y-65450000D03*
X83075000Y-64950000D03*
D39*
X81150000Y-63025000D03*
X80650000Y-63025000D03*
X80150000Y-63025000D03*
X79650000Y-63025000D03*
X79150000Y-63025000D03*
X78650000Y-63025000D03*
X78150000Y-63025000D03*
X77650000Y-63025000D03*
X77150000Y-63025000D03*
X76650000Y-63025000D03*
X76150000Y-63025000D03*
X75650000Y-63025000D03*
X75150000Y-63025000D03*
X74650000Y-63025000D03*
X74150000Y-63025000D03*
X73650000Y-63025000D03*
%TD*%
D26*
%TO.C,C7*%
X83700000Y-63380000D03*
X83700000Y-62420000D03*
%TD*%
D40*
%TO.C,L1*%
X66530000Y-72400000D03*
X67500000Y-72400000D03*
%TD*%
D27*
%TO.C,R10*%
X76610000Y-57500000D03*
X75590000Y-57500000D03*
%TD*%
D24*
%TO.C,C16*%
X88425000Y-80900000D03*
X91375000Y-80900000D03*
%TD*%
D27*
%TO.C,R1*%
X67420000Y-58100000D03*
X66400000Y-58100000D03*
%TD*%
D26*
%TO.C,C9*%
X68500000Y-71160000D03*
X68500000Y-70200000D03*
%TD*%
D30*
%TO.C,C1*%
X85400000Y-64875000D03*
X85400000Y-63325000D03*
%TD*%
D21*
%TO.C,R3*%
X70700000Y-74475000D03*
X70700000Y-76125000D03*
%TD*%
D17*
%TO.C,C5*%
X74880000Y-76400000D03*
X73920000Y-76400000D03*
%TD*%
D16*
%TO.C,C12*%
X66220000Y-64450000D03*
X67180000Y-64450000D03*
%TD*%
D31*
%TO.C,R8*%
X101100000Y-79425000D03*
X101100000Y-77775000D03*
%TD*%
D21*
%TO.C,R4*%
X97600000Y-74475000D03*
X97600000Y-76125000D03*
%TD*%
D41*
%TO.C,J2*%
X85560000Y-46400000D03*
X85560000Y-50000000D03*
X86830000Y-46400000D03*
X86830000Y-50000000D03*
X88100000Y-46400000D03*
X88100000Y-50000000D03*
X89370000Y-46400000D03*
X89370000Y-50000000D03*
X90640000Y-46400000D03*
X90640000Y-50000000D03*
%TD*%
D42*
%TO.C,R9*%
X78710000Y-57500000D03*
X77690000Y-57500000D03*
%TD*%
D43*
%TO.C,C3*%
X71650000Y-60800000D03*
X70100000Y-60800000D03*
%TD*%
D31*
%TO.C,R6*%
X97600000Y-79425000D03*
X97600000Y-77775000D03*
%TD*%
D44*
%TO.C,U2*%
X93750000Y-77237500D03*
X94700000Y-77237500D03*
X95650000Y-77237500D03*
X95650000Y-74962500D03*
X94700000Y-74962500D03*
X93750000Y-74962500D03*
%TD*%
D45*
%TO.C,C2*%
X81450000Y-76700000D03*
X83000000Y-76700000D03*
%TD*%
M02*
