%TF.GenerationSoftware,KiCad,Pcbnew,7.0.7*%
%TF.CreationDate,2023-08-28T01:03:24+03:00*%
%TF.ProjectId,STM32F405_Lesson_1,53544d33-3246-4343-9035-5f4c6573736f,rev?*%
%TF.SameCoordinates,Original*%
%TF.FileFunction,Copper,L1,Top*%
%TF.FilePolarity,Positive*%
%FSLAX46Y46*%
G04 Gerber Fmt 4.6, Leading zero omitted, Abs format (unit mm)*
G04 Created by KiCad (PCBNEW 7.0.7) date 2023-08-28 01:03:24*
%MOMM*%
%LPD*%
G01*
G04 APERTURE LIST*
G04 Aperture macros list*
%AMRoundRect*
0 Rectangle with rounded corners*
0 $1 Rounding radius*
0 $2 $3 $4 $5 $6 $7 $8 $9 X,Y pos of 4 corners*
0 Add a 4 corners polygon primitive as box body*
4,1,4,$2,$3,$4,$5,$6,$7,$8,$9,$2,$3,0*
0 Add four circle primitives for the rounded corners*
1,1,$1+$1,$2,$3*
1,1,$1+$1,$4,$5*
1,1,$1+$1,$6,$7*
1,1,$1+$1,$8,$9*
0 Add four rect primitives between the rounded corners*
20,1,$1+$1,$2,$3,$4,$5,0*
20,1,$1+$1,$4,$5,$6,$7,0*
20,1,$1+$1,$6,$7,$8,$9,0*
20,1,$1+$1,$8,$9,$2,$3,0*%
G04 Aperture macros list end*
%TA.AperFunction,SMDPad,CuDef*%
%ADD10RoundRect,0.200000X-0.200000X-0.600000X0.200000X-0.600000X0.200000X0.600000X-0.200000X0.600000X0*%
%TD*%
%TA.AperFunction,SMDPad,CuDef*%
%ADD11RoundRect,0.250001X-0.799999X-1.249999X0.799999X-1.249999X0.799999X1.249999X-0.799999X1.249999X0*%
%TD*%
%TA.AperFunction,SMDPad,CuDef*%
%ADD12RoundRect,0.200000X0.200000X0.600000X-0.200000X0.600000X-0.200000X-0.600000X0.200000X-0.600000X0*%
%TD*%
%TA.AperFunction,SMDPad,CuDef*%
%ADD13RoundRect,0.250001X0.799999X1.249999X-0.799999X1.249999X-0.799999X-1.249999X0.799999X-1.249999X0*%
%TD*%
%TA.AperFunction,SMDPad,CuDef*%
%ADD14RoundRect,0.200000X-0.200000X-0.275000X0.200000X-0.275000X0.200000X0.275000X-0.200000X0.275000X0*%
%TD*%
%TA.AperFunction,SMDPad,CuDef*%
%ADD15R,1.200000X1.400000*%
%TD*%
%TA.AperFunction,SMDPad,CuDef*%
%ADD16RoundRect,0.140000X-0.140000X-0.170000X0.140000X-0.170000X0.140000X0.170000X-0.140000X0.170000X0*%
%TD*%
%TA.AperFunction,SMDPad,CuDef*%
%ADD17RoundRect,0.140000X0.140000X0.170000X-0.140000X0.170000X-0.140000X-0.170000X0.140000X-0.170000X0*%
%TD*%
%TA.AperFunction,SMDPad,CuDef*%
%ADD18RoundRect,0.250000X0.375000X0.625000X-0.375000X0.625000X-0.375000X-0.625000X0.375000X-0.625000X0*%
%TD*%
%TA.AperFunction,SMDPad,CuDef*%
%ADD19RoundRect,0.225000X-0.225000X-0.375000X0.225000X-0.375000X0.225000X0.375000X-0.225000X0.375000X0*%
%TD*%
%TA.AperFunction,SMDPad,CuDef*%
%ADD20RoundRect,0.150000X-0.150000X0.587500X-0.150000X-0.587500X0.150000X-0.587500X0.150000X0.587500X0*%
%TD*%
%TA.AperFunction,SMDPad,CuDef*%
%ADD21RoundRect,0.200000X-0.275000X0.200000X-0.275000X-0.200000X0.275000X-0.200000X0.275000X0.200000X0*%
%TD*%
%TA.AperFunction,ComponentPad*%
%ADD22C,0.900000*%
%TD*%
%TA.AperFunction,ComponentPad*%
%ADD23C,8.600000*%
%TD*%
%TA.AperFunction,SMDPad,CuDef*%
%ADD24R,2.500000X1.500000*%
%TD*%
%TA.AperFunction,ComponentPad*%
%ADD25RoundRect,0.250000X1.550000X-0.650000X1.550000X0.650000X-1.550000X0.650000X-1.550000X-0.650000X0*%
%TD*%
%TA.AperFunction,ComponentPad*%
%ADD26O,3.600000X1.800000*%
%TD*%
%TA.AperFunction,SMDPad,CuDef*%
%ADD27RoundRect,0.218750X-0.381250X0.218750X-0.381250X-0.218750X0.381250X-0.218750X0.381250X0.218750X0*%
%TD*%
%TA.AperFunction,SMDPad,CuDef*%
%ADD28RoundRect,0.250000X-0.325000X-0.650000X0.325000X-0.650000X0.325000X0.650000X-0.325000X0.650000X0*%
%TD*%
%TA.AperFunction,SMDPad,CuDef*%
%ADD29RoundRect,0.150000X0.512500X0.150000X-0.512500X0.150000X-0.512500X-0.150000X0.512500X-0.150000X0*%
%TD*%
%TA.AperFunction,SMDPad,CuDef*%
%ADD30RoundRect,0.140000X0.170000X-0.140000X0.170000X0.140000X-0.170000X0.140000X-0.170000X-0.140000X0*%
%TD*%
%TA.AperFunction,SMDPad,CuDef*%
%ADD31RoundRect,0.135000X0.135000X0.185000X-0.135000X0.185000X-0.135000X-0.185000X0.135000X-0.185000X0*%
%TD*%
%TA.AperFunction,SMDPad,CuDef*%
%ADD32RoundRect,0.218750X0.256250X-0.218750X0.256250X0.218750X-0.256250X0.218750X-0.256250X-0.218750X0*%
%TD*%
%TA.AperFunction,SMDPad,CuDef*%
%ADD33RoundRect,0.218750X-0.218750X-0.256250X0.218750X-0.256250X0.218750X0.256250X-0.218750X0.256250X0*%
%TD*%
%TA.AperFunction,SMDPad,CuDef*%
%ADD34RoundRect,0.225000X0.250000X-0.225000X0.250000X0.225000X-0.250000X0.225000X-0.250000X-0.225000X0*%
%TD*%
%TA.AperFunction,SMDPad,CuDef*%
%ADD35RoundRect,0.200000X0.275000X-0.200000X0.275000X0.200000X-0.275000X0.200000X-0.275000X-0.200000X0*%
%TD*%
%TA.AperFunction,SMDPad,CuDef*%
%ADD36RoundRect,0.100000X0.575000X-0.100000X0.575000X0.100000X-0.575000X0.100000X-0.575000X-0.100000X0*%
%TD*%
%TA.AperFunction,ComponentPad*%
%ADD37O,1.600000X0.900000*%
%TD*%
%TA.AperFunction,SMDPad,CuDef*%
%ADD38RoundRect,0.250000X0.450000X-0.550000X0.450000X0.550000X-0.450000X0.550000X-0.450000X-0.550000X0*%
%TD*%
%TA.AperFunction,SMDPad,CuDef*%
%ADD39RoundRect,0.250000X0.700000X-0.700000X0.700000X0.700000X-0.700000X0.700000X-0.700000X-0.700000X0*%
%TD*%
%TA.AperFunction,SMDPad,CuDef*%
%ADD40R,0.800000X1.000000*%
%TD*%
%TA.AperFunction,SMDPad,CuDef*%
%ADD41R,1.500000X0.700000*%
%TD*%
%TA.AperFunction,SMDPad,CuDef*%
%ADD42RoundRect,0.075000X-0.700000X-0.075000X0.700000X-0.075000X0.700000X0.075000X-0.700000X0.075000X0*%
%TD*%
%TA.AperFunction,SMDPad,CuDef*%
%ADD43RoundRect,0.075000X-0.075000X-0.700000X0.075000X-0.700000X0.075000X0.700000X-0.075000X0.700000X0*%
%TD*%
%TA.AperFunction,SMDPad,CuDef*%
%ADD44RoundRect,0.147500X-0.147500X-0.172500X0.147500X-0.172500X0.147500X0.172500X-0.147500X0.172500X0*%
%TD*%
%TA.AperFunction,SMDPad,CuDef*%
%ADD45R,0.750000X2.100000*%
%TD*%
%TA.AperFunction,SMDPad,CuDef*%
%ADD46RoundRect,0.135000X-0.135000X-0.185000X0.135000X-0.185000X0.135000X0.185000X-0.135000X0.185000X0*%
%TD*%
%TA.AperFunction,SMDPad,CuDef*%
%ADD47RoundRect,0.225000X0.225000X0.250000X-0.225000X0.250000X-0.225000X-0.250000X0.225000X-0.250000X0*%
%TD*%
%TA.AperFunction,SMDPad,CuDef*%
%ADD48RoundRect,0.150000X0.150000X-0.512500X0.150000X0.512500X-0.150000X0.512500X-0.150000X-0.512500X0*%
%TD*%
%TA.AperFunction,SMDPad,CuDef*%
%ADD49RoundRect,0.225000X-0.225000X-0.250000X0.225000X-0.250000X0.225000X0.250000X-0.225000X0.250000X0*%
%TD*%
%TA.AperFunction,ViaPad*%
%ADD50C,1.000000*%
%TD*%
%TA.AperFunction,ViaPad*%
%ADD51C,0.800000*%
%TD*%
%TA.AperFunction,Conductor*%
%ADD52C,0.300000*%
%TD*%
%TA.AperFunction,Conductor*%
%ADD53C,0.700000*%
%TD*%
%TA.AperFunction,Conductor*%
%ADD54C,0.500000*%
%TD*%
%TA.AperFunction,Conductor*%
%ADD55C,1.000000*%
%TD*%
%TA.AperFunction,Conductor*%
%ADD56C,0.400000*%
%TD*%
%TA.AperFunction,Conductor*%
%ADD57C,0.261112*%
%TD*%
G04 APERTURE END LIST*
D10*
%TO.P,J4,1,Pin_1*%
%TO.N,+3.3V*%
X75925000Y-86350000D03*
%TO.P,J4,2,Pin_2*%
%TO.N,UART3_TX*%
X77175000Y-86350000D03*
%TO.P,J4,3,Pin_3*%
%TO.N,UART3_RX*%
X78425000Y-86350000D03*
%TO.P,J4,4,Pin_4*%
%TO.N,GND*%
X79675000Y-86350000D03*
D11*
%TO.P,J4,MP*%
%TO.N,N/C*%
X73375000Y-89250000D03*
X82225000Y-89250000D03*
%TD*%
D12*
%TO.P,J3,1,Pin_1*%
%TO.N,+3.3V*%
X79525000Y-46350000D03*
%TO.P,J3,2,Pin_2*%
%TO.N,I2C1_SCL*%
X78275000Y-46350000D03*
%TO.P,J3,3,Pin_3*%
%TO.N,I2C1_SDA*%
X77025000Y-46350000D03*
%TO.P,J3,4,Pin_4*%
%TO.N,GND*%
X75775000Y-46350000D03*
D13*
%TO.P,J3,MP*%
%TO.N,N/C*%
X82075000Y-43450000D03*
X73225000Y-43450000D03*
%TD*%
D14*
%TO.P,R11,1*%
%TO.N,GND*%
X95350000Y-46800000D03*
%TO.P,R11,2*%
%TO.N,Net-(D4-K)*%
X97000000Y-46800000D03*
%TD*%
D15*
%TO.P,Y1,1,1*%
%TO.N,HSE_IN*%
X65550000Y-66100000D03*
%TO.P,Y1,2,2*%
%TO.N,GND*%
X65550000Y-68300000D03*
%TO.P,Y1,3,3*%
%TO.N,Net-(C11-Pad1)*%
X67250000Y-68300000D03*
%TO.P,Y1,4,4*%
%TO.N,GND*%
X67250000Y-66100000D03*
%TD*%
D16*
%TO.P,C8,1*%
%TO.N,+3.3V*%
X73440000Y-60900000D03*
%TO.P,C8,2*%
%TO.N,GND*%
X74400000Y-60900000D03*
%TD*%
%TO.P,C6,1*%
%TO.N,+3.3V*%
X82740000Y-74900000D03*
%TO.P,C6,2*%
%TO.N,GND*%
X83700000Y-74900000D03*
%TD*%
D17*
%TO.P,C11,1*%
%TO.N,Net-(C11-Pad1)*%
X67200000Y-70000000D03*
%TO.P,C11,2*%
%TO.N,GND*%
X66240000Y-70000000D03*
%TD*%
D18*
%TO.P,F1,1*%
%TO.N,Net-(D2-K)*%
X96400000Y-64300000D03*
%TO.P,F1,2*%
%TO.N,Net-(F1-Pad2)*%
X93600000Y-64300000D03*
%TD*%
D19*
%TO.P,D5,1,K*%
%TO.N,BUCK_SW*%
X88350000Y-69100000D03*
%TO.P,D5,2,A*%
%TO.N,GND*%
X91650000Y-69100000D03*
%TD*%
D20*
%TO.P,Q1,1,G*%
%TO.N,GND*%
X98450000Y-67262500D03*
%TO.P,Q1,2,S*%
%TO.N,Net-(D2-K)*%
X96550000Y-67262500D03*
%TO.P,Q1,3,D*%
%TO.N,+12V*%
X97500000Y-69137500D03*
%TD*%
D21*
%TO.P,R7,1*%
%TO.N,BUCK_FB*%
X99300000Y-77775000D03*
%TO.P,R7,2*%
%TO.N,Net-(R7-Pad2)*%
X99300000Y-79425000D03*
%TD*%
D22*
%TO.P,H1,1,1*%
%TO.N,GND*%
X101175000Y-46400000D03*
X102119581Y-44119581D03*
X102119581Y-48680419D03*
X104400000Y-43175000D03*
D23*
X104400000Y-46400000D03*
D22*
X104400000Y-49625000D03*
X106680419Y-44119581D03*
X106680419Y-48680419D03*
X107625000Y-46400000D03*
%TD*%
D19*
%TO.P,D2,1,K*%
%TO.N,Net-(D2-K)*%
X99050000Y-64200000D03*
%TO.P,D2,2,A*%
%TO.N,+5V*%
X102350000Y-64200000D03*
%TD*%
D24*
%TO.P,L2,1*%
%TO.N,BUCK_SW*%
X87900000Y-71750000D03*
%TO.P,L2,2*%
%TO.N,+3.3V*%
X87900000Y-75450000D03*
%TD*%
D25*
%TO.P,J1,1,Pin_1*%
%TO.N,+12V*%
X105142500Y-72532500D03*
D26*
%TO.P,J1,2,Pin_2*%
%TO.N,GND*%
X105142500Y-69032500D03*
%TD*%
D22*
%TO.P,H4,1,1*%
%TO.N,GND*%
X62994581Y-86300000D03*
X63939162Y-84019581D03*
X63939162Y-88580419D03*
X66219581Y-83075000D03*
D23*
X66219581Y-86300000D03*
D22*
X66219581Y-89525000D03*
X68500000Y-84019581D03*
X68500000Y-88580419D03*
X69444581Y-86300000D03*
%TD*%
D27*
%TO.P,FB1,1*%
%TO.N,Net-(F1-Pad2)*%
X93700000Y-67237500D03*
%TO.P,FB1,2*%
%TO.N,BUCK_IN*%
X93700000Y-69362500D03*
%TD*%
D28*
%TO.P,C15,1*%
%TO.N,+3.3V*%
X88425000Y-78200000D03*
%TO.P,C15,2*%
%TO.N,GND*%
X91375000Y-78200000D03*
%TD*%
D29*
%TO.P,U3,1,I/O1*%
%TO.N,USB_CONN_D-*%
X101637500Y-58750000D03*
%TO.P,U3,2,GND*%
%TO.N,GND*%
X101637500Y-57800000D03*
%TO.P,U3,3,I/O2*%
%TO.N,USB_CONN_D+*%
X101637500Y-56850000D03*
%TO.P,U3,4,I/O2*%
%TO.N,USB_D+*%
X99362500Y-56850000D03*
%TO.P,U3,5,VBUS*%
%TO.N,+5V*%
X99362500Y-57800000D03*
%TO.P,U3,6,I/O1*%
%TO.N,USB_D-*%
X99362500Y-58750000D03*
%TD*%
D30*
%TO.P,C4,1*%
%TO.N,+3.3V*%
X69800000Y-64680000D03*
%TO.P,C4,2*%
%TO.N,GND*%
X69800000Y-63720000D03*
%TD*%
%TO.P,C10,1*%
%TO.N,+3.3VA*%
X69800000Y-71160000D03*
%TO.P,C10,2*%
%TO.N,GND*%
X69800000Y-70200000D03*
%TD*%
D31*
%TO.P,R2,1*%
%TO.N,HSE_OUT*%
X69900000Y-67500000D03*
%TO.P,R2,2*%
%TO.N,Net-(C11-Pad1)*%
X68880000Y-67500000D03*
%TD*%
D32*
%TO.P,D1,1,K*%
%TO.N,Net-(D1-K)*%
X68700000Y-76087500D03*
%TO.P,D1,2,A*%
%TO.N,LED_STATUS*%
X68700000Y-74512500D03*
%TD*%
D33*
%TO.P,D4,1,K*%
%TO.N,Net-(D4-K)*%
X95400000Y-44700000D03*
%TO.P,D4,2,A*%
%TO.N,+3.3V*%
X96975000Y-44700000D03*
%TD*%
D28*
%TO.P,C13,1*%
%TO.N,BUCK_IN*%
X93725000Y-71800000D03*
%TO.P,C13,2*%
%TO.N,GND*%
X96675000Y-71800000D03*
%TD*%
D34*
%TO.P,C14,1*%
%TO.N,BUCK_BST*%
X91600000Y-75575000D03*
%TO.P,C14,2*%
%TO.N,BUCK_SW*%
X91600000Y-74025000D03*
%TD*%
D35*
%TO.P,R5,1*%
%TO.N,BUCK_EN*%
X99300000Y-76125000D03*
%TO.P,R5,2*%
%TO.N,GND*%
X99300000Y-74475000D03*
%TD*%
D36*
%TO.P,J5,1,VBUS*%
%TO.N,+5V*%
X105520000Y-59000000D03*
%TO.P,J5,2,D-*%
%TO.N,USB_CONN_D-*%
X105520000Y-58350000D03*
%TO.P,J5,3,D+*%
%TO.N,USB_CONN_D+*%
X105520000Y-57700000D03*
%TO.P,J5,4,ID*%
%TO.N,unconnected-(J5-ID-Pad4)*%
X105520000Y-57050000D03*
%TO.P,J5,5,GND*%
%TO.N,GND*%
X105520000Y-56400000D03*
D37*
%TO.P,J5,6,Shield*%
%TO.N,unconnected-(J5-Shield-Pad6)*%
X108195000Y-61000000D03*
D38*
X105745000Y-60900000D03*
D39*
X108195000Y-58900000D03*
X108195000Y-56500000D03*
D38*
X105745000Y-54500000D03*
D37*
X108195000Y-54400000D03*
%TD*%
D40*
%TO.P,SW1,*%
%TO.N,*%
X63755000Y-53650000D03*
X61545000Y-53650000D03*
X63755000Y-60950000D03*
X61545000Y-60950000D03*
D41*
%TO.P,SW1,1,A*%
%TO.N,+3.3V*%
X64405000Y-55050000D03*
%TO.P,SW1,2,B*%
%TO.N,Net-(SW1-B)*%
X64405000Y-58050000D03*
%TO.P,SW1,3,C*%
%TO.N,GND*%
X64405000Y-59550000D03*
%TD*%
D42*
%TO.P,U1,1,VBAT*%
%TO.N,+3.3V*%
X71725000Y-64950000D03*
%TO.P,U1,2,PC13*%
%TO.N,unconnected-(U1-PC13-Pad2)*%
X71725000Y-65450000D03*
%TO.P,U1,3,PC14*%
%TO.N,unconnected-(U1-PC14-Pad3)*%
X71725000Y-65950000D03*
%TO.P,U1,4,PC15*%
%TO.N,unconnected-(U1-PC15-Pad4)*%
X71725000Y-66450000D03*
%TO.P,U1,5,PH0*%
%TO.N,HSE_IN*%
X71725000Y-66950000D03*
%TO.P,U1,6,PH1*%
%TO.N,HSE_OUT*%
X71725000Y-67450000D03*
%TO.P,U1,7,NRST*%
%TO.N,NRST*%
X71725000Y-67950000D03*
%TO.P,U1,8,PC0*%
%TO.N,unconnected-(U1-PC0-Pad8)*%
X71725000Y-68450000D03*
%TO.P,U1,9,PC1*%
%TO.N,unconnected-(U1-PC1-Pad9)*%
X71725000Y-68950000D03*
%TO.P,U1,10,PC2*%
%TO.N,unconnected-(U1-PC2-Pad10)*%
X71725000Y-69450000D03*
%TO.P,U1,11,PC3*%
%TO.N,unconnected-(U1-PC3-Pad11)*%
X71725000Y-69950000D03*
%TO.P,U1,12,VSSA*%
%TO.N,GND*%
X71725000Y-70450000D03*
%TO.P,U1,13,VDDA*%
%TO.N,+3.3VA*%
X71725000Y-70950000D03*
%TO.P,U1,14,PA0*%
%TO.N,unconnected-(U1-PA0-Pad14)*%
X71725000Y-71450000D03*
%TO.P,U1,15,PA1*%
%TO.N,unconnected-(U1-PA1-Pad15)*%
X71725000Y-71950000D03*
%TO.P,U1,16,PA2*%
%TO.N,LED_STATUS*%
X71725000Y-72450000D03*
D43*
%TO.P,U1,17,PA3*%
%TO.N,unconnected-(U1-PA3-Pad17)*%
X73650000Y-74375000D03*
%TO.P,U1,18,VSS*%
%TO.N,GND*%
X74150000Y-74375000D03*
%TO.P,U1,19,VDD*%
%TO.N,+3.3V*%
X74650000Y-74375000D03*
%TO.P,U1,20,PA4*%
%TO.N,unconnected-(U1-PA4-Pad20)*%
X75150000Y-74375000D03*
%TO.P,U1,21,PA5*%
%TO.N,unconnected-(U1-PA5-Pad21)*%
X75650000Y-74375000D03*
%TO.P,U1,22,PA6*%
%TO.N,unconnected-(U1-PA6-Pad22)*%
X76150000Y-74375000D03*
%TO.P,U1,23,PA7*%
%TO.N,unconnected-(U1-PA7-Pad23)*%
X76650000Y-74375000D03*
%TO.P,U1,24,PC4*%
%TO.N,unconnected-(U1-PC4-Pad24)*%
X77150000Y-74375000D03*
%TO.P,U1,25,PC5*%
%TO.N,unconnected-(U1-PC5-Pad25)*%
X77650000Y-74375000D03*
%TO.P,U1,26,PB0*%
%TO.N,unconnected-(U1-PB0-Pad26)*%
X78150000Y-74375000D03*
%TO.P,U1,27,PB1*%
%TO.N,unconnected-(U1-PB1-Pad27)*%
X78650000Y-74375000D03*
%TO.P,U1,28,PB2*%
%TO.N,unconnected-(U1-PB2-Pad28)*%
X79150000Y-74375000D03*
%TO.P,U1,29,PB10*%
%TO.N,UART3_TX*%
X79650000Y-74375000D03*
%TO.P,U1,30,PB11*%
%TO.N,UART3_RX*%
X80150000Y-74375000D03*
%TO.P,U1,31,VCAP_1*%
%TO.N,Net-(U1-VCAP_1)*%
X80650000Y-74375000D03*
%TO.P,U1,32,VDD*%
%TO.N,+3.3V*%
X81150000Y-74375000D03*
D42*
%TO.P,U1,33,PB12*%
%TO.N,unconnected-(U1-PB12-Pad33)*%
X83075000Y-72450000D03*
%TO.P,U1,34,PB13*%
%TO.N,unconnected-(U1-PB13-Pad34)*%
X83075000Y-71950000D03*
%TO.P,U1,35,PB14*%
%TO.N,unconnected-(U1-PB14-Pad35)*%
X83075000Y-71450000D03*
%TO.P,U1,36,PB15*%
%TO.N,unconnected-(U1-PB15-Pad36)*%
X83075000Y-70950000D03*
%TO.P,U1,37,PC6*%
%TO.N,unconnected-(U1-PC6-Pad37)*%
X83075000Y-70450000D03*
%TO.P,U1,38,PC7*%
%TO.N,unconnected-(U1-PC7-Pad38)*%
X83075000Y-69950000D03*
%TO.P,U1,39,PC8*%
%TO.N,unconnected-(U1-PC8-Pad39)*%
X83075000Y-69450000D03*
%TO.P,U1,40,PC9*%
%TO.N,unconnected-(U1-PC9-Pad40)*%
X83075000Y-68950000D03*
%TO.P,U1,41,PA8*%
%TO.N,unconnected-(U1-PA8-Pad41)*%
X83075000Y-68450000D03*
%TO.P,U1,42,PA9*%
%TO.N,unconnected-(U1-PA9-Pad42)*%
X83075000Y-67950000D03*
%TO.P,U1,43,PA10*%
%TO.N,unconnected-(U1-PA10-Pad43)*%
X83075000Y-67450000D03*
%TO.P,U1,44,PA11*%
%TO.N,USB_D-*%
X83075000Y-66950000D03*
%TO.P,U1,45,PA12*%
%TO.N,USB_D+*%
X83075000Y-66450000D03*
%TO.P,U1,46,PA13*%
%TO.N,SWDIO*%
X83075000Y-65950000D03*
%TO.P,U1,47,VCAP_2*%
%TO.N,Net-(U1-VCAP_2)*%
X83075000Y-65450000D03*
%TO.P,U1,48,VDD*%
%TO.N,+3.3V*%
X83075000Y-64950000D03*
D43*
%TO.P,U1,49,PA14*%
%TO.N,SWCLK*%
X81150000Y-63025000D03*
%TO.P,U1,50,PA15*%
%TO.N,unconnected-(U1-PA15-Pad50)*%
X80650000Y-63025000D03*
%TO.P,U1,51,PC10*%
%TO.N,unconnected-(U1-PC10-Pad51)*%
X80150000Y-63025000D03*
%TO.P,U1,52,PC11*%
%TO.N,unconnected-(U1-PC11-Pad52)*%
X79650000Y-63025000D03*
%TO.P,U1,53,PC12*%
%TO.N,unconnected-(U1-PC12-Pad53)*%
X79150000Y-63025000D03*
%TO.P,U1,54,PD2*%
%TO.N,unconnected-(U1-PD2-Pad54)*%
X78650000Y-63025000D03*
%TO.P,U1,55,PB3*%
%TO.N,SWO*%
X78150000Y-63025000D03*
%TO.P,U1,56,PB4*%
%TO.N,unconnected-(U1-PB4-Pad56)*%
X77650000Y-63025000D03*
%TO.P,U1,57,PB5*%
%TO.N,unconnected-(U1-PB5-Pad57)*%
X77150000Y-63025000D03*
%TO.P,U1,58,PB6*%
%TO.N,I2C1_SCL*%
X76650000Y-63025000D03*
%TO.P,U1,59,PB7*%
%TO.N,I2C1_SDA*%
X76150000Y-63025000D03*
%TO.P,U1,60,BOOT0*%
%TO.N,BOOT0*%
X75650000Y-63025000D03*
%TO.P,U1,61,PB8*%
%TO.N,unconnected-(U1-PB8-Pad61)*%
X75150000Y-63025000D03*
%TO.P,U1,62,PB9*%
%TO.N,unconnected-(U1-PB9-Pad62)*%
X74650000Y-63025000D03*
%TO.P,U1,63,VSS*%
%TO.N,GND*%
X74150000Y-63025000D03*
%TO.P,U1,64,VDD*%
%TO.N,+3.3V*%
X73650000Y-63025000D03*
%TD*%
D30*
%TO.P,C7,1*%
%TO.N,+3.3V*%
X83700000Y-63380000D03*
%TO.P,C7,2*%
%TO.N,GND*%
X83700000Y-62420000D03*
%TD*%
D22*
%TO.P,H3,1,1*%
%TO.N,GND*%
X62994581Y-46300000D03*
X63939162Y-44019581D03*
X63939162Y-48580419D03*
X66219581Y-43075000D03*
D23*
X66219581Y-46300000D03*
D22*
X66219581Y-49525000D03*
X68500000Y-44019581D03*
X68500000Y-48580419D03*
X69444581Y-46300000D03*
%TD*%
D44*
%TO.P,L1,1*%
%TO.N,+3.3V*%
X66530000Y-72400000D03*
%TO.P,L1,2*%
%TO.N,+3.3VA*%
X67500000Y-72400000D03*
%TD*%
D31*
%TO.P,R10,1*%
%TO.N,I2C1_SDA*%
X76610000Y-57500000D03*
%TO.P,R10,2*%
%TO.N,+3.3V*%
X75590000Y-57500000D03*
%TD*%
D28*
%TO.P,C16,1*%
%TO.N,+3.3V*%
X88425000Y-80900000D03*
%TO.P,C16,2*%
%TO.N,GND*%
X91375000Y-80900000D03*
%TD*%
D31*
%TO.P,R1,1*%
%TO.N,BOOT0*%
X67420000Y-58100000D03*
%TO.P,R1,2*%
%TO.N,Net-(SW1-B)*%
X66400000Y-58100000D03*
%TD*%
D30*
%TO.P,C9,1*%
%TO.N,+3.3VA*%
X68500000Y-71160000D03*
%TO.P,C9,2*%
%TO.N,GND*%
X68500000Y-70200000D03*
%TD*%
D34*
%TO.P,C1,1*%
%TO.N,Net-(U1-VCAP_2)*%
X85400000Y-64875000D03*
%TO.P,C1,2*%
%TO.N,GND*%
X85400000Y-63325000D03*
%TD*%
D21*
%TO.P,R3,1*%
%TO.N,GND*%
X70700000Y-74475000D03*
%TO.P,R3,2*%
%TO.N,Net-(D1-K)*%
X70700000Y-76125000D03*
%TD*%
D17*
%TO.P,C5,1*%
%TO.N,+3.3V*%
X74880000Y-76400000D03*
%TO.P,C5,2*%
%TO.N,GND*%
X73920000Y-76400000D03*
%TD*%
D16*
%TO.P,C12,1*%
%TO.N,HSE_IN*%
X66220000Y-64450000D03*
%TO.P,C12,2*%
%TO.N,GND*%
X67180000Y-64450000D03*
%TD*%
D35*
%TO.P,R8,1*%
%TO.N,Net-(R7-Pad2)*%
X101100000Y-79425000D03*
%TO.P,R8,2*%
%TO.N,GND*%
X101100000Y-77775000D03*
%TD*%
D21*
%TO.P,R4,1*%
%TO.N,BUCK_IN*%
X97600000Y-74475000D03*
%TO.P,R4,2*%
%TO.N,BUCK_EN*%
X97600000Y-76125000D03*
%TD*%
D22*
%TO.P,H2,1,1*%
%TO.N,GND*%
X101525000Y-86300000D03*
X102469581Y-84019581D03*
X102469581Y-88580419D03*
X104750000Y-83075000D03*
D23*
X104750000Y-86300000D03*
D22*
X104750000Y-89525000D03*
X107030419Y-84019581D03*
X107030419Y-88580419D03*
X107975000Y-86300000D03*
%TD*%
D45*
%TO.P,J2,1,Pin_1*%
%TO.N,+3.3V*%
X85560000Y-46400000D03*
%TO.P,J2,2,Pin_2*%
%TO.N,SWDIO*%
X85560000Y-50000000D03*
%TO.P,J2,3,Pin_3*%
%TO.N,GND*%
X86830000Y-46400000D03*
%TO.P,J2,4,Pin_4*%
%TO.N,SWCLK*%
X86830000Y-50000000D03*
%TO.P,J2,5,Pin_5*%
%TO.N,GND*%
X88100000Y-46400000D03*
%TO.P,J2,6,Pin_6*%
%TO.N,SWO*%
X88100000Y-50000000D03*
%TO.P,J2,7,Pin_7*%
%TO.N,unconnected-(J2-Pin_7-Pad7)*%
X89370000Y-46400000D03*
%TO.P,J2,8,Pin_8*%
%TO.N,unconnected-(J2-Pin_8-Pad8)*%
X89370000Y-50000000D03*
%TO.P,J2,9,Pin_9*%
%TO.N,GND*%
X90640000Y-46400000D03*
%TO.P,J2,10,Pin_10*%
%TO.N,NRST*%
X90640000Y-50000000D03*
%TD*%
D46*
%TO.P,R9,2*%
%TO.N,+3.3V*%
X78710000Y-57500000D03*
%TO.P,R9,1*%
%TO.N,I2C1_SCL*%
X77690000Y-57500000D03*
%TD*%
D47*
%TO.P,C3,1*%
%TO.N,+3.3V*%
X71650000Y-60800000D03*
%TO.P,C3,2*%
%TO.N,GND*%
X70100000Y-60800000D03*
%TD*%
D35*
%TO.P,R6,1*%
%TO.N,+3.3V*%
X97600000Y-79425000D03*
%TO.P,R6,2*%
%TO.N,BUCK_FB*%
X97600000Y-77775000D03*
%TD*%
D48*
%TO.P,U2,1,BST*%
%TO.N,BUCK_BST*%
X93750000Y-77237500D03*
%TO.P,U2,2,GND*%
%TO.N,GND*%
X94700000Y-77237500D03*
%TO.P,U2,3,FB*%
%TO.N,BUCK_FB*%
X95650000Y-77237500D03*
%TO.P,U2,4,EN*%
%TO.N,BUCK_EN*%
X95650000Y-74962500D03*
%TO.P,U2,5,IN*%
%TO.N,BUCK_IN*%
X94700000Y-74962500D03*
%TO.P,U2,6,SW*%
%TO.N,BUCK_SW*%
X93750000Y-74962500D03*
%TD*%
D49*
%TO.P,C2,1*%
%TO.N,Net-(U1-VCAP_1)*%
X81450000Y-76700000D03*
%TO.P,C2,2*%
%TO.N,GND*%
X83000000Y-76700000D03*
%TD*%
D50*
%TO.N,GND*%
X75100000Y-48050000D03*
X80250000Y-84650000D03*
%TO.N,+3.3V*%
X75400000Y-84800000D03*
X80000000Y-47900000D03*
%TO.N,GND*%
X100500000Y-55800000D03*
X64100000Y-67650000D03*
X64100000Y-68850000D03*
X68577216Y-65753623D03*
X67150000Y-63650000D03*
X94700000Y-79600000D03*
X99300000Y-67900000D03*
X99300000Y-66850000D03*
X96700000Y-70400000D03*
X97800000Y-71300000D03*
X97750000Y-72450000D03*
X99300000Y-73500000D03*
X102100000Y-77800000D03*
X101100000Y-76850000D03*
X91375000Y-77100000D03*
X92300000Y-77500000D03*
X92550000Y-78900000D03*
X92500000Y-80300000D03*
X91350000Y-82400000D03*
X92450000Y-81750000D03*
X94700000Y-78450000D03*
X91650000Y-70250000D03*
X104200000Y-54050000D03*
X102950000Y-55250000D03*
X104200000Y-55250000D03*
X104200000Y-56400000D03*
X94450000Y-46800000D03*
X90650000Y-44800000D03*
X88100000Y-44800000D03*
X86850000Y-44850000D03*
X85450000Y-62350000D03*
X83700000Y-61600000D03*
X91650000Y-67950000D03*
X83700000Y-74050000D03*
X83000000Y-77700000D03*
X69800000Y-69400000D03*
X68500000Y-69400000D03*
X65400000Y-70100000D03*
X73150000Y-76400000D03*
X70700000Y-73550000D03*
X69800000Y-62950000D03*
X75150000Y-60900000D03*
X65650000Y-59600000D03*
X69175000Y-60800000D03*
%TO.N,+3.3V*%
X97600000Y-80300000D03*
X87400000Y-80400000D03*
X89500000Y-80450000D03*
X89350000Y-81900000D03*
X89450000Y-78900000D03*
X89350000Y-77600000D03*
X87400000Y-78800000D03*
X89600000Y-75900000D03*
X89550000Y-74650000D03*
X86200000Y-74650000D03*
X86200000Y-75800000D03*
X66550000Y-73200000D03*
X66500000Y-71600000D03*
X84200000Y-63950000D03*
X73400000Y-60100000D03*
X69150000Y-64680000D03*
X74900000Y-77200000D03*
X96650000Y-79450000D03*
X87700000Y-81950000D03*
X82200000Y-75450000D03*
X85550000Y-44900000D03*
X97850000Y-44700000D03*
X65650000Y-55050000D03*
X71675000Y-59850000D03*
X74900000Y-57500000D03*
X79450000Y-57450000D03*
D51*
%TO.N,SWDIO*%
X87750000Y-52100000D03*
X85900000Y-52100000D03*
%TO.N,NRST*%
X79200000Y-67950000D03*
X88550000Y-62750000D03*
%TD*%
D52*
%TO.N,UART3_TX*%
X77125000Y-86300000D02*
X77175000Y-86350000D01*
X77125000Y-78075000D02*
X77125000Y-86300000D01*
X79650000Y-75550000D02*
X77125000Y-78075000D01*
X79650000Y-74375000D02*
X79650000Y-75550000D01*
%TO.N,UART3_RX*%
X78425000Y-79175000D02*
X78425000Y-86350000D01*
X80150000Y-77450000D02*
X78425000Y-79175000D01*
X80150000Y-74375000D02*
X80150000Y-77450000D01*
D53*
%TO.N,GND*%
X79675000Y-85225000D02*
X80250000Y-84650000D01*
X79675000Y-86350000D02*
X79675000Y-85225000D01*
%TO.N,+3.3V*%
X75925000Y-85325000D02*
X75400000Y-84800000D01*
X75925000Y-86350000D02*
X75925000Y-85325000D01*
X79525000Y-47425000D02*
X80000000Y-47900000D01*
X79525000Y-46350000D02*
X79525000Y-47425000D01*
%TO.N,GND*%
X75775000Y-47375000D02*
X75100000Y-48050000D01*
X75775000Y-46350000D02*
X75775000Y-47375000D01*
D54*
%TO.N,I2C1_SCL*%
X78300000Y-46425000D02*
X78250000Y-46375000D01*
X77690000Y-56110000D02*
X78300000Y-55500000D01*
X77690000Y-57500000D02*
X77690000Y-56110000D01*
X78300000Y-55500000D02*
X78300000Y-46425000D01*
%TO.N,I2C1_SDA*%
X77000000Y-48250000D02*
X77000000Y-46375000D01*
X77000000Y-46375000D02*
X77025000Y-46350000D01*
X76610000Y-48640000D02*
X77000000Y-48250000D01*
X76610000Y-57500000D02*
X76610000Y-48640000D01*
D52*
%TO.N,BOOT0*%
X67420000Y-60940000D02*
X67420000Y-58100000D01*
X73250000Y-64500000D02*
X70700000Y-61950000D01*
X75051041Y-64500000D02*
X73250000Y-64500000D01*
X75650000Y-63901041D02*
X75051041Y-64500000D01*
X75650000Y-63025000D02*
X75650000Y-63901041D01*
X70700000Y-61950000D02*
X68430000Y-61950000D01*
X68430000Y-61950000D02*
X67420000Y-60940000D01*
D54*
%TO.N,Net-(SW1-B)*%
X64455000Y-58100000D02*
X64405000Y-58050000D01*
X66400000Y-58100000D02*
X64455000Y-58100000D01*
%TO.N,Net-(D4-K)*%
X95400000Y-45200000D02*
X95400000Y-44700000D01*
X97000000Y-46800000D02*
X95400000Y-45200000D01*
%TO.N,+3.3V*%
X97850000Y-44700000D02*
X96975000Y-44700000D01*
D53*
%TO.N,GND*%
X91375000Y-77100000D02*
X91375000Y-78200000D01*
X91900000Y-77100000D02*
X92300000Y-77500000D01*
X91375000Y-77100000D02*
X91900000Y-77100000D01*
D55*
%TO.N,unconnected-(J5-Shield-Pad6)*%
X105845000Y-54400000D02*
X105745000Y-54500000D01*
X108195000Y-54400000D02*
X105845000Y-54400000D01*
X108195000Y-56500000D02*
X108195000Y-54400000D01*
X108195000Y-58900000D02*
X108195000Y-56500000D01*
X108195000Y-61000000D02*
X108195000Y-58900000D01*
X108095000Y-60900000D02*
X108195000Y-61000000D01*
X105745000Y-60900000D02*
X108095000Y-60900000D01*
D56*
%TO.N,GND*%
X100949999Y-57800000D02*
X100500000Y-57350001D01*
X100500000Y-57350001D02*
X100500000Y-55800000D01*
X101637500Y-57800000D02*
X100949999Y-57800000D01*
%TO.N,+5V*%
X100475000Y-59475000D02*
X100475000Y-58351472D01*
X99923528Y-57800000D02*
X99362500Y-57800000D01*
X102350000Y-61350000D02*
X100475000Y-59475000D01*
X100475000Y-58351472D02*
X99923528Y-57800000D01*
D55*
%TO.N,GND*%
X67596377Y-65753623D02*
X67250000Y-66100000D01*
X68577216Y-65753623D02*
X67596377Y-65753623D01*
D54*
X64100000Y-67650000D02*
X64750000Y-68300000D01*
X64750000Y-68300000D02*
X65550000Y-68300000D01*
X64100000Y-67650000D02*
X64100000Y-68850000D01*
X64650000Y-68300000D02*
X65550000Y-68300000D01*
X64100000Y-68850000D02*
X64650000Y-68300000D01*
D52*
%TO.N,+3.3V*%
X69150000Y-64680000D02*
X69800000Y-64680000D01*
D53*
X84200000Y-63880000D02*
X83700000Y-63380000D01*
X84200000Y-63950000D02*
X84200000Y-63880000D01*
D54*
%TO.N,GND*%
X85400000Y-63325000D02*
X85400000Y-62400000D01*
X85400000Y-62400000D02*
X85450000Y-62350000D01*
X83700000Y-62420000D02*
X83700000Y-61600000D01*
D53*
X95350000Y-46800000D02*
X94450000Y-46800000D01*
X90640000Y-44810000D02*
X90650000Y-44800000D01*
X90640000Y-46400000D02*
X90640000Y-44810000D01*
X88100000Y-46400000D02*
X88100000Y-44800000D01*
X86830000Y-44870000D02*
X86850000Y-44850000D01*
X86830000Y-46400000D02*
X86830000Y-44870000D01*
X65600000Y-59550000D02*
X65650000Y-59600000D01*
X64405000Y-59550000D02*
X65600000Y-59550000D01*
D54*
X74400000Y-60900000D02*
X75150000Y-60900000D01*
D53*
X70100000Y-60800000D02*
X69175000Y-60800000D01*
X69800000Y-63720000D02*
X69800000Y-62950000D01*
D52*
X67180000Y-63680000D02*
X67150000Y-63650000D01*
D54*
X67180000Y-64450000D02*
X67180000Y-63680000D01*
D52*
X69800000Y-70200000D02*
X69800000Y-69400000D01*
D54*
X68500000Y-70200000D02*
X68500000Y-69400000D01*
X65500000Y-70000000D02*
X65400000Y-70100000D01*
X66240000Y-70000000D02*
X65500000Y-70000000D01*
D53*
X70700000Y-74475000D02*
X70700000Y-73550000D01*
D52*
X73920000Y-76400000D02*
X73150000Y-76400000D01*
D54*
X83700000Y-74900000D02*
X83700000Y-74050000D01*
X83000000Y-76700000D02*
X83000000Y-77700000D01*
D55*
%TO.N,+12V*%
X98637500Y-69137500D02*
X97500000Y-69137500D01*
X105142500Y-72532500D02*
X102032500Y-72532500D01*
X102032500Y-72532500D02*
X98637500Y-69137500D01*
D54*
%TO.N,GND*%
X102950000Y-55250000D02*
X103050000Y-55250000D01*
X102950000Y-55250000D02*
X103000000Y-55250000D01*
X103000000Y-55250000D02*
X104200000Y-54050000D01*
X103050000Y-55250000D02*
X104200000Y-56400000D01*
X104200000Y-55250000D02*
X102950000Y-55250000D01*
X104200000Y-55250000D02*
X104200000Y-54050000D01*
X104200000Y-56400000D02*
X104200000Y-55250000D01*
X105520000Y-56400000D02*
X104200000Y-56400000D01*
D55*
X99300000Y-67900000D02*
X99300000Y-66850000D01*
X98887500Y-67487500D02*
X99300000Y-67900000D01*
X98887500Y-67262500D02*
X98887500Y-67487500D01*
X98887500Y-67262500D02*
X99300000Y-66850000D01*
X98450000Y-67262500D02*
X98887500Y-67262500D01*
X91650000Y-69100000D02*
X91650000Y-67950000D01*
X91650000Y-69100000D02*
X91650000Y-70250000D01*
X97800000Y-72400000D02*
X97750000Y-72450000D01*
X97800000Y-71300000D02*
X97800000Y-72400000D01*
X97600000Y-71300000D02*
X97800000Y-71300000D01*
X96700000Y-70400000D02*
X97600000Y-71300000D01*
X96675000Y-70425000D02*
X96700000Y-70400000D01*
X96675000Y-71800000D02*
X96675000Y-70425000D01*
X96675000Y-71800000D02*
X97300000Y-71800000D01*
X97300000Y-71800000D02*
X97800000Y-71300000D01*
X97100000Y-71800000D02*
X97750000Y-72450000D01*
X96675000Y-71800000D02*
X97100000Y-71800000D01*
X99300000Y-74475000D02*
X99300000Y-73500000D01*
X92000000Y-81750000D02*
X91350000Y-82400000D01*
X92450000Y-81750000D02*
X92000000Y-81750000D01*
X92500000Y-81700000D02*
X92450000Y-81750000D01*
X92500000Y-80300000D02*
X92500000Y-81700000D01*
X91900000Y-80900000D02*
X92500000Y-80300000D01*
X91375000Y-80900000D02*
X91900000Y-80900000D01*
X91375000Y-82375000D02*
X91350000Y-82400000D01*
X91375000Y-80900000D02*
X91375000Y-82375000D01*
X91600000Y-80900000D02*
X92450000Y-81750000D01*
X91375000Y-80900000D02*
X91600000Y-80900000D01*
D53*
X91600000Y-78200000D02*
X91375000Y-78200000D01*
X92300000Y-77500000D02*
X91600000Y-78200000D01*
X92300000Y-77500000D02*
X92550000Y-77750000D01*
X92550000Y-77750000D02*
X92550000Y-78900000D01*
X91850000Y-78200000D02*
X92550000Y-78900000D01*
X91375000Y-78200000D02*
X91850000Y-78200000D01*
X101150000Y-76850000D02*
X102100000Y-77800000D01*
X101100000Y-76850000D02*
X101150000Y-76850000D01*
X101100000Y-77775000D02*
X101100000Y-76850000D01*
X102075000Y-77775000D02*
X102100000Y-77800000D01*
X101100000Y-77775000D02*
X102075000Y-77775000D01*
X94700000Y-77237500D02*
X94700000Y-79600000D01*
D54*
%TO.N,+3.3V*%
X96750000Y-79450000D02*
X97600000Y-80300000D01*
X96650000Y-79450000D02*
X96750000Y-79450000D01*
D55*
X87400000Y-80400000D02*
X87400000Y-81650000D01*
X87400000Y-81650000D02*
X87700000Y-81950000D01*
X89350000Y-80600000D02*
X89500000Y-80450000D01*
X89350000Y-81900000D02*
X89350000Y-80600000D01*
X87700000Y-81950000D02*
X89300000Y-81950000D01*
X89300000Y-81950000D02*
X89350000Y-81900000D01*
X87450000Y-80450000D02*
X87400000Y-80400000D01*
X89500000Y-80450000D02*
X87450000Y-80450000D01*
X87500000Y-78900000D02*
X87400000Y-78800000D01*
X89450000Y-78900000D02*
X87500000Y-78900000D01*
X89550000Y-74650000D02*
X86200000Y-74650000D01*
X89500000Y-75800000D02*
X89600000Y-75900000D01*
X86200000Y-75800000D02*
X89500000Y-75800000D01*
D54*
X97600000Y-79425000D02*
X97600000Y-80300000D01*
X96675000Y-79425000D02*
X96650000Y-79450000D01*
X97600000Y-79425000D02*
X96675000Y-79425000D01*
D55*
X89050000Y-80900000D02*
X89500000Y-80450000D01*
X88425000Y-80900000D02*
X89050000Y-80900000D01*
X88425000Y-80900000D02*
X88425000Y-80975000D01*
X88425000Y-80975000D02*
X89350000Y-81900000D01*
X87900000Y-80900000D02*
X87400000Y-80400000D01*
X88425000Y-80900000D02*
X87900000Y-80900000D01*
X88000000Y-78200000D02*
X87400000Y-78800000D01*
X88425000Y-78200000D02*
X88000000Y-78200000D01*
X88425000Y-78200000D02*
X88750000Y-78200000D01*
X88750000Y-78200000D02*
X89450000Y-78900000D01*
X88750000Y-78200000D02*
X89350000Y-77600000D01*
X87900000Y-75450000D02*
X89150000Y-75450000D01*
X89150000Y-75450000D02*
X89600000Y-75900000D01*
X88750000Y-75450000D02*
X89550000Y-74650000D01*
X87900000Y-75450000D02*
X88750000Y-75450000D01*
X86550000Y-75450000D02*
X86200000Y-75800000D01*
X87900000Y-75450000D02*
X86550000Y-75450000D01*
X87000000Y-75450000D02*
X86200000Y-74650000D01*
X87900000Y-75450000D02*
X87000000Y-75450000D01*
D52*
X74880000Y-77180000D02*
X74880000Y-76400000D01*
X74900000Y-77200000D02*
X74880000Y-77180000D01*
D54*
X66530000Y-73180000D02*
X66550000Y-73200000D01*
X66530000Y-72400000D02*
X66530000Y-73180000D01*
X66530000Y-71630000D02*
X66500000Y-71600000D01*
X66530000Y-72400000D02*
X66530000Y-71630000D01*
D52*
X82740000Y-74910000D02*
X82200000Y-75450000D01*
X82740000Y-74900000D02*
X82740000Y-74910000D01*
D55*
X88425000Y-81225000D02*
X87700000Y-81950000D01*
X88425000Y-80900000D02*
X88425000Y-81225000D01*
D54*
X85560000Y-44910000D02*
X85550000Y-44900000D01*
X85560000Y-46400000D02*
X85560000Y-44910000D01*
X64405000Y-55050000D02*
X65650000Y-55050000D01*
D52*
X73440000Y-60900000D02*
X73440000Y-60140000D01*
X73440000Y-60140000D02*
X73400000Y-60100000D01*
D54*
X71650000Y-59875000D02*
X71675000Y-59850000D01*
X71650000Y-60800000D02*
X71650000Y-59875000D01*
X75590000Y-57500000D02*
X74900000Y-57500000D01*
X79400000Y-57500000D02*
X79450000Y-57450000D01*
X78710000Y-57500000D02*
X79400000Y-57500000D01*
D52*
%TO.N,Net-(U1-VCAP_2)*%
X85400000Y-64875000D02*
X84825000Y-65450000D01*
X84825000Y-65450000D02*
X83075000Y-65450000D01*
D54*
%TO.N,GND*%
X84495000Y-62420000D02*
X85400000Y-63325000D01*
D52*
X70450000Y-70200000D02*
X69800000Y-70200000D01*
D54*
X83700000Y-76000000D02*
X83000000Y-76700000D01*
D52*
X74150000Y-63025000D02*
X74150000Y-61150000D01*
X74150000Y-74375000D02*
X74150000Y-76170000D01*
X70700000Y-70450000D02*
X70450000Y-70200000D01*
D54*
X67250000Y-66100000D02*
X67250000Y-64520000D01*
X65550000Y-69310000D02*
X66240000Y-70000000D01*
D52*
X67250000Y-64520000D02*
X67180000Y-64450000D01*
X71725000Y-70450000D02*
X70700000Y-70450000D01*
D54*
X83700000Y-62420000D02*
X84495000Y-62420000D01*
X69800000Y-70200000D02*
X68500000Y-70200000D01*
X83700000Y-74900000D02*
X83700000Y-76000000D01*
D52*
X74150000Y-76170000D02*
X73920000Y-76400000D01*
D54*
X65550000Y-68300000D02*
X65550000Y-69310000D01*
D52*
X74150000Y-61150000D02*
X74400000Y-60900000D01*
%TO.N,Net-(U1-VCAP_1)*%
X80650000Y-74375000D02*
X80650000Y-75900000D01*
X80650000Y-75900000D02*
X81450000Y-76700000D01*
%TO.N,+3.3V*%
X83075000Y-64950000D02*
X83075000Y-64005000D01*
D55*
X87900000Y-77675000D02*
X88425000Y-78200000D01*
D52*
X73650000Y-61110000D02*
X73440000Y-60900000D01*
X73650000Y-63025000D02*
X73650000Y-61110000D01*
D55*
X87900000Y-75450000D02*
X87900000Y-77675000D01*
D52*
X83075000Y-64005000D02*
X83700000Y-63380000D01*
X74650000Y-74375000D02*
X74650000Y-76170000D01*
D55*
X88425000Y-78200000D02*
X88425000Y-80900000D01*
D52*
X74650000Y-76170000D02*
X74880000Y-76400000D01*
X71725000Y-64950000D02*
X70070000Y-64950000D01*
X70070000Y-64950000D02*
X69800000Y-64680000D01*
X81150000Y-74375000D02*
X82215000Y-74375000D01*
X82215000Y-74375000D02*
X82740000Y-74900000D01*
D54*
%TO.N,+3.3VA*%
X68500000Y-71160000D02*
X68500000Y-72150000D01*
X68500000Y-72150000D02*
X68250000Y-72400000D01*
D52*
X69800000Y-71160000D02*
X70010000Y-70950000D01*
D54*
X68250000Y-72400000D02*
X67500000Y-72400000D01*
D52*
X70010000Y-70950000D02*
X71725000Y-70950000D01*
D54*
X69800000Y-71160000D02*
X68500000Y-71160000D01*
D52*
%TO.N,Net-(C11-Pad1)*%
X68880000Y-67720000D02*
X68300000Y-68300000D01*
X68880000Y-67500000D02*
X68880000Y-67720000D01*
X68300000Y-68300000D02*
X67250000Y-68300000D01*
D54*
X67200000Y-70000000D02*
X67200000Y-68350000D01*
D52*
X67200000Y-68350000D02*
X67250000Y-68300000D01*
%TO.N,HSE_IN*%
X68100000Y-67150000D02*
X66150000Y-67150000D01*
X66150000Y-64450000D02*
X65550000Y-65050000D01*
X65550000Y-66550000D02*
X65550000Y-66100000D01*
X66220000Y-64450000D02*
X66150000Y-64450000D01*
X70650000Y-66950000D02*
X70300000Y-66600000D01*
X68650000Y-66600000D02*
X68100000Y-67150000D01*
X71725000Y-66950000D02*
X70650000Y-66950000D01*
X65550000Y-65050000D02*
X65550000Y-66100000D01*
X70300000Y-66600000D02*
X68650000Y-66600000D01*
X66150000Y-67150000D02*
X65550000Y-66550000D01*
D53*
%TO.N,BUCK_IN*%
X94700000Y-72775000D02*
X94700000Y-73550000D01*
X97600000Y-74100000D02*
X97050000Y-73550000D01*
X95475000Y-73550000D02*
X94700000Y-72775000D01*
X94700000Y-73550000D02*
X94700000Y-74962500D01*
D55*
X93725000Y-71800000D02*
X93725000Y-69387500D01*
D53*
X93725000Y-71800000D02*
X94700000Y-72775000D01*
X97600000Y-74475000D02*
X97600000Y-74100000D01*
X93725000Y-69387500D02*
X93700000Y-69362500D01*
X97050000Y-73550000D02*
X95475000Y-73550000D01*
%TO.N,BUCK_BST*%
X92087500Y-75575000D02*
X93750000Y-77237500D01*
X91600000Y-75575000D02*
X92087500Y-75575000D01*
D55*
%TO.N,BUCK_SW*%
X91600000Y-72650000D02*
X90700000Y-71750000D01*
X91600000Y-74025000D02*
X91600000Y-72650000D01*
X87900000Y-69550000D02*
X88350000Y-69100000D01*
D53*
X91600000Y-74025000D02*
X92812500Y-74025000D01*
X92812500Y-74025000D02*
X93750000Y-74962500D01*
D55*
X90700000Y-71750000D02*
X87900000Y-71750000D01*
X87900000Y-71750000D02*
X87900000Y-69550000D01*
D52*
%TO.N,Net-(D1-K)*%
X70662500Y-76087500D02*
X70700000Y-76125000D01*
D54*
X68700000Y-76087500D02*
X70662500Y-76087500D01*
D52*
%TO.N,LED_STATUS*%
X71725000Y-72450000D02*
X69800000Y-72450000D01*
X68700000Y-73550000D02*
X68700000Y-74512500D01*
X69800000Y-72450000D02*
X68700000Y-73550000D01*
D55*
%TO.N,Net-(D2-K)*%
X96550000Y-67262500D02*
X96550000Y-64450000D01*
X96400000Y-64300000D02*
X98950000Y-64300000D01*
D53*
X98950000Y-64300000D02*
X99050000Y-64200000D01*
X96550000Y-64450000D02*
X96400000Y-64300000D01*
D54*
%TO.N,+5V*%
X102350000Y-61350000D02*
X102350000Y-64200000D01*
X104700000Y-59000000D02*
X102350000Y-61350000D01*
X105520000Y-59000000D02*
X104700000Y-59000000D01*
D55*
%TO.N,Net-(F1-Pad2)*%
X93700000Y-67237500D02*
X93700000Y-64400000D01*
D53*
X93700000Y-64400000D02*
X93600000Y-64300000D01*
D52*
%TO.N,SWDIO*%
X85560000Y-51760000D02*
X85560000Y-50000000D01*
X85613173Y-65950000D02*
X83075000Y-65950000D01*
X88100000Y-52450000D02*
X88100000Y-56800000D01*
X88100000Y-56800000D02*
X86900000Y-58000000D01*
X85900000Y-52100000D02*
X85560000Y-51760000D01*
X87750000Y-52100000D02*
X88100000Y-52450000D01*
X86900000Y-58000000D02*
X86900000Y-64663173D01*
X86900000Y-64663173D02*
X85613173Y-65950000D01*
%TO.N,SWCLK*%
X86830000Y-55070000D02*
X86830000Y-50000000D01*
X81150000Y-60750000D02*
X86830000Y-55070000D01*
X81150000Y-63025000D02*
X81150000Y-60750000D01*
%TO.N,SWO*%
X83550000Y-56748959D02*
X83550000Y-49600000D01*
X78150000Y-62148959D02*
X83550000Y-56748959D01*
X87250000Y-48200000D02*
X88100000Y-49050000D01*
X83550000Y-49600000D02*
X84950000Y-48200000D01*
X84950000Y-48200000D02*
X87250000Y-48200000D01*
X78150000Y-63025000D02*
X78150000Y-62148959D01*
X88100000Y-49050000D02*
X88100000Y-50000000D01*
D54*
%TO.N,NRST*%
X88550000Y-62750000D02*
X88550000Y-58750000D01*
D52*
X71725000Y-67950000D02*
X79200000Y-67950000D01*
D54*
X90640000Y-56660000D02*
X90640000Y-50000000D01*
X88550000Y-58750000D02*
X90640000Y-56660000D01*
D52*
%TO.N,I2C1_SCL*%
X76650000Y-63025000D02*
X76650000Y-61750000D01*
X77690000Y-60710000D02*
X77690000Y-57500000D01*
X76650000Y-61750000D02*
X77690000Y-60710000D01*
%TO.N,I2C1_SDA*%
X76150000Y-58700000D02*
X76610000Y-58240000D01*
X76610000Y-58240000D02*
X76610000Y-57500000D01*
X76150000Y-63025000D02*
X76150000Y-58700000D01*
%TO.N,USB_CONN_D-*%
X103200000Y-58750000D02*
X101637500Y-58750000D01*
X103600000Y-58350000D02*
X103200000Y-58750000D01*
X105520000Y-58350000D02*
X103600000Y-58350000D01*
%TO.N,USB_CONN_D+*%
X102800000Y-56850000D02*
X101637500Y-56850000D01*
X105520000Y-57700000D02*
X103650000Y-57700000D01*
X103650000Y-57700000D02*
X102800000Y-56850000D01*
%TO.N,HSE_OUT*%
X69950000Y-67450000D02*
X69900000Y-67500000D01*
X71725000Y-67450000D02*
X69950000Y-67450000D01*
D53*
%TO.N,BUCK_EN*%
X96812500Y-76125000D02*
X95650000Y-74962500D01*
X97600000Y-76125000D02*
X96812500Y-76125000D01*
X97600000Y-76125000D02*
X99300000Y-76125000D01*
%TO.N,BUCK_FB*%
X96187500Y-77775000D02*
X95650000Y-77237500D01*
X97600000Y-77775000D02*
X96187500Y-77775000D01*
X97600000Y-77775000D02*
X99300000Y-77775000D01*
%TO.N,Net-(R7-Pad2)*%
X99300000Y-79425000D02*
X101100000Y-79425000D01*
D57*
%TO.N,USB_D-*%
X84255345Y-66932156D02*
X86696164Y-66932156D01*
X97650905Y-58032156D02*
X98368749Y-58750000D01*
X83075000Y-66950000D02*
X84237501Y-66950000D01*
X84237501Y-66950000D02*
X84255345Y-66932156D01*
X98368749Y-58750000D02*
X99362500Y-58750000D01*
X86696164Y-66932156D02*
X95596164Y-58032156D01*
X95596164Y-58032156D02*
X97650905Y-58032156D01*
%TO.N,USB_D+*%
X86503836Y-66467844D02*
X95403836Y-57567844D01*
X84255345Y-66467844D02*
X86503836Y-66467844D01*
X97650905Y-57567844D02*
X98368749Y-56850000D01*
X98368749Y-56850000D02*
X99362500Y-56850000D01*
X84237501Y-66450000D02*
X84255345Y-66467844D01*
X95403836Y-57567844D02*
X97650905Y-57567844D01*
X83075000Y-66450000D02*
X84237501Y-66450000D01*
%TD*%
M02*
