<?xml version="1.0" standalone="no"?>
 <!DOCTYPE svg PUBLIC "-//W3C//DTD SVG 1.1//EN" 
 "http://www.w3.org/Graphics/SVG/1.1/DTD/svg11.dtd"> 
<svg
  xmlns:svg="http://www.w3.org/2000/svg"
  xmlns="http://www.w3.org/2000/svg"
  xmlns:xlink="http://www.w3.org/1999/xlink"
  version="1.1"
  width="51.9176mm" height="51.3334mm" viewBox="0.0000 0.0000 51.9176 51.3334">
<title>SVG Image created as STM32F405_Lesson_1-F_Silkscreen.svg date 2023/08/28 01:47:18 </title>
  <desc>Image generated by PCBNEW </desc>
<g style="fill:#000000; fill-opacity:1.0000;stroke:#000000; stroke-opacity:1.0000;
stroke-linecap:round; stroke-linejoin:round;"
 transform="translate(0 0) scale(1 1)">
</g>
<g style="fill:#000000; fill-opacity:0.0; 
stroke:#000000; stroke-width:0.0000; stroke-opacity:1; 
stroke-linecap:round; stroke-linejoin:round;">
</g>
<g style="fill:#F2EDA1; fill-opacity:0.0; 
stroke:#F2EDA1; stroke-width:0.0000; stroke-opacity:1; 
stroke-linecap:round; stroke-linejoin:round;">
</g>
<g style="fill:#F2EDA1; fill-opacity:0.0; 
stroke:#F2EDA1; stroke-width:0.1000; stroke-opacity:1; 
stroke-linecap:round; stroke-linejoin:round;">
<text x="18.2500" y="28.7620"
textLength="7.3400" font-size="1.0667" lengthAdjust="spacingAndGlyphs"
text-anchor="middle" opacity="0">JLC_Number</text>
<g class="stroked-text"><desc>JLC_Number</desc>
<path d="M15.0690 27.8589
L15.0690 28.4303
" />
<path d="M15.0690 28.4303
L15.0310 28.5446
" />
<path d="M15.0310 28.5446
L14.9548 28.6208
" />
<path d="M14.9548 28.6208
L14.8405 28.6589
" />
<path d="M14.8405 28.6589
L14.7643 28.6589
" />
<path d="M15.8310 28.6589
L15.4500 28.6589
" />
<path d="M15.4500 28.6589
L15.4500 27.8589
" />
<path d="M16.5548 28.5827
L16.5167 28.6208
" />
<path d="M16.5167 28.6208
L16.4024 28.6589
" />
<path d="M16.4024 28.6589
L16.3262 28.6589
" />
<path d="M16.3262 28.6589
L16.2119 28.6208
" />
<path d="M16.2119 28.6208
L16.1357 28.5446
" />
<path d="M16.1357 28.5446
L16.0976 28.4684
" />
<path d="M16.0976 28.4684
L16.0595 28.3160
" />
<path d="M16.0595 28.3160
L16.0595 28.2018
" />
<path d="M16.0595 28.2018
L16.0976 28.0494
" />
<path d="M16.0976 28.0494
L16.1357 27.9732
" />
<path d="M16.1357 27.9732
L16.2119 27.8970
" />
<path d="M16.2119 27.8970
L16.3262 27.8589
" />
<path d="M16.3262 27.8589
L16.4024 27.8589
" />
<path d="M16.4024 27.8589
L16.5167 27.8970
" />
<path d="M16.5167 27.8970
L16.5548 27.9351
" />
<path d="M16.7071 28.7351
L17.3167 28.7351
" />
<path d="M17.5071 28.6589
L17.5071 27.8589
" />
<path d="M17.5071 27.8589
L17.9643 28.6589
" />
<path d="M17.9643 28.6589
L17.9643 27.8589
" />
<path d="M18.6881 28.1256
L18.6881 28.6589
" />
<path d="M18.3452 28.1256
L18.3452 28.5446
" />
<path d="M18.3452 28.5446
L18.3833 28.6208
" />
<path d="M18.3833 28.6208
L18.4595 28.6589
" />
<path d="M18.4595 28.6589
L18.5738 28.6589
" />
<path d="M18.5738 28.6589
L18.6500 28.6208
" />
<path d="M18.6500 28.6208
L18.6881 28.5827
" />
<path d="M19.0690 28.6589
L19.0690 28.1256
" />
<path d="M19.0690 28.2018
L19.1071 28.1637
" />
<path d="M19.1071 28.1637
L19.1833 28.1256
" />
<path d="M19.1833 28.1256
L19.2976 28.1256
" />
<path d="M19.2976 28.1256
L19.3738 28.1637
" />
<path d="M19.3738 28.1637
L19.4119 28.2398
" />
<path d="M19.4119 28.2398
L19.4119 28.6589
" />
<path d="M19.4119 28.2398
L19.4500 28.1637
" />
<path d="M19.4500 28.1637
L19.5262 28.1256
" />
<path d="M19.5262 28.1256
L19.6405 28.1256
" />
<path d="M19.6405 28.1256
L19.7167 28.1637
" />
<path d="M19.7167 28.1637
L19.7548 28.2398
" />
<path d="M19.7548 28.2398
L19.7548 28.6589
" />
<path d="M20.1357 28.6589
L20.1357 27.8589
" />
<path d="M20.1357 28.1637
L20.2119 28.1256
" />
<path d="M20.2119 28.1256
L20.3643 28.1256
" />
<path d="M20.3643 28.1256
L20.4405 28.1637
" />
<path d="M20.4405 28.1637
L20.4786 28.2018
" />
<path d="M20.4786 28.2018
L20.5167 28.2779
" />
<path d="M20.5167 28.2779
L20.5167 28.5065
" />
<path d="M20.5167 28.5065
L20.4786 28.5827
" />
<path d="M20.4786 28.5827
L20.4405 28.6208
" />
<path d="M20.4405 28.6208
L20.3643 28.6589
" />
<path d="M20.3643 28.6589
L20.2119 28.6589
" />
<path d="M20.2119 28.6589
L20.1357 28.6208
" />
<path d="M21.1643 28.6208
L21.0881 28.6589
" />
<path d="M21.0881 28.6589
L20.9357 28.6589
" />
<path d="M20.9357 28.6589
L20.8595 28.6208
" />
<path d="M20.8595 28.6208
L20.8214 28.5446
" />
<path d="M20.8214 28.5446
L20.8214 28.2398
" />
<path d="M20.8214 28.2398
L20.8595 28.1637
" />
<path d="M20.8595 28.1637
L20.9357 28.1256
" />
<path d="M20.9357 28.1256
L21.0881 28.1256
" />
<path d="M21.0881 28.1256
L21.1643 28.1637
" />
<path d="M21.1643 28.1637
L21.2024 28.2398
" />
<path d="M21.2024 28.2398
L21.2024 28.3160
" />
<path d="M21.2024 28.3160
L20.8214 28.3922
" />
<path d="M21.5452 28.6589
L21.5452 28.1256
" />
<path d="M21.5452 28.2779
L21.5833 28.2018
" />
<path d="M21.5833 28.2018
L21.6214 28.1637
" />
<path d="M21.6214 28.1637
L21.6976 28.1256
" />
<path d="M21.6976 28.1256
L21.7738 28.1256
" />
</g><text x="18.2500" y="30.0500"
textLength="3.9114" font-size="1.0667" lengthAdjust="spacingAndGlyphs"
text-anchor="middle" opacity="0">(Here)</text>
<g class="stroked-text"><desc>(Here)</desc>
<path d="M16.7833 30.2517
L16.7452 30.2136
" />
<path d="M16.7452 30.2136
L16.6690 30.0993
" />
<path d="M16.6690 30.0993
L16.6310 30.0231
" />
<path d="M16.6310 30.0231
L16.5929 29.9088
" />
<path d="M16.5929 29.9088
L16.5548 29.7183
" />
<path d="M16.5548 29.7183
L16.5548 29.5659
" />
<path d="M16.5548 29.5659
L16.5929 29.3755
" />
<path d="M16.5929 29.3755
L16.6310 29.2612
" />
<path d="M16.6310 29.2612
L16.6690 29.1850
" />
<path d="M16.6690 29.1850
L16.7452 29.0707
" />
<path d="M16.7452 29.0707
L16.7833 29.0326
" />
<path d="M17.0881 29.9469
L17.0881 29.1469
" />
<path d="M17.0881 29.5278
L17.5452 29.5278
" />
<path d="M17.5452 29.9469
L17.5452 29.1469
" />
<path d="M18.2310 29.9088
L18.1548 29.9469
" />
<path d="M18.1548 29.9469
L18.0024 29.9469
" />
<path d="M18.0024 29.9469
L17.9262 29.9088
" />
<path d="M17.9262 29.9088
L17.8881 29.8326
" />
<path d="M17.8881 29.8326
L17.8881 29.5278
" />
<path d="M17.8881 29.5278
L17.9262 29.4517
" />
<path d="M17.9262 29.4517
L18.0024 29.4136
" />
<path d="M18.0024 29.4136
L18.1548 29.4136
" />
<path d="M18.1548 29.4136
L18.2310 29.4517
" />
<path d="M18.2310 29.4517
L18.2690 29.5278
" />
<path d="M18.2690 29.5278
L18.2690 29.6040
" />
<path d="M18.2690 29.6040
L17.8881 29.6802
" />
<path d="M18.6119 29.9469
L18.6119 29.4136
" />
<path d="M18.6119 29.5659
L18.6500 29.4898
" />
<path d="M18.6500 29.4898
L18.6881 29.4517
" />
<path d="M18.6881 29.4517
L18.7643 29.4136
" />
<path d="M18.7643 29.4136
L18.8405 29.4136
" />
<path d="M19.4119 29.9088
L19.3357 29.9469
" />
<path d="M19.3357 29.9469
L19.1833 29.9469
" />
<path d="M19.1833 29.9469
L19.1071 29.9088
" />
<path d="M19.1071 29.9088
L19.0690 29.8326
" />
<path d="M19.0690 29.8326
L19.0690 29.5278
" />
<path d="M19.0690 29.5278
L19.1071 29.4517
" />
<path d="M19.1071 29.4517
L19.1833 29.4136
" />
<path d="M19.1833 29.4136
L19.3357 29.4136
" />
<path d="M19.3357 29.4136
L19.4119 29.4517
" />
<path d="M19.4119 29.4517
L19.4500 29.5278
" />
<path d="M19.4500 29.5278
L19.4500 29.6040
" />
<path d="M19.4500 29.6040
L19.0690 29.6802
" />
<path d="M19.7167 30.2517
L19.7548 30.2136
" />
<path d="M19.7548 30.2136
L19.8310 30.0993
" />
<path d="M19.8310 30.0993
L19.8690 30.0231
" />
<path d="M19.8690 30.0231
L19.9071 29.9088
" />
<path d="M19.9071 29.9088
L19.9452 29.7183
" />
<path d="M19.9452 29.7183
L19.9452 29.5659
" />
<path d="M19.9452 29.5659
L19.9071 29.3755
" />
<path d="M19.9071 29.3755
L19.8690 29.2612
" />
<path d="M19.8690 29.2612
L19.8310 29.1850
" />
<path d="M19.8310 29.1850
L19.7548 29.0707
" />
<path d="M19.7548 29.0707
L19.7167 29.0326
" />
</g></g>
<g style="fill:#F2EDA1; fill-opacity:0.0; 
stroke:#F2EDA1; stroke-width:0.1250; stroke-opacity:1; 
stroke-linecap:round; stroke-linejoin:round;">
<text x="25.5000" y="46.8000"
textLength="14.2340" font-size="1.0667" lengthAdjust="spacingAndGlyphs"
text-anchor="start" opacity="0">PHIL'S LAB - STM32F4</text>
<g class="stroked-text"><desc>PHIL'S LAB - STM32F4</desc>
<path d="M25.7727 46.6956
L25.7727 45.8956
" />
<path d="M25.7727 45.8956
L26.0775 45.8956
" />
<path d="M26.0775 45.8956
L26.1537 45.9337
" />
<path d="M26.1537 45.9337
L26.1918 45.9718
" />
<path d="M26.1918 45.9718
L26.2299 46.0480
" />
<path d="M26.2299 46.0480
L26.2299 46.1623
" />
<path d="M26.2299 46.1623
L26.1918 46.2385
" />
<path d="M26.1918 46.2385
L26.1537 46.2765
" />
<path d="M26.1537 46.2765
L26.0775 46.3146
" />
<path d="M26.0775 46.3146
L25.7727 46.3146
" />
<path d="M26.5727 46.6956
L26.5727 45.8956
" />
<path d="M26.5727 46.2765
L27.0299 46.2765
" />
<path d="M27.0299 46.6956
L27.0299 45.8956
" />
<path d="M27.4108 46.6956
L27.4108 45.8956
" />
<path d="M28.1727 46.6956
L27.7918 46.6956
" />
<path d="M27.7918 46.6956
L27.7918 45.8956
" />
<path d="M28.4775 45.8956
L28.4013 46.0480
" />
<path d="M28.7822 46.6575
L28.8965 46.6956
" />
<path d="M28.8965 46.6956
L29.0870 46.6956
" />
<path d="M29.0870 46.6956
L29.1632 46.6575
" />
<path d="M29.1632 46.6575
L29.2013 46.6194
" />
<path d="M29.2013 46.6194
L29.2394 46.5432
" />
<path d="M29.2394 46.5432
L29.2394 46.4670
" />
<path d="M29.2394 46.4670
L29.2013 46.3908
" />
<path d="M29.2013 46.3908
L29.1632 46.3527
" />
<path d="M29.1632 46.3527
L29.0870 46.3146
" />
<path d="M29.0870 46.3146
L28.9346 46.2765
" />
<path d="M28.9346 46.2765
L28.8584 46.2385
" />
<path d="M28.8584 46.2385
L28.8203 46.2004
" />
<path d="M28.8203 46.2004
L28.7822 46.1242
" />
<path d="M28.7822 46.1242
L28.7822 46.0480
" />
<path d="M28.7822 46.0480
L28.8203 45.9718
" />
<path d="M28.8203 45.9718
L28.8584 45.9337
" />
<path d="M28.8584 45.9337
L28.9346 45.8956
" />
<path d="M28.9346 45.8956
L29.1251 45.8956
" />
<path d="M29.1251 45.8956
L29.2394 45.9337
" />
<path d="M30.5727 46.6956
L30.1918 46.6956
" />
<path d="M30.1918 46.6956
L30.1918 45.8956
" />
<path d="M30.8013 46.4670
L31.1822 46.4670
" />
<path d="M30.7251 46.6956
L30.9918 45.8956
" />
<path d="M30.9918 45.8956
L31.2584 46.6956
" />
<path d="M31.7918 46.2765
L31.9060 46.3146
" />
<path d="M31.9060 46.3146
L31.9441 46.3527
" />
<path d="M31.9441 46.3527
L31.9822 46.4289
" />
<path d="M31.9822 46.4289
L31.9822 46.5432
" />
<path d="M31.9822 46.5432
L31.9441 46.6194
" />
<path d="M31.9441 46.6194
L31.9060 46.6575
" />
<path d="M31.9060 46.6575
L31.8299 46.6956
" />
<path d="M31.8299 46.6956
L31.5251 46.6956
" />
<path d="M31.5251 46.6956
L31.5251 45.8956
" />
<path d="M31.5251 45.8956
L31.7918 45.8956
" />
<path d="M31.7918 45.8956
L31.8679 45.9337
" />
<path d="M31.8679 45.9337
L31.9060 45.9718
" />
<path d="M31.9060 45.9718
L31.9441 46.0480
" />
<path d="M31.9441 46.0480
L31.9441 46.1242
" />
<path d="M31.9441 46.1242
L31.9060 46.2004
" />
<path d="M31.9060 46.2004
L31.8679 46.2385
" />
<path d="M31.8679 46.2385
L31.7918 46.2765
" />
<path d="M31.7918 46.2765
L31.5251 46.2765
" />
<path d="M32.9346 46.3908
L33.5441 46.3908
" />
<path d="M34.4965 46.6575
L34.6108 46.6956
" />
<path d="M34.6108 46.6956
L34.8013 46.6956
" />
<path d="M34.8013 46.6956
L34.8775 46.6575
" />
<path d="M34.8775 46.6575
L34.9156 46.6194
" />
<path d="M34.9156 46.6194
L34.9537 46.5432
" />
<path d="M34.9537 46.5432
L34.9537 46.4670
" />
<path d="M34.9537 46.4670
L34.9156 46.3908
" />
<path d="M34.9156 46.3908
L34.8775 46.3527
" />
<path d="M34.8775 46.3527
L34.8013 46.3146
" />
<path d="M34.8013 46.3146
L34.6489 46.2765
" />
<path d="M34.6489 46.2765
L34.5727 46.2385
" />
<path d="M34.5727 46.2385
L34.5346 46.2004
" />
<path d="M34.5346 46.2004
L34.4965 46.1242
" />
<path d="M34.4965 46.1242
L34.4965 46.0480
" />
<path d="M34.4965 46.0480
L34.5346 45.9718
" />
<path d="M34.5346 45.9718
L34.5727 45.9337
" />
<path d="M34.5727 45.9337
L34.6489 45.8956
" />
<path d="M34.6489 45.8956
L34.8394 45.8956
" />
<path d="M34.8394 45.8956
L34.9537 45.9337
" />
<path d="M35.1822 45.8956
L35.6394 45.8956
" />
<path d="M35.4108 46.6956
L35.4108 45.8956
" />
<path d="M35.9060 46.6956
L35.9060 45.8956
" />
<path d="M35.9060 45.8956
L36.1727 46.4670
" />
<path d="M36.1727 46.4670
L36.4394 45.8956
" />
<path d="M36.4394 45.8956
L36.4394 46.6956
" />
<path d="M36.7441 45.8956
L37.2394 45.8956
" />
<path d="M37.2394 45.8956
L36.9727 46.2004
" />
<path d="M36.9727 46.2004
L37.0870 46.2004
" />
<path d="M37.0870 46.2004
L37.1632 46.2385
" />
<path d="M37.1632 46.2385
L37.2013 46.2765
" />
<path d="M37.2013 46.2765
L37.2394 46.3527
" />
<path d="M37.2394 46.3527
L37.2394 46.5432
" />
<path d="M37.2394 46.5432
L37.2013 46.6194
" />
<path d="M37.2013 46.6194
L37.1632 46.6575
" />
<path d="M37.1632 46.6575
L37.0870 46.6956
" />
<path d="M37.0870 46.6956
L36.8584 46.6956
" />
<path d="M36.8584 46.6956
L36.7822 46.6575
" />
<path d="M36.7822 46.6575
L36.7441 46.6194
" />
<path d="M37.5441 45.9718
L37.5822 45.9337
" />
<path d="M37.5822 45.9337
L37.6584 45.8956
" />
<path d="M37.6584 45.8956
L37.8489 45.8956
" />
<path d="M37.8489 45.8956
L37.9251 45.9337
" />
<path d="M37.9251 45.9337
L37.9632 45.9718
" />
<path d="M37.9632 45.9718
L38.0013 46.0480
" />
<path d="M38.0013 46.0480
L38.0013 46.1242
" />
<path d="M38.0013 46.1242
L37.9632 46.2385
" />
<path d="M37.9632 46.2385
L37.5060 46.6956
" />
<path d="M37.5060 46.6956
L38.0013 46.6956
" />
<path d="M38.6108 46.2765
L38.3441 46.2765
" />
<path d="M38.3441 46.6956
L38.3441 45.8956
" />
<path d="M38.3441 45.8956
L38.7251 45.8956
" />
<path d="M39.3727 46.1623
L39.3727 46.6956
" />
<path d="M39.1822 45.8575
L38.9918 46.4289
" />
<path d="M38.9918 46.4289
L39.4870 46.4289
" />
</g></g>
<g style="fill:#F2EDA1; fill-opacity:0.0; 
stroke:#F2EDA1; stroke-width:0.1500; stroke-opacity:1; 
stroke-linecap:round; stroke-linejoin:round;">
<text x="5.8500" y="21.1000"
textLength="3.3452" font-size="1.3333" lengthAdjust="spacingAndGlyphs"
text-anchor="start" opacity="0">RUN</text>
<g class="stroked-text"><desc>RUN</desc>
<path d="M6.7582 20.9698
L6.4249 20.4936
" />
<path d="M6.1868 20.9698
L6.1868 19.9698
" />
<path d="M6.1868 19.9698
L6.5677 19.9698
" />
<path d="M6.5677 19.9698
L6.6630 20.0174
" />
<path d="M6.6630 20.0174
L6.7106 20.0651
" />
<path d="M6.7106 20.0651
L6.7582 20.1603
" />
<path d="M6.7582 20.1603
L6.7582 20.3032
" />
<path d="M6.7582 20.3032
L6.7106 20.3984
" />
<path d="M6.7106 20.3984
L6.6630 20.4460
" />
<path d="M6.6630 20.4460
L6.5677 20.4936
" />
<path d="M6.5677 20.4936
L6.1868 20.4936
" />
<path d="M7.1868 19.9698
L7.1868 20.7793
" />
<path d="M7.1868 20.7793
L7.2344 20.8746
" />
<path d="M7.2344 20.8746
L7.2820 20.9222
" />
<path d="M7.2820 20.9222
L7.3773 20.9698
" />
<path d="M7.3773 20.9698
L7.5677 20.9698
" />
<path d="M7.5677 20.9698
L7.6630 20.9222
" />
<path d="M7.6630 20.9222
L7.7106 20.8746
" />
<path d="M7.7106 20.8746
L7.7582 20.7793
" />
<path d="M7.7582 20.7793
L7.7582 19.9698
" />
<path d="M8.2344 20.9698
L8.2344 19.9698
" />
<path d="M8.2344 19.9698
L8.8058 20.9698
" />
<path d="M8.8058 20.9698
L8.8058 19.9698
" />
</g></g>
<g style="fill:#F2EDA1; fill-opacity:0.0; 
stroke:#F2EDA1; stroke-width:0.1000; stroke-opacity:1; 
stroke-linecap:round; stroke-linejoin:round;">
<text x="7.8500" y="33.5000"
textLength="1.1305" font-size="1.0667" lengthAdjust="spacingAndGlyphs"
text-anchor="start" opacity="0">+</text>
<g class="stroked-text"><desc>+</desc>
<path d="M8.1063 33.0921
L8.7158 33.0921
" />
<path d="M8.4110 33.3969
L8.4110 32.7874
" />
</g></g>
<g style="fill:#F2EDA1; fill-opacity:0.0; 
stroke:#F2EDA1; stroke-width:0.2000; stroke-opacity:1; 
stroke-linecap:round; stroke-linejoin:round;">
<text x="44.2000" y="36.9500"
textLength="2.6762" font-size="2.6667" lengthAdjust="spacingAndGlyphs"
text-anchor="start" opacity="0">+</text>
<g class="stroked-text"><desc>+</desc>
<path d="M44.8078 35.9329
L46.3316 35.9329
" />
<path d="M45.5697 36.6948
L45.5697 35.1710
" />
</g></g>
<g style="fill:#F2EDA1; fill-opacity:0.0; 
stroke:#F2EDA1; stroke-width:0.1000; stroke-opacity:1; 
stroke-linecap:round; stroke-linejoin:round;">
<text x="30.7000" y="27.2500"
textLength="1.1305" font-size="1.0667" lengthAdjust="spacingAndGlyphs"
text-anchor="start" opacity="0">+</text>
<g class="stroked-text"><desc>+</desc>
<path d="M30.9563 26.8421
L31.5658 26.8421
" />
<path d="M31.2610 27.1469
L31.2610 26.5374
" />
</g><text x="43.1500" y="22.9000"
textLength="1.1305" font-size="1.0667" lengthAdjust="spacingAndGlyphs"
text-anchor="start" opacity="0">+</text>
<g class="stroked-text"><desc>+</desc>
<path d="M43.4063 22.4921
L44.0158 22.4921
" />
<path d="M43.7110 22.7969
L43.7110 22.1874
" />
</g><text x="37.7000" y="3.4500"
textLength="1.1305" font-size="1.0667" lengthAdjust="spacingAndGlyphs"
text-anchor="start" opacity="0">+</text>
<g class="stroked-text"><desc>+</desc>
<path d="M37.9563 3.0421
L38.5658 3.0421
" />
<path d="M38.2610 3.3469
L38.2610 2.7374
" />
</g></g>
<g style="fill:#F2EDA1; fill-opacity:0.0; 
stroke:#F2EDA1; stroke-width:0.1500; stroke-opacity:1; 
stroke-linecap:round; stroke-linejoin:round;">
</g>
<g style="fill:#F2EDA1; fill-opacity:1.0000; 
stroke:#F2EDA1; stroke-width:0.0000; stroke-opacity:1; 
stroke-linecap:round; stroke-linejoin:round;">
<circle cx="44.7500" cy="18.3500" r="0.1250" /> 
</g>
<g style="fill:#F2EDA1; fill-opacity:0.0; 
stroke:#F2EDA1; stroke-width:0.1500; stroke-opacity:1; 
stroke-linecap:round; stroke-linejoin:round;">
</g>
<g style="fill:#F2EDA1; fill-opacity:1.0000; 
stroke:#F2EDA1; stroke-width:0.0000; stroke-opacity:1; 
stroke-linecap:round; stroke-linejoin:round;">
<circle cx="43.0000" cy="18.0500" r="0.1250" /> 
</g>
<g style="fill:#F2EDA1; fill-opacity:0.0; 
stroke:#F2EDA1; stroke-width:0.1500; stroke-opacity:1; 
stroke-linecap:round; stroke-linejoin:round;">
</g>
<g style="fill:#F2EDA1; fill-opacity:1.0000; 
stroke:#F2EDA1; stroke-width:0.0000; stroke-opacity:1; 
stroke-linecap:round; stroke-linejoin:round;">
<circle cx="38.9500" cy="25.5500" r="0.1250" /> 
</g>
<g style="fill:#F2EDA1; fill-opacity:0.0; 
stroke:#F2EDA1; stroke-width:0.1500; stroke-opacity:1; 
stroke-linecap:round; stroke-linejoin:round;">
</g>
<g style="fill:#F2EDA1; fill-opacity:1.0000; 
stroke:#F2EDA1; stroke-width:0.0000; stroke-opacity:1; 
stroke-linecap:round; stroke-linejoin:round;">
<circle cx="34.2000" cy="37.4500" r="0.1250" /> 
</g>
<g style="fill:#F2EDA1; fill-opacity:0.0; 
stroke:#F2EDA1; stroke-width:0.1500; stroke-opacity:1; 
stroke-linecap:round; stroke-linejoin:round;">
</g>
<g style="fill:#F2EDA1; fill-opacity:1.0000; 
stroke:#F2EDA1; stroke-width:0.0000; stroke-opacity:1; 
stroke-linecap:round; stroke-linejoin:round;">
<circle cx="10.9500" cy="24.2500" r="0.1250" /> 
</g>
<g style="fill:#F2EDA1; fill-opacity:1.0000; 
stroke:#F2EDA1; stroke-width:0.1500; stroke-opacity:1; 
stroke-linecap:round; stroke-linejoin:round;">
</g>
<g style="fill:#F2EDA1; fill-opacity:0.0; 
stroke:#F2EDA1; stroke-width:0.1500; stroke-opacity:1; 
stroke-linecap:round; stroke-linejoin:round;">
<text x="7.2500" y="37.6000"
textLength="5.5833" font-size="1.3333" lengthAdjust="spacingAndGlyphs"
text-anchor="start" opacity="0">STATUS</text>
<g class="stroked-text"><desc>STATUS</desc>
<path d="M7.5392 37.4222
L7.6820 37.4698
" />
<path d="M7.6820 37.4698
L7.9201 37.4698
" />
<path d="M7.9201 37.4698
L8.0153 37.4222
" />
<path d="M8.0153 37.4222
L8.0630 37.3746
" />
<path d="M8.0630 37.3746
L8.1106 37.2793
" />
<path d="M8.1106 37.2793
L8.1106 37.1841
" />
<path d="M8.1106 37.1841
L8.0630 37.0889
" />
<path d="M8.0630 37.0889
L8.0153 37.0412
" />
<path d="M8.0153 37.0412
L7.9201 36.9936
" />
<path d="M7.9201 36.9936
L7.7296 36.9460
" />
<path d="M7.7296 36.9460
L7.6344 36.8984
" />
<path d="M7.6344 36.8984
L7.5868 36.8508
" />
<path d="M7.5868 36.8508
L7.5392 36.7555
" />
<path d="M7.5392 36.7555
L7.5392 36.6603
" />
<path d="M7.5392 36.6603
L7.5868 36.5651
" />
<path d="M7.5868 36.5651
L7.6344 36.5174
" />
<path d="M7.6344 36.5174
L7.7296 36.4698
" />
<path d="M7.7296 36.4698
L7.9677 36.4698
" />
<path d="M7.9677 36.4698
L8.1106 36.5174
" />
<path d="M8.3963 36.4698
L8.9677 36.4698
" />
<path d="M8.6820 37.4698
L8.6820 36.4698
" />
<path d="M9.2534 37.1841
L9.7296 37.1841
" />
<path d="M9.1582 37.4698
L9.4915 36.4698
" />
<path d="M9.4915 36.4698
L9.8249 37.4698
" />
<path d="M10.0154 36.4698
L10.5868 36.4698
" />
<path d="M10.3011 37.4698
L10.3011 36.4698
" />
<path d="M10.9201 36.4698
L10.9201 37.2793
" />
<path d="M10.9201 37.2793
L10.9677 37.3746
" />
<path d="M10.9677 37.3746
L11.0154 37.4222
" />
<path d="M11.0154 37.4222
L11.1106 37.4698
" />
<path d="M11.1106 37.4698
L11.3011 37.4698
" />
<path d="M11.3011 37.4698
L11.3963 37.4222
" />
<path d="M11.3963 37.4222
L11.4439 37.3746
" />
<path d="M11.4439 37.3746
L11.4915 37.2793
" />
<path d="M11.4915 37.2793
L11.4915 36.4698
" />
<path d="M11.9201 37.4222
L12.0630 37.4698
" />
<path d="M12.0630 37.4698
L12.3011 37.4698
" />
<path d="M12.3011 37.4698
L12.3963 37.4222
" />
<path d="M12.3963 37.4222
L12.4439 37.3746
" />
<path d="M12.4439 37.3746
L12.4915 37.2793
" />
<path d="M12.4915 37.2793
L12.4915 37.1841
" />
<path d="M12.4915 37.1841
L12.4439 37.0889
" />
<path d="M12.4439 37.0889
L12.3963 37.0412
" />
<path d="M12.3963 37.0412
L12.3011 36.9936
" />
<path d="M12.3011 36.9936
L12.1106 36.9460
" />
<path d="M12.1106 36.9460
L12.0154 36.8984
" />
<path d="M12.0154 36.8984
L11.9677 36.8508
" />
<path d="M11.9677 36.8508
L11.9201 36.7555
" />
<path d="M11.9201 36.7555
L11.9201 36.6603
" />
<path d="M11.9201 36.6603
L11.9677 36.5651
" />
<path d="M11.9677 36.5651
L12.0154 36.5174
" />
<path d="M12.0154 36.5174
L12.1106 36.4698
" />
<path d="M12.1106 36.4698
L12.3487 36.4698
" />
<path d="M12.3487 36.4698
L12.4915 36.5174
" />
</g><text x="35.2500" y="2.9000"
textLength="3.0119" font-size="1.3333" lengthAdjust="spacingAndGlyphs"
text-anchor="start" opacity="0">3V3</text>
<g class="stroked-text"><desc>3V3</desc>
<path d="M35.4915 1.7698
L36.1106 1.7698
" />
<path d="M36.1106 1.7698
L35.7773 2.1508
" />
<path d="M35.7773 2.1508
L35.9201 2.1508
" />
<path d="M35.9201 2.1508
L36.0153 2.1984
" />
<path d="M36.0153 2.1984
L36.0630 2.2460
" />
<path d="M36.0630 2.2460
L36.1106 2.3412
" />
<path d="M36.1106 2.3412
L36.1106 2.5793
" />
<path d="M36.1106 2.5793
L36.0630 2.6746
" />
<path d="M36.0630 2.6746
L36.0153 2.7222
" />
<path d="M36.0153 2.7222
L35.9201 2.7698
" />
<path d="M35.9201 2.7698
L35.6344 2.7698
" />
<path d="M35.6344 2.7698
L35.5392 2.7222
" />
<path d="M35.5392 2.7222
L35.4915 2.6746
" />
<path d="M36.3963 1.7698
L36.7296 2.7698
" />
<path d="M36.7296 2.7698
L37.0630 1.7698
" />
<path d="M37.3011 1.7698
L37.9201 1.7698
" />
<path d="M37.9201 1.7698
L37.5868 2.1508
" />
<path d="M37.5868 2.1508
L37.7296 2.1508
" />
<path d="M37.7296 2.1508
L37.8249 2.1984
" />
<path d="M37.8249 2.1984
L37.8725 2.2460
" />
<path d="M37.8725 2.2460
L37.9201 2.3412
" />
<path d="M37.9201 2.3412
L37.9201 2.5793
" />
<path d="M37.9201 2.5793
L37.8725 2.6746
" />
<path d="M37.8725 2.6746
L37.8249 2.7222
" />
<path d="M37.8249 2.7222
L37.7296 2.7698
" />
<path d="M37.7296 2.7698
L37.4439 2.7698
" />
<path d="M37.4439 2.7698
L37.3487 2.7222
" />
<path d="M37.3487 2.7222
L37.3011 2.6746
" />
</g><text x="26.8500" y="3.1500"
textLength="3.3452" font-size="1.3333" lengthAdjust="spacingAndGlyphs"
text-anchor="start" opacity="0">SWD</text>
<g class="stroked-text"><desc>SWD</desc>
<path d="M27.1392 2.9722
L27.2820 3.0198
" />
<path d="M27.2820 3.0198
L27.5201 3.0198
" />
<path d="M27.5201 3.0198
L27.6153 2.9722
" />
<path d="M27.6153 2.9722
L27.6630 2.9246
" />
<path d="M27.6630 2.9246
L27.7106 2.8293
" />
<path d="M27.7106 2.8293
L27.7106 2.7341
" />
<path d="M27.7106 2.7341
L27.6630 2.6389
" />
<path d="M27.6630 2.6389
L27.6153 2.5912
" />
<path d="M27.6153 2.5912
L27.5201 2.5436
" />
<path d="M27.5201 2.5436
L27.3296 2.4960
" />
<path d="M27.3296 2.4960
L27.2344 2.4484
" />
<path d="M27.2344 2.4484
L27.1868 2.4008
" />
<path d="M27.1868 2.4008
L27.1392 2.3055
" />
<path d="M27.1392 2.3055
L27.1392 2.2103
" />
<path d="M27.1392 2.2103
L27.1868 2.1151
" />
<path d="M27.1868 2.1151
L27.2344 2.0674
" />
<path d="M27.2344 2.0674
L27.3296 2.0198
" />
<path d="M27.3296 2.0198
L27.5677 2.0198
" />
<path d="M27.5677 2.0198
L27.7106 2.0674
" />
<path d="M28.0439 2.0198
L28.2820 3.0198
" />
<path d="M28.2820 3.0198
L28.4725 2.3055
" />
<path d="M28.4725 2.3055
L28.6630 3.0198
" />
<path d="M28.6630 3.0198
L28.9011 2.0198
" />
<path d="M29.2820 3.0198
L29.2820 2.0198
" />
<path d="M29.2820 2.0198
L29.5201 2.0198
" />
<path d="M29.5201 2.0198
L29.6630 2.0674
" />
<path d="M29.6630 2.0674
L29.7582 2.1627
" />
<path d="M29.7582 2.1627
L29.8058 2.2579
" />
<path d="M29.8058 2.2579
L29.8534 2.4484
" />
<path d="M29.8534 2.4484
L29.8534 2.5912
" />
<path d="M29.8534 2.5912
L29.8058 2.7817
" />
<path d="M29.8058 2.7817
L29.7582 2.8770
" />
<path d="M29.7582 2.8770
L29.6630 2.9722
" />
<path d="M29.6630 2.9722
L29.5201 3.0198
" />
<path d="M29.5201 3.0198
L29.2820 3.0198
" />
</g><text x="5.9500" y="13.4000"
textLength="4.1071" font-size="1.3333" lengthAdjust="spacingAndGlyphs"
text-anchor="start" opacity="0">BOOT</text>
<g class="stroked-text"><desc>BOOT</desc>
<path d="M6.6201 12.7460
L6.7630 12.7936
" />
<path d="M6.7630 12.7936
L6.8106 12.8412
" />
<path d="M6.8106 12.8412
L6.8582 12.9365
" />
<path d="M6.8582 12.9365
L6.8582 13.0793
" />
<path d="M6.8582 13.0793
L6.8106 13.1746
" />
<path d="M6.8106 13.1746
L6.7630 13.2222
" />
<path d="M6.7630 13.2222
L6.6677 13.2698
" />
<path d="M6.6677 13.2698
L6.2868 13.2698
" />
<path d="M6.2868 13.2698
L6.2868 12.2698
" />
<path d="M6.2868 12.2698
L6.6201 12.2698
" />
<path d="M6.6201 12.2698
L6.7153 12.3174
" />
<path d="M6.7153 12.3174
L6.7630 12.3651
" />
<path d="M6.7630 12.3651
L6.8106 12.4603
" />
<path d="M6.8106 12.4603
L6.8106 12.5555
" />
<path d="M6.8106 12.5555
L6.7630 12.6508
" />
<path d="M6.7630 12.6508
L6.7153 12.6984
" />
<path d="M6.7153 12.6984
L6.6201 12.7460
" />
<path d="M6.6201 12.7460
L6.2868 12.7460
" />
<path d="M7.4773 12.2698
L7.6677 12.2698
" />
<path d="M7.6677 12.2698
L7.7630 12.3174
" />
<path d="M7.7630 12.3174
L7.8582 12.4127
" />
<path d="M7.8582 12.4127
L7.9058 12.6032
" />
<path d="M7.9058 12.6032
L7.9058 12.9365
" />
<path d="M7.9058 12.9365
L7.8582 13.1270
" />
<path d="M7.8582 13.1270
L7.7630 13.2222
" />
<path d="M7.7630 13.2222
L7.6677 13.2698
" />
<path d="M7.6677 13.2698
L7.4773 13.2698
" />
<path d="M7.4773 13.2698
L7.3820 13.2222
" />
<path d="M7.3820 13.2222
L7.2868 13.1270
" />
<path d="M7.2868 13.1270
L7.2392 12.9365
" />
<path d="M7.2392 12.9365
L7.2392 12.6032
" />
<path d="M7.2392 12.6032
L7.2868 12.4127
" />
<path d="M7.2868 12.4127
L7.3820 12.3174
" />
<path d="M7.3820 12.3174
L7.4773 12.2698
" />
<path d="M8.5249 12.2698
L8.7153 12.2698
" />
<path d="M8.7153 12.2698
L8.8106 12.3174
" />
<path d="M8.8106 12.3174
L8.9058 12.4127
" />
<path d="M8.9058 12.4127
L8.9534 12.6032
" />
<path d="M8.9534 12.6032
L8.9534 12.9365
" />
<path d="M8.9534 12.9365
L8.9058 13.1270
" />
<path d="M8.9058 13.1270
L8.8106 13.2222
" />
<path d="M8.8106 13.2222
L8.7153 13.2698
" />
<path d="M8.7153 13.2698
L8.5249 13.2698
" />
<path d="M8.5249 13.2698
L8.4296 13.2222
" />
<path d="M8.4296 13.2222
L8.3344 13.1270
" />
<path d="M8.3344 13.1270
L8.2868 12.9365
" />
<path d="M8.2868 12.9365
L8.2868 12.6032
" />
<path d="M8.2868 12.6032
L8.3344 12.4127
" />
<path d="M8.3344 12.4127
L8.4296 12.3174
" />
<path d="M8.4296 12.3174
L8.5249 12.2698
" />
<path d="M9.2392 12.2698
L9.8106 12.2698
" />
<path d="M9.5249 13.2698
L9.5249 12.2698
" />
</g><text x="44.0000" y="25.3500"
textLength="5.3452" font-size="1.3333" lengthAdjust="spacingAndGlyphs"
text-anchor="start" opacity="0">POWER</text>
<g class="stroked-text"><desc>POWER</desc>
<path d="M44.3368 25.2198
L44.3368 24.2198
" />
<path d="M44.3368 24.2198
L44.7177 24.2198
" />
<path d="M44.7177 24.2198
L44.8130 24.2674
" />
<path d="M44.8130 24.2674
L44.8606 24.3151
" />
<path d="M44.8606 24.3151
L44.9082 24.4103
" />
<path d="M44.9082 24.4103
L44.9082 24.5532
" />
<path d="M44.9082 24.5532
L44.8606 24.6484
" />
<path d="M44.8606 24.6484
L44.8130 24.6960
" />
<path d="M44.8130 24.6960
L44.7177 24.7436
" />
<path d="M44.7177 24.7436
L44.3368 24.7436
" />
<path d="M45.5273 24.2198
L45.7177 24.2198
" />
<path d="M45.7177 24.2198
L45.8130 24.2674
" />
<path d="M45.8130 24.2674
L45.9082 24.3627
" />
<path d="M45.9082 24.3627
L45.9558 24.5532
" />
<path d="M45.9558 24.5532
L45.9558 24.8865
" />
<path d="M45.9558 24.8865
L45.9082 25.0770
" />
<path d="M45.9082 25.0770
L45.8130 25.1722
" />
<path d="M45.8130 25.1722
L45.7177 25.2198
" />
<path d="M45.7177 25.2198
L45.5273 25.2198
" />
<path d="M45.5273 25.2198
L45.4320 25.1722
" />
<path d="M45.4320 25.1722
L45.3368 25.0770
" />
<path d="M45.3368 25.0770
L45.2892 24.8865
" />
<path d="M45.2892 24.8865
L45.2892 24.5532
" />
<path d="M45.2892 24.5532
L45.3368 24.3627
" />
<path d="M45.3368 24.3627
L45.4320 24.2674
" />
<path d="M45.4320 24.2674
L45.5273 24.2198
" />
<path d="M46.2892 24.2198
L46.5273 25.2198
" />
<path d="M46.5273 25.2198
L46.7177 24.5055
" />
<path d="M46.7177 24.5055
L46.9082 25.2198
" />
<path d="M46.9082 25.2198
L47.1463 24.2198
" />
<path d="M47.5273 24.6960
L47.8606 24.6960
" />
<path d="M48.0034 25.2198
L47.5273 25.2198
" />
<path d="M47.5273 25.2198
L47.5273 24.2198
" />
<path d="M47.5273 24.2198
L48.0034 24.2198
" />
<path d="M49.0034 25.2198
L48.6701 24.7436
" />
<path d="M48.4320 25.2198
L48.4320 24.2198
" />
<path d="M48.4320 24.2198
L48.8130 24.2198
" />
<path d="M48.8130 24.2198
L48.9082 24.2674
" />
<path d="M48.9082 24.2674
L48.9558 24.3151
" />
<path d="M48.9558 24.3151
L49.0034 24.4103
" />
<path d="M49.0034 24.4103
L49.0034 24.5532
" />
<path d="M49.0034 24.5532
L48.9558 24.6484
" />
<path d="M48.9558 24.6484
L48.9082 24.6960
" />
<path d="M48.9082 24.6960
L48.8130 24.7436
" />
<path d="M48.8130 24.7436
L48.4320 24.7436
" />
</g><text x="46.1000" y="23.0500"
textLength="3.2500" font-size="1.3333" lengthAdjust="spacingAndGlyphs"
text-anchor="start" opacity="0">USB</text>
<g class="stroked-text"><desc>USB</desc>
<path d="M46.4368 21.9198
L46.4368 22.7293
" />
<path d="M46.4368 22.7293
L46.4844 22.8246
" />
<path d="M46.4844 22.8246
L46.5320 22.8722
" />
<path d="M46.5320 22.8722
L46.6273 22.9198
" />
<path d="M46.6273 22.9198
L46.8177 22.9198
" />
<path d="M46.8177 22.9198
L46.9130 22.8722
" />
<path d="M46.9130 22.8722
L46.9606 22.8246
" />
<path d="M46.9606 22.8246
L47.0082 22.7293
" />
<path d="M47.0082 22.7293
L47.0082 21.9198
" />
<path d="M47.4368 22.8722
L47.5796 22.9198
" />
<path d="M47.5796 22.9198
L47.8177 22.9198
" />
<path d="M47.8177 22.9198
L47.9130 22.8722
" />
<path d="M47.9130 22.8722
L47.9606 22.8246
" />
<path d="M47.9606 22.8246
L48.0082 22.7293
" />
<path d="M48.0082 22.7293
L48.0082 22.6341
" />
<path d="M48.0082 22.6341
L47.9606 22.5389
" />
<path d="M47.9606 22.5389
L47.9130 22.4912
" />
<path d="M47.9130 22.4912
L47.8177 22.4436
" />
<path d="M47.8177 22.4436
L47.6273 22.3960
" />
<path d="M47.6273 22.3960
L47.5320 22.3484
" />
<path d="M47.5320 22.3484
L47.4844 22.3008
" />
<path d="M47.4844 22.3008
L47.4368 22.2055
" />
<path d="M47.4368 22.2055
L47.4368 22.1103
" />
<path d="M47.4368 22.1103
L47.4844 22.0151
" />
<path d="M47.4844 22.0151
L47.5320 21.9674
" />
<path d="M47.5320 21.9674
L47.6273 21.9198
" />
<path d="M47.6273 21.9198
L47.8653 21.9198
" />
<path d="M47.8653 21.9198
L48.0082 21.9674
" />
<path d="M48.7701 22.3960
L48.9130 22.4436
" />
<path d="M48.9130 22.4436
L48.9606 22.4912
" />
<path d="M48.9606 22.4912
L49.0082 22.5865
" />
<path d="M49.0082 22.5865
L49.0082 22.7293
" />
<path d="M49.0082 22.7293
L48.9606 22.8246
" />
<path d="M48.9606 22.8246
L48.9130 22.8722
" />
<path d="M48.9130 22.8722
L48.8177 22.9198
" />
<path d="M48.8177 22.9198
L48.4368 22.9198
" />
<path d="M48.4368 22.9198
L48.4368 21.9198
" />
<path d="M48.4368 21.9198
L48.7701 21.9198
" />
<path d="M48.7701 21.9198
L48.8653 21.9674
" />
<path d="M48.8653 21.9674
L48.9130 22.0151
" />
<path d="M48.9130 22.0151
L48.9606 22.1103
" />
<path d="M48.9606 22.1103
L48.9606 22.2055
" />
<path d="M48.9606 22.2055
L48.9130 22.3008
" />
<path d="M48.9130 22.3008
L48.8653 22.3484
" />
<path d="M48.8653 22.3484
L48.7701 22.3960
" />
<path d="M48.7701 22.3960
L48.4368 22.3960
" />
</g><text x="16.4500" y="43.1000"
textLength="3.9167" font-size="1.3333" lengthAdjust="spacingAndGlyphs"
text-anchor="start" opacity="0">UART</text>
<g class="stroked-text"><desc>UART</desc>
<path d="M16.7868 41.9698
L16.7868 42.7793
" />
<path d="M16.7868 42.7793
L16.8344 42.8746
" />
<path d="M16.8344 42.8746
L16.8820 42.9222
" />
<path d="M16.8820 42.9222
L16.9773 42.9698
" />
<path d="M16.9773 42.9698
L17.1677 42.9698
" />
<path d="M17.1677 42.9698
L17.2630 42.9222
" />
<path d="M17.2630 42.9222
L17.3106 42.8746
" />
<path d="M17.3106 42.8746
L17.3582 42.7793
" />
<path d="M17.3582 42.7793
L17.3582 41.9698
" />
<path d="M17.7868 42.6841
L18.2630 42.6841
" />
<path d="M17.6915 42.9698
L18.0249 41.9698
" />
<path d="M18.0249 41.9698
L18.3582 42.9698
" />
<path d="M19.2630 42.9698
L18.9296 42.4936
" />
<path d="M18.6915 42.9698
L18.6915 41.9698
" />
<path d="M18.6915 41.9698
L19.0725 41.9698
" />
<path d="M19.0725 41.9698
L19.1677 42.0174
" />
<path d="M19.1677 42.0174
L19.2154 42.0651
" />
<path d="M19.2154 42.0651
L19.2630 42.1603
" />
<path d="M19.2630 42.1603
L19.2630 42.3032
" />
<path d="M19.2630 42.3032
L19.2154 42.3984
" />
<path d="M19.2154 42.3984
L19.1677 42.4460
" />
<path d="M19.1677 42.4460
L19.0725 42.4936
" />
<path d="M19.0725 42.4936
L18.6915 42.4936
" />
<path d="M19.5487 41.9698
L20.1201 41.9698
" />
<path d="M19.8344 42.9698
L19.8344 41.9698
" />
</g><text x="16.6500" y="9.3000"
textLength="2.6786" font-size="1.3333" lengthAdjust="spacingAndGlyphs"
text-anchor="start" opacity="0">I2C</text>
<g class="stroked-text"><desc>I2C</desc>
<path d="M16.9868 9.1698
L16.9868 8.1698
" />
<path d="M17.4154 8.2651
L17.4630 8.2174
" />
<path d="M17.4630 8.2174
L17.5582 8.1698
" />
<path d="M17.5582 8.1698
L17.7963 8.1698
" />
<path d="M17.7963 8.1698
L17.8915 8.2174
" />
<path d="M17.8915 8.2174
L17.9392 8.2651
" />
<path d="M17.9392 8.2651
L17.9868 8.3603
" />
<path d="M17.9868 8.3603
L17.9868 8.4555
" />
<path d="M17.9868 8.4555
L17.9392 8.5984
" />
<path d="M17.9392 8.5984
L17.3677 9.1698
" />
<path d="M17.3677 9.1698
L17.9868 9.1698
" />
<path d="M18.9868 9.0746
L18.9392 9.1222
" />
<path d="M18.9392 9.1222
L18.7963 9.1698
" />
<path d="M18.7963 9.1698
L18.7011 9.1698
" />
<path d="M18.7011 9.1698
L18.5582 9.1222
" />
<path d="M18.5582 9.1222
L18.4630 9.0270
" />
<path d="M18.4630 9.0270
L18.4154 8.9317
" />
<path d="M18.4154 8.9317
L18.3677 8.7412
" />
<path d="M18.3677 8.7412
L18.3677 8.5984
" />
<path d="M18.3677 8.5984
L18.4154 8.4079
" />
<path d="M18.4154 8.4079
L18.4630 8.3127
" />
<path d="M18.4630 8.3127
L18.5582 8.2174
" />
<path d="M18.5582 8.2174
L18.7011 8.1698
" />
<path d="M18.7011 8.1698
L18.7963 8.1698
" />
<path d="M18.7963 8.1698
L18.9392 8.2174
" />
<path d="M18.9392 8.2174
L18.9868 8.2651
" />
</g></g>
<g style="fill:#F2EDA1; fill-opacity:0.0; 
stroke:#F2EDA1; stroke-width:0.1200; stroke-opacity:1; 
stroke-linecap:round; stroke-linejoin:round;">
<path d="M21.7350 50.7600
L21.7350 50.3100
" />
<path d="M14.7650 46.7900
L14.7650 46.3400
" />
<path d="M14.7650 50.3100
L14.7650 50.7600
" />
<path d="M15.7150 46.3400
L15.7150 44.8500
" />
<path d="M14.7650 46.3400
L15.7150 46.3400
" />
<path d="M21.7350 46.3400
L20.7850 46.3400
" />
<path d="M21.7350 46.7900
L21.7350 46.3400
" />
<path d="M14.7650 50.7600
L21.7350 50.7600
" />
<path d="M14.6150 0.5400
L14.6150 0.9900
" />
<path d="M21.5850 4.5100
L21.5850 4.9600
" />
<path d="M21.5850 0.9900
L21.5850 0.5400
" />
<path d="M20.6350 4.9600
L20.6350 6.4500
" />
<path d="M21.5850 4.9600
L20.6350 4.9600
" />
<path d="M14.6150 4.9600
L15.5650 4.9600
" />
<path d="M14.6150 4.5100
L14.6150 4.9600
" />
<path d="M21.5850 0.5400
L14.6150 0.5400
" />
</g>
<g style="fill:#F2EDA1; fill-opacity:1.0000; 
stroke:#F2EDA1; stroke-width:0.0000; stroke-opacity:1; 
stroke-linecap:round; stroke-linejoin:round;">
<path style="fill:#F2EDA1; fill-opacity:1.0000; 
stroke:#F2EDA1; stroke-width:0.0000; stroke-opacity:1; 
stroke-linecap:round; stroke-linejoin:round;fill-rule:evenodd;"
d="M 35.5514,13.8742
35.5514,14.1384
31.6829,14.1384
27.8144,14.1384
27.8144,13.8742
27.8144,13.6100
31.6829,13.6100
35.5514,13.6100
Z" /> 
<path style="fill:#F2EDA1; fill-opacity:1.0000; 
stroke:#F2EDA1; stroke-width:0.0000; stroke-opacity:1; 
stroke-linecap:round; stroke-linejoin:round;fill-rule:evenodd;"
d="M 28.7987,14.6280
29.0000,14.6305
29.1620,14.6343
29.2733,14.6391
29.3226,14.6446
29.3241,14.6458
29.3335,14.6873
29.3600,14.7927
29.4014,14.9529
29.4550,15.1586
29.5187,15.4010
29.5898,15.6708
29.6660,15.9591
29.7450,16.2566
29.8242,16.5544
29.9013,16.8434
29.9739,17.1144
30.0395,17.3584
30.0957,17.5664
30.1402,17.7292
30.1704,17.8377
30.1840,17.8826
30.1999,17.8639
30.2328,17.7745
30.2820,17.6173
30.3466,17.3950
30.4258,17.1103
30.5189,16.7660
30.6250,16.3648
30.6450,16.2883
31.0791,14.6277
31.8433,14.6274
32.6076,14.6271
32.6076,15.6084
32.6076,16.5897
33.5700,16.5897
34.5324,16.5897
34.5324,15.6084
34.5324,14.6271
35.0419,14.6271
35.5514,14.6271
35.5514,17.0992
35.5514,19.5713
35.0419,19.5713
34.5324,19.5713
34.5324,18.4956
34.5324,17.4200
33.5700,17.4200
32.6076,17.4200
32.6076,18.4956
32.6076,19.5713
32.1358,19.5713
31.6641,19.5713
31.6641,18.8603
31.6631,18.6286
31.6605,18.3399
31.6564,18.0128
31.6512,17.6658
31.6450,17.3174
31.6385,17.0016
31.6130,15.8537
31.1735,17.6087
31.0846,17.9637
31.0006,18.2990
30.9234,18.6069
30.8551,18.8797
30.7974,19.1099
30.7523,19.2897
30.7217,19.4115
30.7077,19.4675
30.6813,19.5713
30.1949,19.5713
29.7085,19.5713
29.2373,17.6748
28.7661,15.7782
28.7620,17.6748
28.7580,19.5713
28.2862,19.5713
27.8144,19.5713
27.8144,17.0992
27.8144,14.6271
28.5693,14.6271
Z" /> 
</g>
<g style="fill:#F2EDA1; fill-opacity:1.0000; 
stroke:#F2EDA1; stroke-width:0.1200; stroke-opacity:1; 
stroke-linecap:round; stroke-linejoin:round;">
</g>
<g style="fill:#F2EDA1; fill-opacity:0.0; 
stroke:#F2EDA1; stroke-width:0.1200; stroke-opacity:1; 
stroke-linecap:round; stroke-linejoin:round;">
<path d="M36.3877 5.5775
L36.8623 5.5775
" />
<path d="M36.3877 6.6225
L36.8623 6.6225
" />
<path d="M8.5000 24.5000
L5.2000 24.5000
" />
<path d="M5.2000 24.5000
L5.2000 28.5000
" />
<path d="M14.2622 19.8400
L14.4778 19.8400
" />
<path d="M14.2622 20.5600
L14.4778 20.5600
" />
<path d="M23.5622 33.8400
L23.7778 33.8400
" />
<path d="M23.5622 34.5600
L23.7778 34.5600
" />
<path d="M7.2778 29.6600
L7.0622 29.6600
" />
<path d="M7.2778 28.9400
L7.0622 28.9400
" />
<path d="M36.0521 24.5100
L34.8479 24.5100
" />
<path d="M36.0521 22.6900
L34.8479 22.6900
" />
<path d="M28.0900 27.4000
L28.0900 29.4000
" />
<path d="M28.0900 27.4000
L32.1000 27.4000
" />
<path d="M28.0900 29.4000
L32.1000 29.4000
" />
<path d="M39.5100 27.5000
L39.5100 25.8250
" />
<path d="M39.5100 27.5000
L39.5100 28.1500
" />
<path d="M36.3900 27.5000
L36.3900 26.8500
" />
<path d="M36.3900 27.5000
L36.3900 28.1500
" />
<path d="M40.2725 37.6627
L40.2725 38.1373
" />
<path d="M39.2275 37.6627
L39.2275 38.1373
" />
<path d="M38.7900 22.5000
L38.7900 24.5000
" />
<path d="M38.7900 22.5000
L42.8000 22.5000
" />
<path d="M38.7900 24.5000
L42.8000 24.5000
" />
<path d="M30.7100 30.4400
L29.8600 30.4400
" />
<path d="M30.7100 30.4400
L30.7100 35.3600
" />
<path d="M25.9900 30.4400
L26.8400 30.4400
" />
<path d="M25.9900 30.4400
L25.9900 35.3600
" />
<path d="M30.7100 35.3600
L29.8600 35.3600
" />
<path d="M25.9900 35.3600
L26.8400 35.3600
" />
<path d="M40.8425 34.7825
L40.8425 32.7825
" />
<path d="M42.0925 34.7825
L40.8425 34.7825
" />
<path d="M41.2325 34.3925
L48.7025 34.3925
" />
<path d="M48.7025 34.3925
L48.7025 25.7725
" />
<path d="M42.1925 33.3325
L42.1925 30.3325
" />
<path d="M43.5425 33.3325
L43.5425 32.5825
" />
<path d="M47.8425 33.3325
L43.5425 33.3325
" />
<path d="M43.1925 33.0825
L42.1925 33.3325
" />
<path d="M43.1925 32.5825
L43.1925 33.0825
" />
<path d="M43.5425 32.5825
L43.1925 32.5825
" />
<path d="M47.8425 32.5825
L47.8425 33.3325
" />
<path d="M43.1925 31.0825
L43.5425 31.0825
" />
<path d="M43.5425 31.0825
L43.5425 30.3325
" />
<path d="M43.1925 30.5825
L43.1925 31.0825
" />
<path d="M42.1925 30.3325
L43.1925 30.5825
" />
<path d="M43.5425 30.3325
L47.8425 30.3325
" />
<path d="M47.8425 30.3325
L47.8425 31.0825
" />
<path d="M42.1925 29.8325
L42.1925 26.8325
" />
<path d="M43.5425 29.8325
L43.5425 29.0825
" />
<path d="M47.8425 29.8325
L43.5425 29.8325
" />
<path d="M43.1925 29.5825
L42.1925 29.8325
" />
<path d="M43.1925 29.0825
L43.1925 29.5825
" />
<path d="M43.5425 29.0825
L43.1925 29.0825
" />
<path d="M47.8425 29.0825
L47.8425 29.8325
" />
<path d="M43.1925 27.5825
L43.5425 27.5825
" />
<path d="M43.5425 27.5825
L43.5425 26.8325
" />
<path d="M43.1925 27.0825
L43.1925 27.5825
" />
<path d="M42.1925 26.8325
L43.1925 27.0825
" />
<path d="M43.5425 26.8325
L47.8425 26.8325
" />
<path d="M47.8425 26.8325
L47.8425 27.5825
" />
<path d="M41.2325 25.7725
L41.2325 34.3925
" />
<path d="M48.7025 25.7725
L41.2325 25.7725
" />
<path d="M47.8423 31.0829 A1.8581 1.8581 0.0 0 0 47.8425 32.5825" />
<path d="M47.8423 27.5829 A1.8581 1.8581 0.0 0 0 47.8425 29.0825" />
<path d="M34.7100 27.2004
L34.7100 27.9996
" />
<path d="M33.5900 27.2004
L33.5900 27.9996
" />
<path d="M29.6387 36.5900
L31.0613 36.5900
" />
<path d="M29.6387 38.4100
L31.0613 38.4100
" />
<path d="M40.9500 18.6600
L42.7500 18.6600
" />
<path d="M40.9500 18.6600
L40.1500 18.6600
" />
<path d="M40.9500 15.5400
L41.7500 15.5400
" />
<path d="M40.9500 15.5400
L40.1500 15.5400
" />
<path d="M9.8900 23.6078
L9.8900 23.3922
" />
<path d="M10.6100 23.6078
L10.6100 23.3922
" />
<path d="M9.8900 30.0878
L9.8900 29.8722
" />
<path d="M10.6100 30.0878
L10.6100 29.8722
" />
<path d="M9.9936 27.1800
L9.6864 27.1800
" />
<path d="M9.9936 26.4200
L9.6864 26.4200
" />
<path d="M8.4150 36.0850
L9.8850 36.0850
" />
<path d="M9.8850 36.0850
L9.8850 33.8000
" />
<path d="M8.4150 33.8000
L8.4150 36.0850
" />
<path d="M35.1525 3.2650
L35.1525 4.7350
" />
<path d="M35.1525 4.7350
L37.4375 4.7350
" />
<path d="M37.4375 3.2650
L35.1525 3.2650
" />
<path d="M34.9387 30.1900
L36.3613 30.1900
" />
<path d="M34.9387 32.0100
L36.3613 32.0100
" />
<path d="M31.5400 34.2406
L31.5400 33.9594
" />
<path d="M32.5600 34.2406
L32.5600 33.9594
" />
<path d="M39.2275 34.8373
L39.2275 34.3627
" />
<path d="M40.2725 34.8373
L40.2725 34.3627
" />
<path d="M45.2350 21.2600
L49.5950 21.2600
" />
<path d="M45.2350 21.2600
L45.2350 18.7600
" />
<path d="M45.2350 18.7600
L45.0350 18.7600
" />
<path d="M45.0350 18.1000
L45.0350 18.7600
" />
<path d="M45.2350 15.2400
L45.2350 12.7400
" />
<path d="M45.2350 12.7400
L49.5950 12.7400
" />
<path d="M3.4950 13.1500
L2.7050 13.1500
" />
<path d="M1.6950 13.7500
L1.6950 19.4500
" />
<path d="M4.5450 15.0000
L4.5450 16.7000
" />
<path d="M1.6950 15.2000
L0.4050 15.2000
" />
<path d="M0.4050 15.2000
L0.1950 15.4000
" />
<path d="M0.1950 15.4000
L0.1950 16.3000
" />
<path d="M0.4050 16.5000
L0.1950 16.3000
" />
<path d="M0.4050 16.5000
L1.6950 16.5000
" />
<path d="M4.5450 18.0000
L4.5450 18.2000
" />
<path d="M2.7050 20.0500
L3.4950 20.0500
" />
<path d="M12.7400 22.8900
L12.7400 23.8400
" />
<path d="M12.7400 23.8400
L11.4000 23.8400
" />
<path d="M12.7400 33.1100
L12.7400 32.1600
" />
<path d="M13.6900 22.8900
L12.7400 22.8900
" />
<path d="M13.6900 33.1100
L12.7400 33.1100
" />
<path d="M22.0100 22.8900
L22.9600 22.8900
" />
<path d="M22.0100 33.1100
L22.9600 33.1100
" />
<path d="M22.9600 22.8900
L22.9600 23.8400
" />
<path d="M22.9600 33.1100
L22.9600 32.1600
" />
<path d="M23.7900 22.3078
L23.7900 22.0922
" />
<path d="M24.5100 22.3078
L24.5100 22.0922
" />
<path d="M16.7036 17.1800
L16.3964 17.1800
" />
<path d="M16.7036 16.4200
L16.3964 16.4200
" />
<path d="M29.6387 39.2900
L31.0613 39.2900
" />
<path d="M29.6387 41.1100
L31.0613 41.1100
" />
<path d="M7.5136 17.7800
L7.2064 17.7800
" />
<path d="M7.5136 17.0200
L7.2064 17.0200
" />
<path d="M8.5900 30.0878
L8.5900 29.8722
" />
<path d="M9.3100 30.0878
L9.3100 29.8722
" />
<path d="M25.3400 23.5406
L25.3400 23.2594
" />
<path d="M26.3600 23.5406
L26.3600 23.2594
" />
<path d="M11.6725 34.3627
L11.6725 34.8373
" />
<path d="M10.6275 34.3627
L10.6275 34.8373
" />
<path d="M14.9578 36.0600
L14.7422 36.0600
" />
<path d="M14.9578 35.3400
L14.7422 35.3400
" />
<path d="M7.0422 23.3900
L7.2578 23.3900
" />
<path d="M7.0422 24.1100
L7.2578 24.1100
" />
<path d="M41.0275 38.1373
L41.0275 37.6627
" />
<path d="M42.0725 38.1373
L42.0725 37.6627
" />
<path d="M38.5725 34.3627
L38.5725 34.8373
" />
<path d="M37.5275 34.3627
L37.5275 34.8373
" />
<path d="M25.3150 8.8300
L25.3750 8.8300
" />
<path d="M25.3150 8.8300
L25.3150 6.1700
" />
<path d="M31.7250 8.8300
L31.7850 8.8300
" />
<path d="M31.7850 8.8300
L31.7850 6.1700
" />
<path d="M25.3150 6.1700
L25.3750 6.1700
" />
<path d="M25.3750 6.1700
L25.3750 4.7100
" />
<path d="M31.7250 6.1700
L31.7850 6.1700
" />
<path d="M18.4964 17.1800
L18.8036 17.1800
" />
<path d="M18.4964 16.4200
L18.8036 16.4200
" />
<path d="M11.4656 20.6100
L11.1844 20.6100
" />
<path d="M11.4656 19.5900
L11.1844 19.5900
" />
<path d="M37.5275 38.1373
L37.5275 37.6627
" />
<path d="M38.5725 38.1373
L38.5725 37.6627
" />
<path d="M33.5900 35.4000
L33.5900 37.2000
" />
<path d="M33.5900 35.4000
L33.5900 34.6000
" />
<path d="M36.7100 35.4000
L36.7100 36.2000
" />
<path d="M36.7100 35.4000
L36.7100 34.6000
" />
<path d="M22.5344 35.4900
L22.8156 35.4900
" />
<path d="M22.5344 36.5100
L22.8156 36.5100
" />
<g >
</g>
<g >
</g>
<g >
</g>
<g >
</g>
<g >
</g>
<g >
</g>
<g >
</g>
<g >
</g>
<g >
</g>
<g >
</g>
<g >
</g>
<g >
</g>
<g >
</g>
<g >
</g>
<g >
</g>
<g >
</g>
<g >
</g>
<g >
</g>
<g >
</g>
<g >
</g>
<g >
</g>
<g >
</g>
<g >
</g>
<g >
</g>
<g >
</g>
<g >
</g>
<g >
</g>
<g >
</g>
<g >
</g>
<g >
</g>
<g >
</g>
<g >
</g>
<g >
</g>
<g >
</g>
<g >
</g>
<g >
</g>
<g >
</g>
<g >
</g>
<g >
</g>
<g >
</g>
<g >
</g>
<g >
</g>
<g >
</g>
<g >
</g>
<g >
</g>
<g >
</g>
<g >
</g>
<g >
</g>
<g >
</g>
<g >
</g>
<g >
</g>
<g >
</g>
<g >
</g>
<g >
</g>
</g>
<g style="fill:#000000; fill-opacity:0.0; 
stroke:#000000; stroke-width:0.1200; stroke-opacity:1; 
stroke-linecap:round; stroke-linejoin:round;">
</g>
<g style="fill:#D0D2CD; fill-opacity:0.0; 
stroke:#D0D2CD; stroke-width:0.1200; stroke-opacity:1; 
stroke-linecap:round; stroke-linejoin:round;">
</g>
<g style="fill:#D0D2CD; fill-opacity:0.0; 
stroke:#D0D2CD; stroke-width:0.1000; stroke-opacity:1; 
stroke-linecap:round; stroke-linejoin:round;">
<path d="M6.4500 0.0500
L44.9497 0.0557
" />
<path d="M0.9500 45.5500 A5.7500 5.7500 0.0 0 0 6.7000 51.3000" />
<path d="M45.2000 51.3000
L6.7000 51.3000
" />
<path d="M45.2000 51.3000 A5.5000 5.5000 0.0 0 0 50.6943 45.5503" />
<path d="M0.9500 45.5500
L0.9500 5.5500
" />
<path d="M6.4500 0.0500 A5.5000 5.5000 0.0 0 0 0.9500 5.5500" />
<path d="M50.7000 5.8000 A5.7500 5.7500 0.0 0 0 44.9497 0.0500" />
<path d="M50.7000 5.8000
L50.7000 45.5500
" />
<g >
</g>
<g >
</g>
<g >
</g>
<g >
</g>
<g >
</g>
<g >
</g>
<g >
</g>
<g >
</g>
<g >
</g>
<g >
</g>
<g >
</g>
<g >
</g>
<g >
</g>
<g >
</g>
<g >
</g>
<g >
</g>
<g >
</g>
<g >
</g>
<g >
</g>
<g >
</g>
<g >
</g>
<g >
</g>
<g >
</g>
<g >
</g>
<g >
</g>
<g >
</g>
<g >
</g>
<g >
</g>
<g >
</g>
<g >
</g>
<g >
</g>
<g >
</g>
<g >
</g>
<g >
</g>
<g >
</g>
<g >
</g>
<g >
</g>
<g >
</g>
<g >
</g>
<g >
</g>
<g >
</g>
<g >
</g>
<g >
</g>
<g >
</g>
<g >
</g>
<g >
</g>
<g >
</g>
<g >
</g>
<g >
</g>
<g >
</g>
<g >
</g>
<g >
</g>
<g >
</g>
<g >
</g>
</g> 
</svg>
